<svg xmlns="http://www.w3.org/2000/svg" viewBox="0 0 324 432"><defs><style>.cls-1{fill:#2b9da6;}.cls-2{fill:#fff;}</style></defs><title>Risorsa 1JPG</title><g id="Livello_2" data-name="Livello 2"><g id="Livello_1-2" data-name="Livello 1"><path class="cls-1" d="M194.91,129.09A19.53,19.53,0,0,1,189,114.75V0H20.25A19.53,19.53,0,0,0,5.91,5.91,19.53,19.53,0,0,0,0,20.25v391.5a19.53,19.53,0,0,0,5.91,14.34A19.53,19.53,0,0,0,20.25,432h283.5A20.17,20.17,0,0,0,324,411.75V135H209.25A19.53,19.53,0,0,1,194.91,129.09ZM108,299.89q-4.14,3.22-14.54,3.22v-9q4.88,0,6.67-1.47t1.79-6.53V233.55h10.12l.09,53.27Q112.17,296.67,108,299.89Zm59.2-28.61q-5.38,5.71-16.05,5.7H138.3v19.6H128.09v-63h23.09q21.44,0,21.44,21.16Q172.62,265.57,167.24,271.27ZM227.91,235l-.37,8.1a154,154,0,0,0-20-1.47q-8.83,0-12.1,5T192.21,265q0,13.43,3.08,18.54t12.47,5.11a44.66,44.66,0,0,0,10-.83V272.47H210v-9h17.94v32a80.49,80.49,0,0,1-10.07,1.38q-7.59.74-11,.74-14.35,0-19.78-7.91t-5.43-24.79q0-16.88,5.57-24.61t19.27-7.73a102.87,102.87,0,0,1,18.22,1.84Z"/><path class="cls-1" d="M151.09,242.39H138.3v25.76h12.79q11,0,11-13.43,0-6.44-2.67-9.38T151.09,242.39Z"/><path class="cls-1" d="M318.09,88.59,235.41,5.91A19.53,19.53,0,0,0,221.06,0H216V108H324v-5.06A19.53,19.53,0,0,0,318.09,88.59Z"/><path class="cls-2" d="M102,233.55v52.53q0,5.06-1.79,6.53t-6.67,1.47v9q10.4,0,14.54-3.22t4.14-13.06l-.09-53.27Z"/><path class="cls-2" d="M151.18,233.55H128.09v63H138.3V277h12.88q10.67,0,16.05-5.7t5.38-16.56Q172.62,233.55,151.18,233.55Zm-.09,34.59H138.3V242.39h12.79q5.7,0,8.37,2.94t2.67,9.38Q162.13,268.15,151.09,268.15Z"/><path class="cls-2" d="M187.2,240.27q-5.57,7.73-5.57,24.61t5.43,24.79q5.43,7.91,19.78,7.91,3.4,0,11-.74a80.49,80.49,0,0,0,10.07-1.38v-32H210v9h7.82v15.36a44.66,44.66,0,0,1-10,.83q-9.38,0-12.47-5.11T192.21,265q0-13.43,3.27-18.4t12.1-5a154,154,0,0,1,20,1.47l.37-8.1-3.22-.64a102.87,102.87,0,0,0-18.22-1.84Q192.76,232.54,187.2,240.27Z"/></g></g></svg>