<?xml version="1.0" encoding="UTF-8" standalone="no"?><!DOCTYPE svg PUBLIC "-//W3C//DTD SVG 1.1//EN" "http://www.w3.org/Graphics/SVG/1.1/DTD/svg11.dtd"><svg width="100%" height="100%" viewBox="0 0 86 86" version="1.1" xmlns="http://www.w3.org/2000/svg" xmlns:xlink="http://www.w3.org/1999/xlink" xml:space="preserve" xmlns:serif="http://www.serif.com/" style="fill-rule:evenodd;clip-rule:evenodd;stroke-linejoin:round;stroke-miterlimit:1.41421;"><path id="Livello_1-2" d="M42.73,0c-23.437,0.005 -42.72,19.293 -42.72,42.73c0,23.441 19.289,42.73 42.73,42.73c23.441,0 42.73,-19.289 42.73,-42.73c0,0 0,0 0,0c0,-23.441 -19.289,-42.73 -42.73,-42.73c-0.003,0 -0.007,0 -0.01,0Zm18.65,32.92c0.075,0.402 0.105,0.811 0.09,1.22c-0.016,4.536 -1.143,8.999 -3.28,13c-2.145,4.318 -5.418,7.978 -9.47,10.59c-4.534,2.97 -9.86,4.507 -15.28,4.41c-5.353,0.041 -10.602,-1.493 -15.09,-4.41c0.667,0.06 1.447,0.09 2.34,0.09c4.459,0.054 8.806,-1.422 12.31,-4.18c-2.085,0.036 -4.122,-0.642 -5.77,-1.92c-1.611,-1.218 -2.806,-2.906 -3.42,-4.83c0.627,0.06 1.22,0.09 1.78,0.09c0.884,0 1.766,-0.094 2.63,-0.28c-2.214,-0.481 -4.198,-1.706 -5.62,-3.47c-1.488,-1.732 -2.299,-3.946 -2.28,-6.23l0,-0.19c1.336,0.8 2.853,1.251 4.41,1.31c-1.313,-0.936 -2.403,-2.152 -3.19,-3.56c-1.649,-2.987 -1.577,-6.64 0.19,-9.56c4.961,6.178 12.354,9.924 20.27,10.27c-0.133,-0.749 -0.203,-1.509 -0.21,-2.27c-0.003,-1.72 0.449,-3.411 1.31,-4.9c0.843,-1.5 2.072,-2.746 3.56,-3.61c1.479,-0.869 3.165,-1.321 4.88,-1.31c1.379,-0.017 2.745,0.27 4,0.84c1.202,0.552 2.296,1.314 3.23,2.25c2.193,-0.43 4.299,-1.224 6.23,-2.35c-0.722,2.279 -2.257,4.216 -4.31,5.44c1.938,-0.268 3.829,-0.803 5.62,-1.59c-1.347,1.977 -3.013,3.718 -4.93,5.15Z" style="fill:#fff;fill-rule:nonzero;"/></svg>