<svg xmlns="http://www.w3.org/2000/svg" viewBox="0 0 324 432"><defs><style>.cls-1{fill:#2767b2;}.cls-2{fill:#fff;}</style></defs><title>Risorsa 1DOCX</title><g id="Livello_2" data-name="Livello 2"><g id="Livello_1-2" data-name="Livello 1"><path class="cls-1" d="M78.27,242.48H66.68v45.08H78.27q9.11,0,12.14-6.72a27.12,27.12,0,0,0,2-7.27A75.73,75.73,0,0,0,92.9,264q0-11.41-2.85-16.47T78.27,242.48Z"/><path class="cls-1" d="M140.19,241.47q-8.65,0-11.87,5.7t-3.22,18.17q0,12.47,3.13,17.89t12,5.43q8.83,0,11.91-5.34t3.08-17.89q0-12.56-3.17-18.26T140.19,241.47Z"/><path class="cls-1" d="M194.91,129.09A19.53,19.53,0,0,1,189,114.75V0H20.25A19.53,19.53,0,0,0,5.91,5.91,19.53,19.53,0,0,0,0,20.25v391.5a19.53,19.53,0,0,0,5.91,14.34A19.53,19.53,0,0,0,20.25,432h283.5A20.17,20.17,0,0,0,324,411.75V135H209.25A19.53,19.53,0,0,1,194.91,129.09ZM102.42,277.57a31,31,0,0,1-3.73,10.07q-5.24,8.93-20.42,8.92H56.47v-63h21.8q14.54,0,19.87,7.36T103.48,264A74.15,74.15,0,0,1,102.42,277.57Zm57.68,12.28q-5.66,7.73-19.92,7.73t-20-7.77q-5.71-7.77-5.7-24.43t5.75-24.75q5.75-8.09,19.92-8.1t19.87,8.05q5.7,8.05,5.7,24.79T160.11,289.86Zm65.18-56.3h11.5l13.52,24.84L264,233.55h10.76l-18.68,32,18.68,31H263.37l-13.52-23.74L236,296.57H225.29l18.77-30.45Zm-34.87,50q2.85,4.92,11.13,4.92a103.93,103.93,0,0,0,16.74-1.38l.28,8.46a86.07,86.07,0,0,1-17.94,2q-13.8,0-18.72-7.64T177,264.83q0-17.48,5-24.89t18.68-7.41a79.85,79.85,0,0,1,18,2.3l-.37,8.28a94.52,94.52,0,0,0-16.56-1.47q-8.28,0-11.22,4.92t-2.94,18.49Q187.57,278.63,190.42,283.56Z"/><path class="cls-1" d="M318.09,88.59,235.41,5.91A19.53,19.53,0,0,0,221.06,0H216V108H324v-5.06A19.53,19.53,0,0,0,318.09,88.59Z"/><path class="cls-2" d="M78.27,233.55H56.47v63h21.8q15.18,0,20.42-8.92a31,31,0,0,0,3.73-10.07A74.15,74.15,0,0,0,103.48,264q0-15.73-5.34-23.09T78.27,233.55Zm14.12,40a27.12,27.12,0,0,1-2,7.27q-3,6.72-12.14,6.72H66.68V242.48H78.27q8.92,0,11.78,5.06T92.9,264A75.73,75.73,0,0,1,92.39,273.57Z"/><path class="cls-2" d="M140.19,232.54q-14.17,0-19.92,8.1t-5.75,24.75q0,16.65,5.7,24.43t20,7.77q14.26,0,19.92-7.73t5.66-24.47q0-16.74-5.7-24.79T140.19,232.54Zm11.91,50.78q-3.08,5.34-11.91,5.34t-12-5.43q-3.13-5.43-3.13-17.89t3.22-18.17q3.22-5.7,11.87-5.7t11.82,5.7q3.17,5.7,3.17,18.26T152.1,283.32Z"/><path class="cls-2" d="M201.73,241.65a94.52,94.52,0,0,1,16.56,1.47l.37-8.28a79.85,79.85,0,0,0-18-2.3q-13.71,0-18.68,7.41t-5,24.89q0,17.48,4.92,25.12t18.72,7.64a86.07,86.07,0,0,0,17.94-2l-.28-8.46a103.93,103.93,0,0,1-16.74,1.38q-8.28,0-11.13-4.92t-2.85-18.49q0-13.57,2.94-18.49T201.73,241.65Z"/><polygon class="cls-2" points="236.05 296.57 249.85 272.84 263.37 296.57 274.78 296.57 256.11 265.57 274.78 233.55 264.02 233.55 250.31 258.39 236.79 233.55 225.29 233.55 244.05 266.12 225.29 296.57 236.05 296.57"/></g></g></svg>