<?xml version="1.0" encoding="utf-8"?>
<!-- Generator: Adobe Illustrator 21.1.0, SVG Export Plug-In . SVG Version: 6.00 Build 0)  -->
<svg version="1.1" id="Livello_1" xmlns="http://www.w3.org/2000/svg" xmlns:xlink="http://www.w3.org/1999/xlink" x="0px" y="0px"
	 viewBox="0 0 324 432" style="enable-background:new 0 0 324 432;" xml:space="preserve">
<style type="text/css">
	.st0{fill:#5E9F43;}
	.st1{fill:#FFFFFF;}
	.st2{fill:#6C6D6D;}
</style>
<g>
	<path class="st0" d="M1344,1322.8c0,5.6,2,10.4,5.9,14.3s8.7,5.9,14.3,5.9H1479v276.7c0,5.6-2,10.4-5.9,14.3s-8.7,5.9-14.3,5.9
		h-283.5c-5.6,0-10.4-2-14.3-5.9s-5.9-8.7-5.9-14.3v-391.5c0-5.6,2-10.4,5.9-14.3s8.7-5.9,14.3-5.9H1344V1322.8z M1479,1311
		c0-5.6-2-10.4-5.9-14.3l-82.7-82.7c-3.9-3.9-8.7-5.9-14.3-5.9h-5.1v108h108V1311z"/>
</g>
<g>
	<path class="st1" d="M1241.6,1441.6l13.5,24.8l13.7-24.8h10.8l-18.7,32l18.7,31h-11.4l-13.5-23.7l-13.8,23.7h-10.8l18.8-30.5
		l-18.8-32.6L1241.6,1441.6L1241.6,1441.6z"/>
	<path class="st1" d="M1289.9,1504.6v-63h17.8l14.1,49.2l14.1-49.2h17.8v63h-10.3v-51.7h-1.4l-15,49.1h-10.7l-14.9-49.1h-1.4v51.7
		H1289.9z"/>
	<path class="st1" d="M1405.2,1504.6h-35.3v-63h10.2v53.9h25.1L1405.2,1504.6L1405.2,1504.6z"/>
</g>
<g>
	<path class="st2" d="M189,115.8c0,5.6,2,10.4,5.9,14.3s8.7,5.9,14.3,5.9H324v276.7c0,5.6-2,10.4-5.9,14.3s-8.7,5.9-14.3,5.9H20.3
		c-5.6,0-10.4-2-14.3-5.9s-5.9-8.7-5.9-14.3V21.2c0-5.6,2-10.4,5.9-14.3S14.7,1,20.3,1H189V115.8z M324,104c0-5.6-2-10.4-5.9-14.3
		L235.4,7c-3.9-3.9-8.7-5.9-14.3-5.9H216v108h108V104z"/>
</g>
<g>
	<path class="st1" d="M83.1,297.6v-63h39.1v8.9H93.3v21.3h24v8.9h-24v23.9L83.1,297.6L83.1,297.6z"/>
	<path class="st1" d="M133.6,297.6v-63h10.2v63H133.6z"/>
	<path class="st1" d="M195.5,297.6h-35.3v-63h10.2v53.9h25.1L195.5,297.6L195.5,297.6z"/>
	<path class="st1" d="M205.7,297.6v-63h39.7v8.9H216v17.8h24v8.8h-24v18.4h29.5v9L205.7,297.6L205.7,297.6z"/>
</g>
</svg>
