<?xml version="1.0" encoding="UTF-8" standalone="no"?><!DOCTYPE svg PUBLIC "-//W3C//DTD SVG 1.1//EN" "http://www.w3.org/Graphics/SVG/1.1/DTD/svg11.dtd"><svg width="100%" height="100%" viewBox="0 0 378 378" version="1.1" xmlns="http://www.w3.org/2000/svg" xmlns:xlink="http://www.w3.org/1999/xlink" xml:space="preserve" xmlns:serif="http://www.serif.com/" style="fill-rule:evenodd;clip-rule:evenodd;stroke-linejoin:round;stroke-miterlimit:1.41421;"><path id="Livello_1-2" d="M378,337.5c0,0.057 0,0.114 0,0.17c0,22.125 -18.205,40.33 -40.33,40.33c-0.056,0 -0.113,0 -0.17,0l-71.72,0l0,-149.34l50.63,0l7.59,-57.38l-58.22,0l0,-36.28c0,-9 1.687,-15.75 5.06,-20.25c4.5,-5.06 12.093,-7.59 22.78,-7.59l30.38,0l0,-50.63c-11.813,-1.687 -26.437,-2.53 -43.87,-2.53c-22.5,0 -40.36,6.61 -53.58,19.83c-13.22,13.22 -19.83,31.643 -19.83,55.27l0,42.19l-51.47,0l0,57.38l51.47,0l0,149.33l-166.22,0c-10.779,0.193 -21.171,-4.085 -28.69,-11.81c-7.725,-7.519 -12.003,-17.911 -11.81,-28.69l0,-297c-0.193,-10.779 4.085,-21.171 11.81,-28.69c7.519,-7.725 17.911,-12.003 28.69,-11.81l297,0c10.779,-0.193 21.171,4.085 28.69,11.81c7.725,7.519 12.003,17.911 11.81,28.69l0,297Z" style="fill:#375595;fill-rule:nonzero;"/></svg>