<svg xmlns="http://www.w3.org/2000/svg" viewBox="0 0 324 432"><defs><style>.cls-1{fill:#187447;}.cls-2{fill:#fff;}</style></defs><title>Risorsa 2XLS</title><g id="Livello_2" data-name="Livello 2"><g id="Livello_1-2" data-name="Livello 1"><path class="cls-1" d="M189,114.75A20.17,20.17,0,0,0,209.25,135H324V411.75A20.17,20.17,0,0,1,303.75,432H20.25a19.53,19.53,0,0,1-14.34-5.91A19.53,19.53,0,0,1,0,411.75V20.25A19.53,19.53,0,0,1,5.91,5.91,19.53,19.53,0,0,1,20.25,0H189Zm135-11.81a19.53,19.53,0,0,0-5.91-14.34L235.41,5.91A19.53,19.53,0,0,0,221.06,0H216V108H324Z"/><path class="cls-2" d="M100.67,233.55l13.52,24.84,13.71-24.84h10.76l-18.68,32,18.68,31H127.26l-13.52-23.74-13.8,23.74H89.17l18.77-30.45L89.17,233.55Z"/><path class="cls-2" d="M184.3,296.57H149v-63h10.21v53.91H184.3Z"/><path class="cls-2" d="M213,241.47q-11.69,0-11.68,8.19,0,4.23,2.76,6t12.19,4.42q9.43,2.62,13.29,6.26t3.86,11.45q0,9.94-5.66,14.86t-15.41,4.92a91.38,91.38,0,0,1-17.3-1.84l-3.31-.64,1-8.19a155.21,155.21,0,0,0,19,1.66q11.41,0,11.41-10.12,0-4-2.58-5.84T209,268.47q-9-2.25-13.43-6.21t-4.42-12.51q0-8.56,5.57-12.93t15.41-4.37a101.08,101.08,0,0,1,16.74,1.66l3.22.55-.83,8.28Q218.34,241.47,213,241.47Z"/></g></g></svg>