<?xml version="1.0" encoding="utf-8"?>
<!-- Generator: Adobe Illustrator 21.1.0, SVG Export Plug-In . SVG Version: 6.00 Build 0)  -->
<svg version="1.1" id="Livello_1" xmlns="http://www.w3.org/2000/svg" xmlns:xlink="http://www.w3.org/1999/xlink" x="0px" y="0px"
	 viewBox="0 0 324 432" style="enable-background:new 0 0 324 432;" xml:space="preserve">
<style type="text/css">
	.st0{enable-background:new    ;}
	.st1{fill:#896428;}
	.st2{fill:#FFFFFF;}
</style>
<g class="st0">
	<path class="st1" d="M189,114.8c0,5.6,2,10.4,5.9,14.3s8.7,5.9,14.3,5.9H324v276.8c0,5.6-2,10.4-5.9,14.3s-8.7,5.9-14.3,5.9H20.3
		c-5.6,0-10.4-2-14.3-5.9S0,417.4,0,411.8V20.3C0,14.7,2,9.9,5.9,6S14.6,0,20.3,0H189V114.8z M324,103c0-5.6-2-10.4-5.9-14.3
		L235.4,6C231.5,2,226.7,0,221.1,0H216v108h108V103z"/>
</g>
<g class="st0">
	<path class="st2" d="M92.5,246.5v-8.9h41.4v9.8L104.6,290v1.7h29.3v8.9H92.5v-9.8l29.2-42.5v-1.8H92.5z"/>
	<path class="st2" d="M145.9,300.6v-63h10.2v63H145.9z"/>
	<path class="st2" d="M194.7,281h-12.9v19.6h-10.2v-63h23.1c14.3,0,21.4,7.1,21.4,21.2c0,7.2-1.8,12.8-5.4,16.6
		C207.2,279.1,201.8,281,194.7,281z M181.8,272.2h12.8c7.4,0,11-4.5,11-13.4c0-4.3-0.9-7.4-2.7-9.4c-1.8-2-4.6-2.9-8.4-2.9h-12.8
		V272.2z"/>
</g>
</svg>
