<?xml version="1.0" encoding="UTF-8" standalone="no"?><!DOCTYPE svg PUBLIC "-//W3C//DTD SVG 1.1//EN" "http://www.w3.org/Graphics/SVG/1.1/DTD/svg11.dtd"><svg width="100%" height="100%" viewBox="0 0 512 512" version="1.1" xmlns="http://www.w3.org/2000/svg" xmlns:xlink="http://www.w3.org/1999/xlink" xml:space="preserve" xmlns:serif="http://www.serif.com/" style="fill-rule:evenodd;clip-rule:evenodd;stroke-linejoin:round;stroke-miterlimit:1.41421;"><path id="Capa_1" d="M483.83,28.16c-18.773,-18.773 -41.383,-28.16 -67.83,-28.16l-320,0c-26.44,0 -49.053,9.387 -67.84,28.16c-18.787,18.773 -28.173,41.387 -28.16,67.84l0,320c0,26.44 9.387,49.053 28.16,67.84c18.773,18.787 41.387,28.173 67.84,28.16l320,0c26.44,0 49.05,-9.39 67.83,-28.17c18.78,-18.78 28.17,-41.39 28.17,-67.83l0,-320c0,-26.447 -9.39,-49.06 -28.17,-67.84Zm-57.16,249.17c-0.155,11.647 -9.693,21.185 -21.34,21.34l-106.66,0l0,106.66c-0.166,11.643 -9.697,21.174 -21.34,21.34l-42.66,0c-11.642,-0.166 -21.17,-9.698 -21.33,-21.34l0,-106.66l-106.68,0c-11.642,-0.166 -21.17,-9.698 -21.33,-21.34l0,-42.67c0.16,-11.64 9.69,-21.17 21.33,-21.33l106.67,0l0,-106.67c0.16,-11.642 9.688,-21.174 21.33,-21.34l42.66,0c11.643,0.166 21.174,9.697 21.34,21.34l0,106.67l106.67,0c11.644,0.155 21.18,9.686 21.34,21.33l0,42.67Z" style="fill:#dc4c44;fill-rule:nonzero;"/></svg>