<?xml version="1.0" encoding="UTF-8" standalone="no"?><!DOCTYPE svg PUBLIC "-//W3C//DTD SVG 1.1//EN" "http://www.w3.org/Graphics/SVG/1.1/DTD/svg11.dtd"><svg width="100%" height="100%" viewBox="0 0 512 512" version="1.1" xmlns="http://www.w3.org/2000/svg" xmlns:xlink="http://www.w3.org/1999/xlink" xml:space="preserve" xmlns:serif="http://www.serif.com/" style="fill-rule:evenodd;clip-rule:evenodd;stroke-linejoin:round;stroke-miterlimit:1.41421;"><path id="Capa_1" d="M477.67,127.5c-22.355,-38.678 -54.489,-70.809 -93.17,-93.16c-39.22,-22.893 -82.053,-34.34 -128.5,-34.34c-46.447,0 -89.277,11.443 -128.49,34.33c-38.684,22.351 -70.819,54.486 -93.17,93.17c-22.893,39.227 -34.34,82.06 -34.34,128.5c0,46.44 11.443,89.273 34.33,128.5c22.354,38.682 54.488,70.816 93.17,93.17c39.227,22.887 82.06,34.33 128.5,34.33c46.44,0 89.273,-11.443 128.5,-34.33c38.68,-22.353 70.812,-54.487 93.16,-93.17c22.893,-39.227 34.34,-82.06 34.34,-128.5c0,-46.44 -11.443,-89.273 -34.33,-128.5Zm-72.33,149.83c-0.16,11.645 -9.695,21.18 -21.34,21.34l-85.33,0l0,85.33c-0.155,11.647 -9.693,21.185 -21.34,21.34l-42.66,0c-11.647,-0.155 -21.185,-9.693 -21.34,-21.34l0,-85.33l-85.33,0c-11.642,-0.166 -21.17,-9.698 -21.33,-21.34l0,-42.67c0.16,-11.64 9.69,-21.17 21.33,-21.33l85.34,0l0,-85.33c0.16,-11.64 9.69,-21.17 21.33,-21.33l42.67,0c11.642,0.16 21.174,9.688 21.34,21.33l0,85.33l85.32,0c11.642,0.16 21.174,9.688 21.34,21.33l0,42.67Z" style="fill:#fff;fill-rule:nonzero;"/></svg>