<svg xmlns="http://www.w3.org/2000/svg" viewBox="0 0 1199.99 50"><defs><style>.cls-1{fill:#f2f2f2;}.cls-2{fill:#157db6;}.cls-3{fill:none;}.cls-4{fill:#fff;}</style></defs><title>Risorsa 1BARRA OTTANIO MONDO</title><g id="Livello_2" data-name="Livello 2"><g id="Livello_1-2" data-name="Livello 1"><g id="Livello_2-2" data-name="Livello 2"><g id="Livello_1-2-2" data-name="Livello 1-2"><rect class="cls-1" width="1199.99" height="50"/><path class="cls-2" d="M1174.88,50a25,25,0,0,0,0-50H0V50Z"/><path class="cls-3" d="M1189.51,17.4l-1.07.49a2.43,2.43,0,0,0-.82.66L1186.06,21a1.9,1.9,0,0,0,0,2.14l1.48,2.22a1.76,1.76,0,0,0,1.15.82l2.39.66a16.5,16.5,0,0,0,.16-2.14A16.15,16.15,0,0,0,1189.51,17.4Z"/><path class="cls-3" d="M1181.94,29.25l-1.15-1.15a2.46,2.46,0,0,0-1.81-.74h-5.51a4.37,4.37,0,0,1-1.07-1.23q-.58-.66-.82-1a1.14,1.14,0,0,0-.74-.41,5.44,5.44,0,0,1-2.47-.58l-.9-.49a1,1,0,0,1,.08-1.81l2.55-.82a1.28,1.28,0,0,1,1.32.25l.74.66a.56.56,0,0,0,.41.16h.49a.59.59,0,0,0,.58-.33.7.7,0,0,0,0-.66l-1.23-2.55a.55.55,0,0,1,.08-.74l.82-.82a.67.67,0,0,1,.49-.16h.74a.56.56,0,0,0,.41-.16l.66-.66a.62.62,0,0,0,0-1l-.33-.33a.62.62,0,0,1,0-1l1.23-1.23a1.22,1.22,0,0,0,.33-.9,1.22,1.22,0,0,0-.33-.9l-2.39-2.39q-1,.08-2,.25v.9a1.21,1.21,0,0,1-.62,1.11,1.25,1.25,0,0,1-1.28,0l-2-1a16,16,0,0,0-5.06,3.41,16.27,16.27,0,0,0-3.41,5l2.8,4.2a9.09,9.09,0,0,0,1.48,1.73l.08.08a13.49,13.49,0,0,0,2.67,1.81q1.44.74,4,2.14a2.67,2.67,0,0,1,1.32,2.3v2.63a2.6,2.6,0,0,0,.82,1.89,6.45,6.45,0,0,1,1.36,2.1,4.52,4.52,0,0,1,.45,2.1v2.22a15.93,15.93,0,0,0,3.54-.41l1.4-3.87a5.1,5.1,0,0,0,.33-1l.08-.33a1.55,1.55,0,0,1,.41-.9q.33-.33,1-.9,3.25-.88,1.15-2.71C1182.15,30.59,1182.44,29.74,1181.94,29.25Z"/><path class="cls-4" d="M1189.23,10.29a20.45,20.45,0,1,0,6,14.43A20.45,20.45,0,0,0,1189.23,10.29Zm-16.45,31.2h0c-.87-.3-7.21-1.86-8.83-3.52-2.15-2.19-7.75-8.65-5.52-17.49,0,0,.56,4.51,3.95,6.71l.41.25s4.92,1.5,5.92,2.51.94,4.07.94,4.07a4.51,4.51,0,0,0,1.57,2.69c1.29,1,1.54,4.34,1.56,4.78Zm8.75-7.72-1,.9a1.55,1.55,0,0,0-.41.9l-.08.33a5.1,5.1,0,0,1-.33,1l-1.4,3.87a15.93,15.93,0,0,1-3.54.41V39a4.52,4.52,0,0,0-.45-2.1,6.45,6.45,0,0,0-1.36-2.1,2.6,2.6,0,0,1-.82-1.89V30.24a2.67,2.67,0,0,0-1.32-2.3q-2.55-1.4-4-2.14a13.49,13.49,0,0,1-2.67-1.81l-.08-.08a9.09,9.09,0,0,1-1.48-1.73l-2.8-4.2a16.27,16.27,0,0,1,3.41-5,16,16,0,0,1,5.06-3.41l2,1a1.25,1.25,0,0,0,1.28,0,1.21,1.21,0,0,0,.62-1.11v-.9q1-.16,2-.25l2.39,2.39a1.22,1.22,0,0,1,.33.9,1.22,1.22,0,0,1-.33.9l-1.23,1.23a.62.62,0,0,0,0,1l.33.33a.62.62,0,0,1,0,1l-.66.66a.56.56,0,0,1-.41.16h-.74a.67.67,0,0,0-.49.16l-.82.82a.55.55,0,0,0-.08.74l1.23,2.55a.7.7,0,0,1,0,.66.59.59,0,0,1-.58.33h-.49a.56.56,0,0,1-.41-.16l-.74-.66a1.28,1.28,0,0,0-1.32-.25l-2.55.82a1,1,0,0,0-.08,1.81l.9.49a5.44,5.44,0,0,0,2.47.58,1.14,1.14,0,0,1,.74.41q.25.33.82,1a4.37,4.37,0,0,0,1.07,1.23H1179a2.46,2.46,0,0,1,1.81.74L1182,29.3c.49.49.2,1.34.74,1.81Q1184.78,32.89,1181.53,33.77Zm7.16-7.57a1.76,1.76,0,0,1-1.15-.82l-1.48-2.22a1.9,1.9,0,0,1,0-2.14l1.56-2.47a2.43,2.43,0,0,1,.82-.66l1.07-.49a16.15,16.15,0,0,1,1.73,7.32,16.5,16.5,0,0,1-.16,2.14Z"/><path class="cls-4" d="M1172.78,41.49Z"/></g></g></g></g></svg>