<?xml version="1.0" encoding="UTF-8" standalone="no"?><!DOCTYPE svg PUBLIC "-//W3C//DTD SVG 1.1//EN" "http://www.w3.org/Graphics/SVG/1.1/DTD/svg11.dtd"><svg width="100%" height="100%" viewBox="0 0 90 90" version="1.1" xmlns="http://www.w3.org/2000/svg" xmlns:xlink="http://www.w3.org/1999/xlink" xml:space="preserve" xmlns:serif="http://www.serif.com/" style="fill-rule:evenodd;clip-rule:evenodd;stroke-linejoin:round;stroke-miterlimit:1.41421;"><g id="Livello_4"><path d="M44.69,0c24.502,0.033 44.653,20.188 44.68,44.69c0,24.516 -20.174,44.69 -44.69,44.69c-24.516,0 -44.69,-20.174 -44.69,-44.69c0,-24.516 20.174,-44.69 44.69,-44.69c0.003,0 0.007,0 0.01,0Zm25.41,29.1c-0.005,-5.385 -4.435,-9.815 -9.82,-9.82l-31.18,0c-5.385,0.005 -9.815,4.435 -9.82,9.82l0,31.18c0.005,5.385 4.435,9.815 9.82,9.82l31.18,0c5.385,-0.006 9.815,-4.435 9.82,-9.82l0,-31.18Zm-4.96,10.37l0,20.81c0,2.672 -2.198,4.87 -4.87,4.87l-31.18,0c-2.672,0 -4.87,-2.198 -4.87,-4.87l0,-20.8l7.59,0c-0.674,1.66 -1.02,3.435 -1.02,5.226c0,7.626 6.275,13.9 13.9,13.9c7.625,0 13.9,-6.274 13.9,-13.9c0,-0.005 0,-0.011 0,-0.016c0.001,-1.79 -0.349,-3.564 -1.03,-5.22l7.58,0Zm-20.45,14.16c-4.896,-0.033 -8.913,-4.054 -8.94,-8.95c0.011,-4.891 4.039,-8.91 8.93,-8.91c4.899,0 8.93,4.031 8.93,8.93c0,4.895 -4.025,8.924 -8.92,8.93Zm19.53,-28.5l0,8.61l-8.59,0.03l-0.03,-8.61l7.5,-0.03l1.12,0Z" style="fill:#fff;"/></g></svg>