<svg xmlns="http://www.w3.org/2000/svg" viewBox="0 0 324 432"><defs><style>.cls-1{fill:#eb204e;}.cls-2{fill:#fff;}</style></defs><title>Risorsa 1PDF</title><g id="Livello_2" data-name="Livello 2"><g id="Livello_1-2" data-name="Livello 1"><path class="cls-1" d="M189,114.75A20.17,20.17,0,0,0,209.25,135H324V411.75A20.17,20.17,0,0,1,303.75,432H20.25a19.53,19.53,0,0,1-14.34-5.91A19.53,19.53,0,0,1,0,411.75V20.25A19.53,19.53,0,0,1,5.91,5.91,19.53,19.53,0,0,1,20.25,0H189Zm135-11.81a19.53,19.53,0,0,0-5.91-14.34L235.41,5.91A19.53,19.53,0,0,0,221.06,0H216V108H324Z"/><path class="cls-2" d="M110.1,277H97.22v19.6H87v-63H110.1q21.44,0,21.44,21.16,0,10.86-5.38,16.56T110.1,277Zm-12.88-8.83H110q11,0,11-13.43,0-6.44-2.67-9.38T110,242.39H97.22Z"/><path class="cls-2" d="M165,296.57h-21.8v-63H165q14.53,0,19.87,7.36T190.24,264a74.05,74.05,0,0,1-1.06,13.57,30.93,30.93,0,0,1-3.73,10.07Q180.21,296.57,165,296.57ZM179.66,264q0-11.41-2.85-16.47T165,242.48H153.44v45.08H165q9.11,0,12.14-6.72a27.12,27.12,0,0,0,2-7.27A75.83,75.83,0,0,0,179.66,264Z"/><path class="cls-2" d="M204,296.57v-63h39.1v8.92H214.25v21.25h24v8.92h-24v23.92Z"/></g></g></svg>