<?xml version="1.0" encoding="UTF-8" standalone="no"?><!DOCTYPE svg PUBLIC "-//W3C//DTD SVG 1.1//EN" "http://www.w3.org/Graphics/SVG/1.1/DTD/svg11.dtd"><svg width="100%" height="100%" viewBox="0 0 86 86" version="1.1" xmlns="http://www.w3.org/2000/svg" xmlns:xlink="http://www.w3.org/1999/xlink" xml:space="preserve" xmlns:serif="http://www.serif.com/" style="fill-rule:evenodd;clip-rule:evenodd;stroke-linejoin:round;stroke-miterlimit:1.41421;"><g id="Livello_1-2"><path d="M42.73,0l0.01,0c23.441,0 42.73,19.289 42.73,42.73c0,0 0,0 0,0c0,23.441 -19.289,42.73 -42.73,42.73c-23.441,0 -42.73,-19.289 -42.73,-42.73c0,-23.437 19.283,-42.725 42.72,-42.73Zm20.09,63.08l0.02,0c2.353,0 4.29,-1.937 4.29,-4.29c0,-0.007 0,-0.013 0,-0.02l0,-31.63c0,-0.007 0,-0.013 0,-0.02c0,-2.353 -1.937,-4.29 -4.29,-4.29c-0.007,0 -0.013,0 -0.02,0l-42.63,0c-0.007,0 -0.013,0 -0.02,0c-2.353,0 -4.29,1.937 -4.29,4.29c0,0.007 0,0.013 0,0.02l0,31.63c0,0.007 0,0.013 0,0.02c0,2.353 1.937,4.29 4.29,4.29l0.02,0l42.63,0Zm-0.18,-28.03c0.374,1.625 0.585,3.283 0.63,4.95c0.06,1.04 0.09,2.04 0.09,3c0.092,2.643 -0.15,5.287 -0.72,7.87c-0.345,1.419 -1.46,2.53 -2.88,2.87c-2.432,0.44 -4.899,0.651 -7.37,0.63l-4.39,0.09l-14.38,-0.1c-3.465,-0.026 -6.927,-0.236 -10.37,-0.63c-1.423,-0.342 -2.538,-1.457 -2.88,-2.88c-0.379,-1.59 -0.591,-3.216 -0.63,-4.85l-0.09,-3c-0.091,-2.666 0.151,-5.334 0.72,-7.94c0.34,-1.42 1.451,-2.535 2.87,-2.88c3.443,-0.394 6.905,-0.604 10.37,-0.63l14.39,-0.09l4.4,0.09c2.471,-0.021 4.938,0.19 7.37,0.63c1.416,0.344 2.526,1.454 2.87,2.87Zm-22,12.76l0,-9.7l7.57,4.89l-7.57,4.81Z" style="fill:#fff;"/></g></svg>