<svg xmlns="http://www.w3.org/2000/svg" viewBox="0 0 378.01 432"><defs><style>.cls-1{fill:#d6012e;}</style></defs><title>Risorsa 1USER ROSSO</title><g id="Livello_2" data-name="Livello 2"><g id="Livello_1-2" data-name="Livello 1"><g id="Livello_2-2" data-name="Livello 2"><g id="Livello_1-2-2" data-name="Livello 1-2"><path class="cls-1" d="M264.95,243a110.66,110.66,0,0,1,56.53,15.19,112.13,112.13,0,0,1,41.34,41.34A110.66,110.66,0,0,1,378,356.05v35.44A40.33,40.33,0,0,1,337.85,432H40.51a39.06,39.06,0,0,1-28.69-11.81A39.06,39.06,0,0,1,0,391.49V356.05A110.66,110.66,0,0,1,15.2,299.52a112.13,112.13,0,0,1,41.34-41.34A110.66,110.66,0,0,1,113.07,243h14.34a147.26,147.26,0,0,0,123.19,0ZM189,216a107.09,107.09,0,0,1-54.42-14.34,105.07,105.07,0,0,1-39.23-39.23A107.09,107.09,0,0,1,81,108,107.09,107.09,0,0,1,95.35,53.57a105.07,105.07,0,0,1,39.23-39.23,110.41,110.41,0,0,1,108.84,0,105.07,105.07,0,0,1,39.23,39.23A107.09,107.09,0,0,1,297,108a107.09,107.09,0,0,1-14.34,54.42,105.07,105.07,0,0,1-39.23,39.23A107.09,107.09,0,0,1,189,216Z"/></g></g></g></g></svg>