<svg xmlns="http://www.w3.org/2000/svg" viewBox="0 0 324 432"><defs><style>.cls-1{fill:#a72a8f;}.cls-2{fill:#fff;}</style></defs><title>Risorsa 2PNG</title><g id="Livello_2" data-name="Livello 2"><g id="Livello_1-2" data-name="Livello 1"><path class="cls-1" d="M189,114.75A20.17,20.17,0,0,0,209.25,135H324V411.75A20.17,20.17,0,0,1,303.75,432H20.25a19.53,19.53,0,0,1-14.34-5.91A19.53,19.53,0,0,1,0,411.75V20.25A19.53,19.53,0,0,1,5.91,5.91,19.53,19.53,0,0,1,20.25,0H189Zm135-11.81a19.53,19.53,0,0,0-5.91-14.34L235.41,5.91A19.53,19.53,0,0,0,221.06,0H216V108H324Z"/><path class="cls-2" d="M104.17,277H91.29v19.6H81.08v-63h23.09q21.44,0,21.44,21.16,0,10.86-5.38,16.56T104.17,277Zm-12.88-8.83h12.79q11,0,11-13.43,0-6.44-2.67-9.38t-8.37-2.94H91.29Z"/><path class="cls-2" d="M137.29,296.57v-63h17.85l19.14,54h1.38v-54h10.21v63H168.39l-19.6-54.1H147.5v54.1Z"/><path class="cls-2" d="M227.91,272.47v-9h17.94v32a80.49,80.49,0,0,1-10.07,1.38q-7.59.74-11,.74-14.35,0-19.78-7.91t-5.43-24.79q0-16.88,5.57-24.61t19.27-7.73a102.87,102.87,0,0,1,18.22,1.84l3.22.64-.37,8.1a154,154,0,0,0-20-1.47q-8.83,0-12.1,5T210.15,265q0,13.43,3.08,18.54t12.47,5.11a44.66,44.66,0,0,0,10-.83V272.47Z"/></g></g></svg>