<svg xmlns="http://www.w3.org/2000/svg" viewBox="0 0 421.01 474.91"><defs><style>.cls-1{fill:#fff;}.cls-2{fill:#167eb6;}</style></defs><title>Risorsa 1USER OTTANIO FILO BIANCO</title><g id="Livello_2" data-name="Livello 2"><g id="Livello_1-2" data-name="Livello 1"><g id="Livello_2-2" data-name="Livello 2"><g id="Livello_1-2-2" data-name="Livello 1-2"><g id="Livello_2-2-2" data-name="Livello 2-2"><g id="Livello_1-2-2-2" data-name="Livello 1-2-2"><path class="cls-1" d="M61.33,474.91a60.79,60.79,0,0,1-43.2-18.11A60.79,60.79,0,0,1,0,412.72V377.49a132.24,132.24,0,0,1,18.11-67.37A133.76,133.76,0,0,1,67.26,261a132.19,132.19,0,0,1,67.39-18.08H147.5l-2.1-1.19a126.66,126.66,0,0,1-47.18-47.17A128.7,128.7,0,0,1,81,129.4a128.69,128.69,0,0,1,17.2-65.13,126.65,126.65,0,0,1,47.23-47.21,132.59,132.59,0,0,1,130.09,0A126.71,126.71,0,0,1,322.8,64.26,128.7,128.7,0,0,1,340,129.4a128.7,128.7,0,0,1-17.2,65.14,126.65,126.65,0,0,1-47.17,47.17l-2.12,1.2h12.88A134.64,134.64,0,0,1,421,377.52v35.37a61.88,61.88,0,0,1-61.55,62H61.33ZM134,285.9a89.21,89.21,0,0,0-45.07,12.23l-.16.09a90.73,90.73,0,0,0-33.41,33.41l-.09.16A89.21,89.21,0,0,0,43,377.34v35.93a17.63,17.63,0,0,0,5.31,12.9l.42.42a17.63,17.63,0,0,0,12.59,5.31h298A18.83,18.83,0,0,0,378,413V377.34a89.2,89.2,0,0,0-12.23-45.54l-.09-.16a90.72,90.72,0,0,0-33.41-33.41l-.16-.09a89.17,89.17,0,0,0-45.55-12.24h-9.92a168.52,168.52,0,0,1-132.28,0H134ZM210.52,43a89,89,0,0,0-43.84,11.49,83.57,83.57,0,0,0-31.15,31.17l-.06.1A85.66,85.66,0,0,0,124,129.23v.35a85.66,85.66,0,0,0,11.47,43.5l.06.1a83.62,83.62,0,0,0,31.2,31.2l.1.06a85.86,85.86,0,0,0,43.49,11.46h.35a85.33,85.33,0,0,0,43.5-11.47l.1-.06a83.63,83.63,0,0,0,31.2-31.2l.06-.1A85.67,85.67,0,0,0,297,129.58v-.35a85.67,85.67,0,0,0-11.47-43.5l-.06-.1a83.62,83.62,0,0,0-31.2-31.2A88.81,88.81,0,0,0,210.52,43Z"/></g></g></g></g><g id="Livello_2-3" data-name="Livello 2"><g id="Livello_1-2-3" data-name="Livello 1-2"><g id="Livello_2-2-3" data-name="Livello 2-2"><g id="Livello_1-2-2-3" data-name="Livello 1-2-2"><path class="cls-2" d="M286.46,264.4A110.66,110.66,0,0,1,343,279.59a112.13,112.13,0,0,1,41.34,41.34,110.66,110.66,0,0,1,15.18,56.52v35.44a40.33,40.33,0,0,1-40.15,40.51H62a39.06,39.06,0,0,1-28.69-11.81,39.06,39.06,0,0,1-11.82-28.7V377.45a110.66,110.66,0,0,1,15.2-56.53A112.13,112.13,0,0,1,78,279.58a110.66,110.66,0,0,1,56.53-15.18h14.34a147.26,147.26,0,0,0,123.19,0Zm-76-27a107.09,107.09,0,0,1-54.42-14.34,105.07,105.07,0,0,1-39.23-39.23,107.09,107.09,0,0,1-14.35-54.43A107.09,107.09,0,0,1,116.86,75a105.07,105.07,0,0,1,39.23-39.23,110.41,110.41,0,0,1,108.84,0A105.07,105.07,0,0,1,304.16,75a107.09,107.09,0,0,1,14.35,54.43,107.09,107.09,0,0,1-14.34,54.42,105.07,105.07,0,0,1-39.23,39.23A107.09,107.09,0,0,1,210.51,237.4Z"/></g></g></g></g></g></g></svg>