<svg xmlns="http://www.w3.org/2000/svg" viewBox="0 0 324 432">
    <defs>
        <style>
            .cls-1 {
                fill: #d24728;
            }

            .cls-2 {
                fill: #fff;
            }

        </style>
    </defs>
    <title>Risorsa 1PPT</title>
    <g id="Livello_2" data-name="Livello 2">
        <g id="Livello_1-2" data-name="Livello 1">
            <path class="cls-1" d="M189,114.75A20.17,20.17,0,0,0,209.25,135H324V411.75A20.17,20.17,0,0,1,303.75,432H20.25a19.53,19.53,0,0,1-14.34-5.91A19.53,19.53,0,0,1,0,411.75V20.25A19.53,19.53,0,0,1,5.91,5.91,19.53,19.53,0,0,1,20.25,0H189Zm135-11.81a19.53,19.53,0,0,0-5.91-14.34L235.41,5.91A19.53,19.53,0,0,0,221.06,0H216V108H324Z" />
            <path class="cls-2" d="M112.54,277H99.66v19.6H89.45v-63h23.09q21.44,0,21.44,21.16,0,10.86-5.38,16.56T112.54,277Zm-12.88-8.83h12.79q11,0,11-13.43,0-6.44-2.67-9.38t-8.37-2.94H99.66Z" />
            <path class="cls-2" d="M168.75,277H155.87v19.6H145.66v-63h23.09q21.44,0,21.44,21.16,0,10.86-5.38,16.56T168.75,277Zm-12.88-8.83h12.79q11,0,11-13.43,0-6.44-2.67-9.38t-8.37-2.94H155.87Z" />
            <path class="cls-2" d="M195.8,242.66v-9.11h46v9.11H224v53.91h-10.3V242.66Z" />
        </g>
    </g>
</svg>
