<?xml version="1.0" encoding="UTF-8" standalone="no"?><!DOCTYPE svg PUBLIC "-//W3C//DTD SVG 1.1//EN" "http://www.w3.org/Graphics/SVG/1.1/DTD/svg11.dtd"><svg width="100%" height="100%" viewBox="0 0 378 378" version="1.1" xmlns="http://www.w3.org/2000/svg" xmlns:xlink="http://www.w3.org/1999/xlink" xml:space="preserve" xmlns:serif="http://www.serif.com/" style="fill-rule:evenodd;clip-rule:evenodd;stroke-linejoin:round;stroke-miterlimit:1.41421;"><path id="Livello_1-2" d="M337.5,0c10.779,-0.193 21.171,4.085 28.69,11.81c7.725,7.519 12.003,17.911 11.81,28.69l0,297c0,0.057 0,0.114 0,0.17c0,22.125 -18.205,40.33 -40.33,40.33c-0.056,0 -0.113,0 -0.17,0l-297,0c-10.779,0.193 -21.171,-4.085 -28.69,-11.81c-7.725,-7.519 -12.003,-17.911 -11.81,-28.69l0,-297c-0.193,-10.779 4.085,-21.171 11.81,-28.69c7.519,-7.725 17.911,-12.003 28.69,-11.81l297,0Zm-41.34,134.16c10.785,-7.978 20.19,-17.67 27.84,-28.69c-10.213,4.377 -21.016,7.221 -32.06,8.44c11.488,-6.91 20.161,-17.675 24.47,-30.37c-10.889,6.598 -22.888,11.159 -35.41,13.46c-10.667,-11.813 -23.887,-17.72 -39.66,-17.72c-10.967,-0.086 -21.706,3.15 -30.8,9.28c-9.19,6.079 -16.383,14.74 -20.67,24.89c-4.5,10.407 -5.343,21.797 -2.53,34.17c-22.39,-0.945 -44.293,-6.855 -64.12,-17.3c-19.412,-10.16 -36.628,-24.053 -50.66,-40.88c-5.002,8.266 -7.619,17.758 -7.56,27.42c-0.226,18.915 9.362,36.656 25.31,46.83c-8.911,-0.538 -17.576,-3.14 -25.31,-7.6l0,0.84c-0.195,12.951 4.304,25.544 12.66,35.44c8.146,9.949 19.468,16.804 32.06,19.41c-8.329,1.702 -16.886,1.986 -25.31,0.84c3.23,11.025 10.049,20.664 19.37,27.38c9.244,6.927 20.509,10.634 32.06,10.55c-20.247,15.753 -43.027,23.63 -68.34,23.63l-13.5,0c25.455,16.192 55.053,24.69 85.22,24.47c32.06,0 60.747,-8.157 86.06,-24.47c22.5,-14.627 40.22,-34.597 53.16,-59.91c11.813,-23.627 17.72,-48.097 17.72,-73.41l0,-6.7Z" style="fill:#1da2f1;fill-rule:nonzero;"/></svg>