<?xml version="1.0" encoding="UTF-8" standalone="no"?><!DOCTYPE svg PUBLIC "-//W3C//DTD SVG 1.1//EN" "http://www.w3.org/Graphics/SVG/1.1/DTD/svg11.dtd"><svg width="100%" height="100%" viewBox="0 0 86 86" version="1.1" xmlns="http://www.w3.org/2000/svg" xmlns:xlink="http://www.w3.org/1999/xlink" xml:space="preserve" xmlns:serif="http://www.serif.com/" style="fill-rule:evenodd;clip-rule:evenodd;stroke-linejoin:round;stroke-miterlimit:1.41421;"><path id="Livello_1-2" d="M42.7,0c-23.6,0 -42.7,19.1 -42.7,42.7c0,23.6 19.1,42.7 42.7,42.7c23.6,0 42.7,-19.1 42.7,-42.7c0.1,-23.6 -19.1,-42.7 -42.7,-42.7l0,0Zm9.7,26.7l-4.5,0c-1.7,0 -2.8,0.4 -3.5,1.1c-0.6,0.9 -0.8,1.9 -0.8,3l0,5.9l8,0l-1.1,8.5l-6.8,0l0,21.5l-8.8,0l0,-21.5l-7.2,0l0,-8.5l7.2,0l0,-6.7c0,-3.6 1,-6.3 3,-8.3c2.1,-2.1 5,-3.1 8,-3c2.2,0 4.4,0.1 6.6,0.4l-0.1,7.6Z" style="fill:#fff;fill-rule:nonzero;"/></svg>