<?xml version="1.0" encoding="UTF-8"?>
<svg width="244px" height="379px" viewBox="0 0 244 379" version="1.1" xmlns="http://www.w3.org/2000/svg" xmlns:xlink="http://www.w3.org/1999/xlink">
    <!-- Generator: Sketch 61.2 (89653) - https://sketch.com -->
    <title>Artboard</title>
    <desc>Created with Sketch.</desc>
    <g id="Artboard" stroke="none" stroke-width="1" fill="none" fill-rule="evenodd">
        <g id="Group-3">
            <g id="Group-2" transform="translate(0.000000, 272.483700)" fill="#1A1919">
                <path d="M62.583,54.4025 L62.583,52.3345 C59.08,52.3345 57.654,52.5005 55.278,52.5005 C52.748,52.5005 51.062,52.3345 47.973,52.3345 L31.535,92.2905 L14.929,52.3345 C11.83,52.3345 10.63,52.5005 7.458,52.5005 C4.275,52.5005 2.767,52.3345 -1.42108547e-14,52.3345 L-1.42108547e-14,54.4025 L3.338,54.4835 C6.258,54.5545 6.663,54.7225 6.663,56.5505 L6.663,105.4745 L9.205,105.4745 L9.205,58.9255 L27.401,102.6125 L29.776,102.6125 L47.973,58.9255 L47.973,97.3735 C47.973,104.3585 50.194,106.1985 55.04,106.1985 L55.908,106.1985 L55.908,56.5505 C55.908,54.5545 56.561,54.5545 59.246,54.4835 L62.583,54.4025 Z" id="Fill-1"></path>
                <path d="M80.8867,106.0919 L80.8867,70.0209 C80.8867,69.3789 80.7307,69.2239 79.9487,69.2239 C79.2227,69.2239 73.2727,69.6879 67.9637,69.6879 L67.9637,71.5999 L72.4887,71.6829 C73.4387,71.6829 73.6877,72.0729 73.6877,73.0259 L73.6877,98.4899 C73.6877,103.0159 75.3277,106.0919 79.5567,106.0919 L80.8867,106.0919 Z" id="Fill-3"></path>
                <path d="M195.7485,106.1632 L195.7485,78.8092 C195.7485,72.7872 190.9615,68.3342 183.9135,68.3342 C178.1415,68.3342 173.9245,71.3402 171.8685,76.1842 L171.8685,70.0922 C171.8685,69.4382 171.7035,69.2952 170.8945,69.2952 C170.1935,69.2952 164.2445,69.7602 158.9345,69.7602 L158.9345,71.6712 L163.4595,71.7532 C164.3975,71.7532 164.6355,72.1342 164.6355,73.0972 L164.6355,105.4502 L171.8685,105.4502 L171.8685,83.5602 C171.8685,77.3722 175.9905,71.5172 181.6915,71.5172 C185.7285,71.5172 188.5155,73.9752 188.5155,79.7592 L188.5155,98.5492 C188.5155,103.0762 190.1785,106.1632 194.3835,106.1632 L195.7485,106.1632 Z" id="Fill-5"></path>
                <path d="M105.5562,98.4904 L105.5562,52.7264 C105.5562,52.0844 105.4012,51.9434 104.6182,51.9434 C103.8932,51.9434 97.9432,52.4174 92.6342,52.4174 L92.6342,54.3054 L97.1592,54.3874 C98.1092,54.3874 98.3462,54.7944 98.3462,55.7434 L98.3462,106.0924 L99.6882,106.0924 C103.8932,106.0924 105.5562,103.0154 105.5562,98.4904" id="Fill-7"></path>
                <path d="M148.3149,106.0919 C148.3149,104.3589 147.8409,100.6289 147.8409,98.4899 L147.8409,77.5509 C147.8409,71.5999 142.2229,68.2619 135.2379,68.2619 C126.0339,68.2619 120.3199,73.4289 120.3199,75.7209 C120.3199,78.0139 121.6619,78.7379 123.4919,78.7379 C128.7169,78.7379 126.7459,70.3289 134.2759,70.3289 C138.3979,70.3289 140.7859,72.4659 140.7859,76.6009 L140.7859,83.2639 C140.7859,84.3569 140.7029,84.4389 139.5859,84.4389 L137.3889,84.5339 C126.1989,84.9269 117.6239,89.8569 117.6239,96.4959 C117.6239,103.0869 122.1609,106.3299 131.7469,106.3299 C136.7349,106.3299 140.0739,102.8369 140.8569,99.9039 C141.2589,104.6669 143.6349,106.0919 147.1389,106.0919 L148.3149,106.0919 Z M140.7859,93.1699 C140.7859,98.4059 137.5199,104.1929 132.5299,104.1929 C128.0169,104.1929 125.4749,102.0529 125.4749,96.4249 C125.4749,91.0319 129.7509,86.9099 137.8509,86.5059 L139.5859,86.4239 C140.7029,86.3399 140.7859,86.5059 140.7859,87.6229 L140.7859,93.1699 Z" id="Fill-9"></path>
                <path d="M243.5083,86.8273 C243.5083,76.9933 236.0623,68.2623 225.3363,68.2623 C214.9673,68.2623 207.1883,76.9933 207.1883,86.8273 C207.1883,97.9323 214.4683,106.3303 225.3363,106.3303 C236.2163,106.3303 243.5083,97.9323 243.5083,86.8273 M235.3373,86.8273 C235.3373,97.6933 233.6033,104.1923 225.3363,104.1923 C217.1763,104.1923 215.3603,97.6933 215.3603,86.8273 C215.3603,77.7873 216.9383,70.4133 225.3363,70.4133 C234.0773,70.4133 235.3373,77.7873 235.3373,86.8273" id="Fill-11"></path>
                <path d="M231.0493,36.383 L231.0493,11.724 C231.0493,11.416 230.9663,11.345 230.5863,11.345 C230.2783,11.345 227.5223,11.57 225.0633,11.57 L225.0633,12.461 L227.1663,12.485 C227.5943,12.485 227.7123,12.675 227.7123,13.113 L227.7123,21.844 C227.2253,20.563 225.6813,18.862 222.8893,18.862 C218.2343,18.862 214.7183,22.948 214.7183,27.474 C214.7183,32.628 217.5443,36.478 222.6393,36.478 C225.2783,36.478 227.0703,35.171 227.8783,32.82 C227.8783,35.016 228.6263,36.383 230.5863,36.383 L231.0493,36.383 Z M227.7363,27.474 C227.7363,32.082 226.2033,35.279 223.1153,35.279 C219.4913,35.279 218.4843,31.976 218.4843,27.474 C218.4843,23.319 219.3383,20.086 223.1153,20.086 C226.5613,20.086 227.7363,23.756 227.7363,27.474 L227.7363,27.474 Z" id="Fill-13"></path>
                <path d="M241.311,36.383 L241.311,19.683 C241.311,19.387 241.252,19.303 240.885,19.303 C240.552,19.303 237.807,19.54 235.337,19.54 L235.337,20.42 L237.415,20.442 C237.856,20.442 237.975,20.633 237.975,21.084 L237.975,32.856 C237.975,34.945 238.748,36.383 240.695,36.383 L241.311,36.383 Z" id="Fill-15"></path>
                <path d="M28.5532,31.881 L28.5532,29.303 C25.9762,32.76 21.7242,35.385 16.7102,35.385 C9.2762,35.385 6.7452,30.55 6.7452,18.043 C6.7452,7.436 9.2172,1.617 17.1032,1.617 C22.8992,1.617 26.7232,4.965 27.1512,10.014 L28.5532,10.014 C28.5532,8.898 28.4462,7.272 28.4462,6.034 C28.4462,4.633 28.5532,3.351 28.5532,2.057 C27.3062,2.057 22.6252,-5.68434189e-14 17.1032,-5.68434189e-14 C8.4202,-5.68434189e-14 0.7132,6.533 0.7132,18.043 C0.7132,30.978 7.6612,37.215 16.7102,37.215 C21.3912,37.215 25.7632,35.326 28.5532,31.881" id="Fill-17"></path>
                <path d="M59.3403,23.9699 C59.3403,17.2939 54.2803,11.3569 46.9983,11.3569 C39.9443,11.3569 34.6583,17.2939 34.6583,23.9699 C34.6583,31.5119 39.6223,37.2149 46.9983,37.2149 C54.3883,37.2149 59.3403,31.5119 59.3403,23.9699 M53.7933,23.9699 C53.7933,31.3469 52.6053,35.7639 46.9983,35.7639 C41.4403,35.7639 40.2173,31.3469 40.2173,23.9699 C40.2173,17.8299 41.2983,12.8279 46.9983,12.8279 C52.9263,12.8279 53.7933,17.8299 53.7933,23.9699" id="Fill-19"></path>
                <path d="M104.6773,37.0587 L104.6773,18.4697 C104.6773,14.3857 101.6483,11.3567 96.9923,11.3567 C93.1563,11.3567 90.2693,13.7437 89.0103,16.6887 C88.5823,14.8707 86.6003,11.3567 81.4213,11.3567 C77.8343,11.3567 74.9593,13.4117 73.5583,16.6887 L73.5583,12.5557 C73.5583,12.1277 73.4503,12.0217 72.9163,12.0217 C72.4173,12.0217 68.3913,12.3297 64.7813,12.3297 L64.7813,13.6247 L67.8573,13.6837 C68.4863,13.6837 68.6523,13.9457 68.6523,14.5997 L68.6523,36.5837 L73.5583,36.5837 L73.5583,21.7137 C73.5583,17.5077 76.5273,13.5177 79.9123,13.5177 C82.6203,13.5177 84.2243,15.1927 84.2243,19.1127 L84.2243,31.8807 C84.2243,34.9567 85.3643,37.0587 88.2143,37.0587 L89.1303,37.0587 L89.1303,21.7137 C89.1303,17.5687 92.0283,13.5177 95.4963,13.5177 C98.1803,13.5177 99.7943,15.1927 99.7943,19.1127 L99.7943,31.8807 C99.7943,34.9567 100.9243,37.0587 103.7743,37.0587 L104.6773,37.0587 Z" id="Fill-21"></path>
                <path d="M136.5337,37.0587 L136.5337,12.3297 L131.6277,12.3297 L131.6277,26.8797 C131.6277,31.0837 128.9307,35.0637 125.1067,35.0637 C122.4227,35.0637 120.6287,33.4017 120.6287,29.4707 L120.6287,12.5557 C120.6287,12.1277 120.5207,12.0217 119.9757,12.0217 C119.5127,12.0217 115.4617,12.3297 111.8637,12.3297 L111.8637,13.6247 L114.9277,13.6837 C115.5807,13.6837 115.7357,13.9457 115.7357,14.5997 L115.7357,30.1217 C115.7357,34.1967 118.8597,37.2147 123.5977,37.2147 C127.4817,37.2147 130.2377,35.1837 131.6277,31.8807 C131.6277,34.9567 132.7567,37.0587 135.6057,37.0587 L136.5337,37.0587 Z" id="Fill-23"></path>
                <path d="M168.6743,37.0587 L168.6743,18.4697 C168.6743,14.3857 165.4553,11.3567 160.6693,11.3567 C156.7133,11.3567 153.8733,13.4117 152.4733,16.6887 L152.4733,12.5557 C152.4733,12.1277 152.3543,12.0217 151.8313,12.0217 C151.3443,12.0217 147.2933,12.3297 143.7063,12.3297 L143.7063,13.6247 L146.7723,13.6837 C147.4133,13.6837 147.5673,13.9457 147.5673,14.5997 L147.5673,36.5837 L152.4733,36.5837 L152.4733,21.7137 C152.4733,17.5077 155.2643,13.5177 159.1473,13.5177 C161.9033,13.5177 163.7913,15.1927 163.7913,19.1127 L163.7913,31.8807 C163.7913,34.9567 164.9083,37.0587 167.7583,37.0587 L168.6743,37.0587 Z" id="Fill-25"></path>
                <path d="M199.6812,23.1632 C199.6812,17.3542 195.2392,11.3562 188.8492,11.3562 C182.6432,11.3562 177.4752,17.1772 177.4752,23.9702 C177.4752,31.6192 181.5142,37.2152 189.2172,37.2152 C194.2162,37.2152 197.3052,35.0632 198.8012,33.2482 L198.8012,30.9312 C196.4262,34.1012 193.2432,35.6702 189.5612,35.6702 C184.4122,35.6702 182.9162,31.4652 182.9162,25.3602 C182.9162,24.5512 183.0232,24.4572 183.8292,24.4572 L198.9092,24.4572 C199.3952,24.4572 199.6812,24.1842 199.6812,23.1632 M194.2162,22.0942 C194.2162,22.8912 194.2162,22.9972 193.4212,22.9972 L183.8292,22.9972 C183.0232,22.9972 183.0232,22.9972 183.0232,22.2002 C183.0232,16.9142 184.7922,12.8282 188.8492,12.8282 C192.7322,12.8282 194.2162,16.9632 194.2162,22.0942" id="Fill-27"></path>
            </g>
            <g id="Group" transform="translate(1.649600, 0.000000)">
                <path d="M120.928,185.6586 C128.766,180.8246 138.518,180.2186 147.723,178.8416 C159.993,176.9896 169.234,168.6376 169.234,155.7856 L169.234,154.9556 L169.234,56.7036 L72.62,56.7036 L72.62,154.9556 L72.62,155.7856 C72.62,168.6376 81.874,176.9896 94.143,178.8416 C103.349,180.2186 113.101,180.8246 120.928,185.6586" id="Fill-29" fill="#FFFFFE"></path>
                <polygon id="Fill-31" fill="#D8232A" points="169.8275 103.3706 134.7175 103.3706 134.7175 55.5046 107.1605 55.5046 107.1605 103.3706 71.4445 103.3706 71.4445 130.9386 107.1605 130.9386 107.1605 182.1896 120.9285 187.0726 134.7175 182.1896 134.7175 130.9386 169.8275 130.9386"></polygon>
                <path d="M50.4329,42.4858 C54.2709,48.3648 52.8449,57.3578 49.1019,62.8558 C47.4749,65.1248 45.7659,67.4878 43.5079,69.1518 C39.7189,72.8698 35.3959,76.5868 33.3999,81.5518 C33.3529,81.5988 33.1989,81.6828 33.1269,81.5988 L33.0209,81.4448 C34.1379,76.9078 35.4799,72.4528 37.4149,68.2248 C39.2679,63.0818 43.0449,59.2328 45.5389,54.5888 C45.9089,53.6148 46.4659,52.5928 46.1329,51.4768 C46.0149,51.2988 45.7659,51.2988 45.5389,51.2988 C43.6279,52.5348 42.3439,54.7798 40.9179,56.4418 C38.7099,59.6958 36.3579,62.9858 34.6359,66.5608 L34.6959,66.7398 L34.5039,66.7988 C32.6049,70.7308 30.9999,74.8768 29.8499,79.1388 C29.7069,79.3168 29.9319,79.7808 29.6119,79.7808 C29.2189,76.2178 27.5329,73.2018 27.0699,69.6738 C28.7809,61.7738 32.6529,54.1258 39.4469,49.5288 C42.5349,47.2018 45.6829,44.0898 47.2609,40.6698 C47.5239,40.2878 48.0809,40.2878 48.5439,40.3488 C49.4479,40.8108 49.8869,41.6778 50.4329,42.4858" id="Fill-33" fill="#007456"></path>
                <path d="M24.9554,56.811 C25.3594,57.451 24.8014,58.153 24.8494,58.853 C22.4974,65.351 23.6604,73.249 25.8214,79.46 C27.0224,84.093 27.2474,89.617 26.1904,94.415 C26.0604,94.533 25.8214,94.344 25.7864,94.166 C25.3594,93.381 24.8014,92.693 24.4794,91.803 C21.4764,86.98 19.2654,81.777 18.5784,75.969 C18.2444,73.462 19.0064,71.016 18.5294,68.604 C18.4834,68.378 18.3054,68.129 18.1134,67.999 C17.2944,67.856 17.1764,68.831 16.7714,69.305 C13.7784,78.023 17.7454,86.564 21.8554,93.62 C22.8164,95.424 23.9224,97.135 24.5874,99.142 C26.9394,104.523 28.5784,110.556 27.8534,116.959 C27.8534,118.158 27.3914,119.239 27.1174,120.344 L27.0224,120.344 C25.9544,118.016 24.5874,115.57 22.3664,114.167 L21.3454,113.751 C21.1674,110.687 20.4064,107.895 19.5864,105.116 C18.0184,98.988 14.1834,94.166 12.1634,88.226 C11.9734,88.132 11.9734,87.953 11.9734,87.715 C10.2644,83.213 9.4194,77.977 10.4064,72.87 C11.7004,66.336 15.4764,60.576 21.3454,57.094 C22.3664,56.763 24.0294,55.468 24.9554,56.811" id="Fill-35" fill="#007456"></path>
                <path d="M53.7464,69.6743 C56.3604,77.3703 54.0804,85.8153 49.8404,91.9453 C46.6554,97.1003 41.0514,100.1153 37.0004,104.5813 C34.9224,106.6953 32.8904,108.7983 31.5004,111.3053 C31.2154,111.0553 31.4654,110.4143 31.3214,109.9503 C31.2754,107.8953 30.6694,106.1033 30.2524,104.1893 C30.8584,103.6333 31.1324,102.9433 31.5964,102.3493 C35.7054,96.8253 42.0354,93.4643 45.5884,87.6323 C47.2614,85.0673 48.7704,82.5253 49.2344,79.4603 C49.1014,78.9963 49.3154,78.3803 48.7704,78.1653 C47.7954,78.2143 47.3454,79.2353 46.7984,79.8763 C44.1974,85.1633 39.9584,89.5323 35.5624,93.2393 C33.1624,95.5563 30.7164,97.6573 29.0534,100.5203 L28.9234,100.5203 C28.7804,99.6533 29.0534,98.7133 29.0064,97.8353 C30.4074,87.7753 37.4994,79.5563 45.1714,73.9033 C47.3924,71.9063 49.3154,69.6743 50.2424,66.8823 C50.4924,66.6093 50.6704,66.2753 51.0984,66.3363 C52.7014,66.5033 53.1534,68.3783 53.7464,69.6743" id="Fill-37" fill="#007456"></path>
                <path d="M9.765,91.1972 C10.074,91.6592 10.264,92.3132 10.264,92.8582 C10.631,97.8832 12.163,102.4202 13.956,106.7902 C14.16,107.0762 14.266,107.3502 14.373,107.6822 C16.641,112.2322 19.683,116.2582 21.31,121.0802 C21.795,122.2562 22.081,123.4552 22.497,124.6092 C23.092,126.9722 23.922,129.3122 23.922,131.8532 L23.792,131.8532 C20.325,127.7662 15.56,124.7862 13.03,120.2012 C10.774,116.6742 9.242,112.6362 8.541,108.3692 C8.232,107.0762 8.279,105.6862 7.804,104.4882 C7.626,104.1072 7.4,103.7752 7.021,103.5492 C6.142,103.7272 6.19,104.8312 5.963,105.5322 C5.465,109.2962 6.378,112.9682 7.305,116.4002 C7.721,117.0892 7.804,117.9322 8.232,118.6692 C10.216,123.7882 14.183,127.8632 18.209,131.5682 C20.882,134.0862 23.328,136.9472 25.407,140.1202 C24.124,142.5792 23.138,145.1682 22.308,147.8162 L22.224,147.9232 C21.249,146.2362 20.192,144.5742 19.077,142.9932 C15.751,137.9352 11.509,134.5852 7.484,130.0372 C2.781,124.5252 0.06,117.3732 1.42108547e-14,109.4992 C0.143,102.6582 2.685,96.5292 7.175,91.9092 C7.78,91.1492 8.92,90.4592 9.765,91.1972" id="Fill-39" fill="#007456"></path>
                <path d="M51.3597,100.4355 C52.1437,101.4105 51.3127,102.6095 51.0977,103.6335 C49.1017,108.7405 50.2427,115.0585 48.2597,120.1655 C46.0507,127.6245 40.8727,133.0525 36.5357,139.3725 C36.2047,140.2025 35.4797,140.9395 35.0637,141.8665 C32.9847,145.9645 31.2757,150.2755 31.1317,155.2525 L31.0367,155.2865 C29.6117,153.4355 27.8057,151.2625 25.2757,150.7865 C25.0867,150.5135 25.3237,150.2285 25.3597,149.9195 C27.2007,143.7305 30.1587,138.1725 34.0767,133.1595 C38.8527,127.1735 43.7347,120.7715 44.7557,112.7285 C44.8137,111.8975 44.9457,110.8765 44.1977,110.4145 C43.1407,110.6515 42.7717,111.8975 42.4037,112.7785 C41.5597,115.4735 40.3257,117.9325 39.0667,120.4385 C37.7837,122.3385 36.7137,124.3945 35.2887,126.2335 C32.9847,129.6195 29.9317,132.6855 27.7117,136.1645 C27.6657,136.2245 27.4737,136.3545 27.4737,136.1645 C26.7017,123.4555 33.1987,112.6825 42.0357,104.9875 C44.1027,103.2285 46.3237,101.7435 48.7707,100.4725 C49.5657,100.2465 50.5637,99.8905 51.3597,100.4355" id="Fill-41" fill="#007456"></path>
                <path d="M7.5433,135.06 C10.4063,141.605 15.4773,147.022 21.1063,151.059 C26.0963,155.429 30.7163,160.479 32.9843,166.714 C32.7963,166.892 32.4753,166.62 32.2353,166.572 C23.6953,162.628 14.9783,157.699 10.4063,149.063 C9.8013,148.233 9.4803,147.259 8.3623,147.068 C7.7793,147.449 7.9583,148.328 8.0423,148.933 C9.3373,154.362 13.2073,158.173 17.4603,161.595 C23.2343,166.464 30.8123,168.235 36.8213,172.88 C40.5623,175.623 44.0563,179.007 46.2883,183.129 C46.2883,183.331 46.0153,183.331 45.9083,183.271 C44.9453,182.714 43.7823,182.393 42.7253,182.119 C41.1573,181.833 39.4943,181.741 38.0563,182.333 L37.8303,182.287 C35.3373,179.506 31.9763,177.154 28.6383,175.289 C27.0223,174.316 25.3233,173.436 23.5653,172.748 C20.1453,171.027 16.5463,169.351 13.6353,166.832 C5.6913,160.479 0.9393,150.335 3.3393,139.668 C3.6593,137.709 4.1463,135.691 5.4173,134.265 C5.7263,133.944 6.1053,133.897 6.5573,133.99 C7.0213,134.218 7.2703,134.681 7.5433,135.06" id="Fill-43" fill="#007456"></path>
                <path d="M50.5277,135.06 C53.5817,143.089 51.7277,152.972 48.1297,160.159 C46.1917,164.803 44.1497,169.624 44.8397,175.1 C44.1977,174.78 43.7827,174.138 43.1757,173.626 C41.8447,172.545 40.4677,171.299 38.9827,170.278 C39.2677,169.779 39.1617,169.066 39.3527,168.506 C39.7677,166.832 40.1477,165.123 40.8727,163.591 C40.9797,162.759 41.4647,162.153 41.7037,161.381 C42.8207,158.685 44.3047,156.121 45.3017,153.399 C46.5127,150.05 47.9387,146.379 47.0597,142.616 C46.9647,142.437 46.8347,142.295 46.6557,142.199 C45.9557,142.069 45.7657,142.901 45.4567,143.315 C44.5417,146.619 43.5077,149.825 42.0357,152.888 C39.9097,157.247 37.3327,161.417 36.5357,166.382 C36.3457,166.382 36.3457,166.097 36.2637,165.955 C35.3737,163.317 34.9227,160.538 34.8387,157.603 C34.6957,151.298 37.4627,146.095 40.9187,141.509 C43.0457,138.456 45.2177,135.013 45.9087,131.105 C46.0877,130.736 46.4187,130.465 46.8347,130.322 C48.9617,130.784 49.7927,133.243 50.5277,135.06" id="Fill-45" fill="#007456"></path>
                <path d="M19.8714,174.9096 C23.9224,179.2336 29.7074,181.6906 35.0164,184.0556 C36.9514,184.7566 38.7574,185.7436 40.5614,186.6686 C41.1214,186.8116 41.5244,187.1676 41.9874,187.4046 C44.5664,188.9376 47.0124,190.7426 49.4124,192.8806 C49.8404,193.4506 50.5274,193.9486 50.8484,194.5916 C49.1014,194.4006 47.2974,194.0916 45.4914,194.0456 C45.0894,193.9486 44.6254,194.0456 44.2574,193.8546 C37.4994,192.9756 31.4044,190.0896 26.5704,185.6466 C25.8704,185.2196 25.2164,184.5676 24.3504,184.7566 C23.7924,185.5996 24.6224,186.3836 24.8944,187.1326 C29.4574,193.1066 36.7144,196.0406 44.1024,197.1916 C48.2604,197.6556 52.2864,198.3916 56.1224,199.6026 C56.4324,199.7946 56.3004,200.1606 56.4324,200.4466 C57.0844,202.7636 58.1424,204.9836 59.2104,207.1336 C58.8904,207.2646 58.5694,207.0866 58.2734,206.8476 C53.1054,204.9476 47.5704,203.8196 41.9294,202.9406 C39.6374,202.4876 37.4154,201.8846 35.2534,201.0876 C28.7324,198.5106 23.4234,193.9986 19.8714,187.9166 C18.1624,184.8406 17.1394,181.3706 16.7364,177.7026 C16.6414,176.3116 16.4984,174.5416 17.6864,173.7926 C18.6964,173.3886 19.3134,174.4236 19.8714,174.9096" id="Fill-47" fill="#007456"></path>
                <path d="M56.3607,159.4692 C56.9547,160.8122 56.8117,162.4742 57.1687,163.9232 C58.2487,168.5062 61.2907,172.3202 62.1217,176.9992 C63.6887,183.9612 63.9747,191.3352 65.8627,198.1082 C66.9207,201.8492 68.6897,205.4112 70.8037,208.4762 C69.1997,208.0852 67.5247,207.4542 65.7087,207.6322 C65.0437,207.6932 64.3777,207.8702 63.7717,208.0602 C58.7957,201.0062 58.0587,191.8592 57.4187,182.8562 C56.9767,179.1382 56.2997,175.5152 55.4227,171.9992 C55.2087,171.3822 54.9587,170.6462 54.4127,170.2782 C53.5817,170.1712 53.6657,171.0622 53.3557,171.5352 C52.8447,176.0272 54.3777,180.1122 54.4597,184.5682 C54.8157,187.8792 54.6377,191.2532 55.1487,194.4962 C54.9587,194.4012 54.8157,194.2232 54.7207,194.0332 C54.0447,193.3572 53.5327,192.6542 53.0817,191.9532 C49.4477,186.5622 47.4287,180.1122 48.2597,173.0582 C48.6287,170.3722 49.3157,167.8662 50.1967,165.4432 C50.4327,165.2652 50.4327,164.9922 50.5277,164.7062 C51.6447,162.7592 52.6077,160.8122 54.4127,159.3742 C54.9227,158.9932 56.0277,158.7692 56.3607,159.4692" id="Fill-49" fill="#007456"></path>
                <path d="M49.2347,208.4155 C53.6287,210.0555 58.4747,210.7935 63.4147,210.9355 C68.6297,211.6845 73.8437,213.0015 77.9177,216.0655 L77.7647,216.2315 C70.0797,215.6155 61.7997,217.6575 54.8157,214.7355 C54.1737,214.5465 53.3897,214.1285 52.7507,214.5465 C52.6547,214.6885 52.5237,214.8195 52.5597,215.0205 C53.3557,216.2695 54.6857,216.7305 55.8727,217.4195 C60.5887,219.3795 66.1947,219.4265 71.4927,219.1305 C79.5347,218.9165 87.1477,220.3425 93.9407,223.6445 L93.9407,223.7495 C90.5677,224.4405 87.3747,225.4015 84.3217,226.7435 C80.2577,225.7345 75.7807,225.3655 71.3967,225.4605 C70.6727,225.4015 69.8777,225.5915 69.0917,225.4605 C67.2997,225.5085 65.5787,225.1295 63.8187,225.0455 C62.0727,224.7265 60.2677,224.2985 58.6177,223.6785 C51.8697,221.4105 45.9667,216.3145 43.1407,209.6755 C42.8207,208.7965 42.5347,207.7275 42.8667,206.7555 C43.0087,206.4355 43.3187,206.2915 43.6047,206.1475 C45.6827,206.4805 47.2967,207.6925 49.2347,208.4155" id="Fill-51" fill="#007456"></path>
                <path d="M71.1717,186.6684 C77.9657,188.1524 83.0377,193.8064 85.8517,199.7944 C89.9147,207.6324 94.8197,216.0284 102.4217,220.7694 C102.9447,220.9484 103.2067,221.1854 103.6337,221.4574 C103.4917,221.7424 102.9927,221.8384 102.5887,221.8384 C94.9037,222.8244 89.1667,217.0524 85.9947,211.2924 C84.0107,207.6324 82.4447,203.7354 80.2577,200.2224 C78.9277,198.3564 77.6327,195.9334 75.4707,194.7924 C75.1507,194.7924 75.0077,194.9584 74.8647,195.2084 C74.7707,196.3254 75.5067,197.1914 75.8877,198.1074 C79.6167,203.4154 80.8757,210.1404 84.9847,215.1984 C84.9847,215.2954 84.9847,215.4014 84.8897,215.4234 C79.1527,213.5714 74.6407,209.3084 72.5137,203.5584 C70.4827,198.5354 70.1977,192.7854 67.3477,188.1894 C67.2527,187.7254 67.0627,187.1324 67.5247,186.7514 C68.4997,186.0154 69.8777,186.3834 71.0407,186.5624 L71.1717,186.6684 Z" id="Fill-53" fill="#007456"></path>
                <path d="M193.0189,186.5483 C193.0659,185.6113 193.0659,184.5543 193.0189,183.6153 C193.4829,183.6523 194.0049,183.5323 194.3009,183.1063 C196.7019,180.0173 195.0969,175.3253 197.0439,172.0603 C197.4149,171.1333 198.3289,170.4313 199.3859,170.4203 C200.8219,170.8003 201.8449,172.2843 202.4849,173.5323 C202.7109,174.1963 203.0909,174.9923 203.7799,175.1233 C203.8739,175.0293 204.0659,175.0293 204.1719,175.1233 C206.4179,173.9003 206.8209,171.2513 207.6169,169.0663 C208.0799,167.2963 208.6379,165.5623 209.5039,163.9473 C210.1459,162.9133 210.8949,162.0233 212.0479,161.6903 C212.2259,161.4643 212.5699,161.7383 212.7349,161.6533 C213.9349,162.0693 214.3989,163.3773 214.4459,164.5403 C214.5309,164.9083 214.8609,165.2773 215.1949,165.4663 C216.5839,165.6933 217.3079,164.3973 218.1279,163.5913 C219.8499,160.5623 222.1079,157.4493 225.7179,156.6413 C226.7749,156.6063 227.9389,156.8793 228.4019,157.8063 C229.9219,160.6443 228.1749,163.6733 227.3329,166.3343 C227.1909,166.9763 227.0599,167.9613 227.5589,168.5063 C228.4019,168.7923 229.3649,168.5673 230.2439,168.8523 C230.8359,169.0663 231.3959,169.7193 231.3959,170.4203 C231.0629,173.4963 228.1749,175.3603 225.9449,176.8463 C224.1859,178.0213 222.1079,178.7693 220.9179,180.7173 C220.8729,181.0133 220.9179,181.2883 220.9179,181.5633 C221.2399,182.0363 221.7869,181.9413 222.2029,182.1183 C223.1769,182.2143 224.0909,182.7603 224.3749,183.6983 C224.6139,185.5663 222.7479,186.4543 221.7029,187.3813 C219.1979,188.7363 216.3939,189.4483 213.6619,190.2923 C212.3789,190.8853 211.0379,191.3973 210.1109,192.6083 C210.0289,192.8933 209.8259,193.3213 210.1109,193.5933 C210.8949,194.4613 212.3789,193.9273 213.3309,194.4613 C214.3039,194.7103 215.4669,195.3513 215.5619,196.5273 C215.3259,198.6533 213.0689,199.5803 211.3229,200.2923 C211.0379,200.3873 210.7509,200.4353 210.4789,200.5783 C209.7789,200.8153 209.0419,200.9443 208.3039,201.0403 C206.9619,201.3373 205.4429,201.3723 204.0659,201.2303 C205.0269,198.6283 204.8979,195.0423 202.9129,193.0813 L201.6539,192.1203 C204.5999,189.6033 207.3779,186.8823 210.1109,184.2453 C210.1109,184.0083 210.4789,183.8643 210.6229,183.6873 C212.1419,181.9543 213.7099,180.2183 215.1949,178.5443 C215.8819,177.8433 216.3589,177.0613 216.9059,176.4063 C217.8679,175.2313 218.6509,173.9253 219.5779,172.6303 C219.5779,172.4383 219.7789,172.2493 219.8499,172.1543 C220.8119,170.7163 221.7029,169.1733 222.0719,167.4623 C222.0129,167.2733 222.1079,166.9873 221.9289,166.7973 C221.7869,166.6193 221.5609,166.5253 221.3359,166.6193 C220.2669,167.0813 219.4829,168.1643 218.7829,169.0423 C212.3789,177.3823 204.5169,184.2923 196.6649,191.0993 C196.2139,191.1943 195.7159,191.3003 195.2279,191.4313 C194.2789,191.4313 193.5779,191.9893 192.6989,192.1453 C192.1049,190.6833 192.4719,188.8293 192.8759,187.3943 L193.0189,186.5483 Z" id="Fill-55" fill="#007456"></path>
                <path d="M206.6429,102.8364 C208.2579,102.2184 211.2149,104.7734 211.4059,101.6954 C210.8589,97.9784 207.6639,95.5304 206.5479,92.1584 C205.9539,90.9584 205.5849,89.4154 205.9059,88.0714 C205.9899,87.6084 206.3699,87.2404 206.7369,86.9804 C207.3199,86.5274 208.9349,86.8734 209.2679,87.0264 C210.0639,87.3944 210.7999,87.4534 211.0839,87.2664 C211.4419,87.0264 211.5829,86.6234 211.5479,86.1604 C211.0839,84.2464 209.6959,82.9884 208.8159,81.2774 C207.9839,79.3664 206.6899,77.0864 207.8309,74.9364 C208.0319,74.6154 208.2469,74.4594 208.6249,74.3654 C209.3629,74.1744 209.9679,74.2234 210.6219,74.4834 C211.4059,74.8404 212.4979,75.4824 213.4369,73.9614 C214.9679,71.4674 213.3059,68.1284 213.8049,65.1954 C214.0779,63.5684 214.7189,61.6204 216.3939,61.0034 C217.0359,60.7654 217.7719,61.0494 218.2839,61.3244 C221.2759,63.1414 221.6089,66.9054 223.8169,69.4124 C224.1379,69.7934 224.6619,70.1134 225.1599,70.1604 C226.2289,69.6034 226.8339,68.2834 228.1749,68.2004 C228.9009,68.1054 229.6009,68.7114 229.9579,69.3534 C231.9059,73.9744 229.1269,78.5334 229.4579,83.2844 C229.6009,83.8904 229.7329,84.5324 230.3389,84.8654 C230.9919,85.1494 231.4429,84.6744 231.9059,84.3434 C232.5469,83.4624 233.5689,82.7644 234.8159,82.7994 C235.4699,82.9884 235.7789,83.4514 236.0049,84.0684 C236.6569,88.3804 233.6169,91.5534 232.1919,95.2234 C232.0379,95.9834 231.7159,96.9564 232.2389,97.6084 C232.5959,97.9894 233.2019,98.0734 233.7109,97.8474 C234.5909,97.4204 235.7429,96.9084 236.7059,97.6084 C237.8219,98.6324 237.2619,100.4724 236.7999,101.6954 C236.3839,102.6694 235.8849,103.6074 235.2679,104.4384 C233.3909,103.2994 230.4209,103.4774 228.7109,104.8314 C225.5399,107.2184 224.1379,110.8414 223.8169,114.6294 C222.9869,114.1544 222.0719,113.8224 221.1579,113.6454 C221.6569,110.6154 221.9289,107.4094 222.4389,104.2854 C222.3569,104.1534 222.3569,104.0104 222.4389,103.8694 C222.6289,101.1734 222.8559,98.1334 222.9029,95.3654 C222.9029,89.4254 222.5359,83.2134 221.3709,77.4654 C220.7299,75.9814 220.7299,74.0334 219.1619,73.1544 C218.5909,73.2494 218.5559,73.8074 218.4139,74.2234 C218.2839,76.0874 218.9839,80.1854 218.9839,80.1854 C219.7789,87.3944 219.4349,95.1634 218.5909,102.2424 C218.2839,103.9174 218.1759,105.7824 217.8199,107.5034 C216.8449,113.9764 215.5619,120.2594 214.2199,126.6034 C214.1729,126.6514 214.0779,126.6984 213.9959,126.6984 C213.2099,126.1874 212.1419,126.0454 211.1669,125.9134 C211.0839,125.3574 211.1219,124.6904 211.0379,124.0844 C210.5269,119.4884 209.5039,115.0704 207.1649,111.3054 C206.1319,109.2964 205.2049,107.1944 205.3479,104.7374 C205.4919,103.9894 205.8589,103.0504 206.6429,102.8364" id="Fill-57" fill="#007456"></path>
                <path d="M217.2728,134.6567 C217.0838,134.5027 217.3568,134.3707 217.3078,134.1817 C217.4518,132.7927 217.1298,131.5677 216.9058,130.3077 C217.4998,130.5577 218.2348,131.1527 218.9838,130.7357 C219.2918,130.5107 219.4348,130.1187 219.4828,129.7517 C219.8498,128.8247 219.4828,127.7567 219.3508,126.8167 C218.6988,124.6437 217.9038,122.4337 218.0088,120.0717 C218.0568,118.9057 218.4848,117.5157 219.7078,117.1367 C221.5608,116.8527 222.3808,118.3357 223.6378,119.3697 C224.0548,119.4657 224.5058,119.6437 224.9348,119.3237 C226.5128,118.0037 226.7748,116.0557 227.1908,114.1547 C227.8438,111.5777 228.8528,108.8217 231.2178,107.3387 C232.0968,107.0527 233.1048,106.8747 233.8888,107.5157 C235.9688,109.0967 236.1108,111.9337 236.2418,114.5007 C236.1578,114.8317 236.1578,115.3437 236.1578,115.7127 C236.1108,116.4967 236.2898,117.3387 236.9288,117.8507 C237.9048,118.1817 238.3198,117.1017 239.1158,117.1017 C239.4718,116.7807 240.0428,116.8637 240.5418,116.8637 C241.5988,117.0527 241.8838,118.1707 242.0728,119.1087 C242.0728,123.6217 239.0808,126.9237 236.8948,130.4757 C236.6568,131.0687 236.2898,131.9607 236.7408,132.5527 C237.5838,133.2557 238.6538,132.5527 239.4718,132.6487 C239.8648,132.6017 240.2318,132.7927 240.5418,132.9347 C241.2418,133.3857 241.3598,134.2287 241.2788,135.0717 C241.0038,136.4137 240.2318,137.6377 239.2938,138.6127 C238.7828,139.4547 237.9638,140.0017 237.4058,140.7017 C237.1208,140.8917 236.8948,141.1777 236.6088,141.3197 C235.2308,142.9937 232.9748,143.9687 232.5468,146.2497 C232.5468,146.5827 232.7848,146.9037 233.0458,146.9967 C234.2108,147.1877 235.3278,146.6287 236.6088,146.8067 C237.3568,146.9847 238.0948,147.1877 238.5698,147.8647 C239.3408,149.9667 237.3568,151.6047 235.9688,152.8157 C234.4958,153.9337 232.8328,154.6827 231.2178,155.4287 C231.0628,155.4647 230.9318,155.3367 230.9318,155.2397 C229.6008,153.5297 227.5108,152.8877 225.3388,153.0657 C223.7698,153.3987 222.2028,153.9107 221.0018,154.9797 C220.6938,153.9107 219.9448,152.8877 218.9838,152.2827 C220.7298,149.8247 222.5708,147.1637 224.0908,144.6927 C224.9818,143.5277 225.6348,142.0807 226.4668,140.9157 C227.4288,138.6697 228.7108,136.6757 229.5438,134.3367 C229.9218,133.1477 230.5178,131.9117 230.8358,130.6177 C231.6328,127.4107 232.5468,123.9067 231.9538,120.3797 C231.8588,120.0007 231.7628,119.5357 231.3358,119.2987 C230.6118,119.3457 230.4208,120.2247 230.1488,120.7487 C229.6008,122.6587 229.3168,124.6557 228.6278,126.5187 C226.8348,132.0667 224.3758,137.3297 221.2758,142.2697 C220.8118,140.7367 219.4828,139.5147 217.9038,139.2527 C217.3568,139.1577 216.7028,139.1577 216.1678,139.2527 C215.9658,138.7417 216.4778,138.3737 216.5248,137.8507 C216.9058,136.8297 217.1788,135.7617 217.2728,134.6567" id="Fill-59" fill="#007456"></path>
                <path d="M187.9593,52.7133 C188.6953,52.2503 189.8823,52.4283 190.6673,52.5233 C190.9153,52.5583 191.3213,52.5583 191.5813,52.4283 C193.0903,52.0243 193.3053,50.0763 192.9233,49.0783 C192.1053,46.9753 189.1593,44.7433 189.5623,42.0943 C189.8003,41.2503 190.3583,40.5483 191.1883,40.2173 C194.5393,38.8983 198.3153,43.4253 200.9523,45.1353 C202.0583,45.7873 203.0793,46.7603 204.5053,46.4763 C205.4913,45.7753 205.5263,44.3373 206.7263,43.9593 C207.9253,43.8753 208.9353,44.5513 209.4933,45.5493 C211.2513,48.6603 211.6663,52.2853 212.0343,55.9673 C212.1773,57.3573 212.2123,58.7693 212.2613,60.1593 C211.5833,61.3593 210.9783,62.7723 210.7513,64.2573 C210.3843,66.4063 210.7513,68.5933 210.9783,70.5883 C210.3843,70.5423 209.7303,70.3143 208.9353,70.4003 C207.5213,63.6983 204.8973,57.2263 201.0703,51.6553 C200.2753,50.7163 199.3973,49.3743 198.1143,49.2673 C197.7933,49.4593 197.7933,49.8363 197.8293,50.1113 C197.9243,50.5853 197.9723,51.0493 198.2573,51.3823 C198.2923,51.7973 198.5773,52.0703 198.6603,52.4993 C201.9023,58.3543 204.2303,65.0523 205.6553,71.7643 C205.7163,72.4173 205.0263,72.6913 204.8373,73.2963 C204.5513,74.1883 204.4573,75.1143 204.3263,75.9813 L204.1953,76.0883 C202.0223,72.8803 196.2973,72.3463 194.1353,69.0803 C193.5893,68.4753 193.3053,67.4043 193.6363,66.5253 C194.2903,65.3503 195.7983,65.8133 196.9153,65.5053 C197.2353,65.2913 197.4603,64.9823 197.4603,64.6023 C196.9153,62.8433 195.1093,61.7633 193.6363,60.8483 C191.0463,59.4453 188.1843,57.5463 187.3063,54.5653 C187.1153,53.8643 187.3063,53.0803 187.9593,52.7133" id="Fill-61" fill="#007456"></path>
                <path d="M188.7425,72.06 C189.4425,71.598 190.2625,71.824 191.1065,71.872 C191.4155,71.978 191.7355,72.097 192.0205,72.192 C194.8355,73.486 200.0265,78.013 203.1745,78.605 C203.7315,78.747 204.1955,78.405 204.5515,78.131 C204.9215,79.674 205.4915,81.064 206.3565,82.372 C206.5355,82.515 206.6305,82.739 206.7255,82.929 C205.3355,83.249 203.9935,84.294 203.3995,85.625 L203.1255,86.148 C201.7375,84.058 199.1595,81.932 197.5795,81.242 C197.3435,81.135 196.8665,81.492 196.8665,81.73 C196.8185,83.498 198.3885,84.817 199.2905,86.148 C202.0815,90.199 204.3265,95.081 205.3355,99.453 C204.5995,99.88 203.7675,100.379 203.2585,101.173 C201.6775,103.75 202.2475,107.326 203.4465,109.892 C204.1595,111.471 205.2415,112.956 205.8465,114.582 C206.9855,117.185 207.6395,119.987 208.1155,122.827 C208.0555,124.038 207.9735,125.286 208.1155,126.449 C207.9255,126.543 208.0555,126.769 207.8775,126.816 C207.6395,126.652 207.7475,126.355 207.5565,126.177 C205.8935,120.593 197.3435,115.01 193.7305,110.735 C191.9725,108.216 190.0375,105.472 190.7375,102.218 C190.9995,101.423 191.7005,100.912 192.5315,100.912 C193.4115,100.817 194.4205,101.22 195.3465,101.184 C195.8095,101.103 196.2255,100.912 196.4035,100.472 C196.7835,99.047 195.7625,97.883 195.0745,96.826 C193.9695,95.33 192.5315,94.296 191.2365,92.858 C191.1065,92.764 191.1065,92.538 190.9645,92.491 C189.6215,90.958 188.1005,89.664 188.6955,87.383 C189.2185,86.41 190.3095,86.481 191.2365,86.349 C191.5575,86.124 191.8795,85.887 191.9725,85.459 C192.0205,82.714 189.9895,80.863 188.8845,78.726 C188.1005,77.239 187.4005,75.554 187.6385,73.654 C187.9245,73.094 188.1005,72.442 188.7425,72.06" id="Fill-63" fill="#007456"></path>
                <path d="M187.1761,157.0219 C187.3181,155.9529 187.3641,154.8249 187.6261,153.8499 C187.9711,152.7459 188.3751,151.4759 189.6691,151.1419 C191.3311,150.9639 192.7091,154.1709 194.0641,151.9859 C194.6931,150.4419 194.1481,148.6609 193.7791,147.1879 C193.3281,145.5129 192.3881,144.0159 192.0211,142.2469 C191.2371,140.7619 190.9991,139.0039 190.8101,137.2689 C190.9291,136.3909 190.9991,135.3699 191.7951,134.7979 C192.5671,133.9679 193.5891,135.0369 194.4801,134.4779 C194.8841,134.5249 195.0741,134.1579 195.2991,133.9089 C195.8591,130.9389 193.8631,128.6469 194.2901,125.6279 C194.3361,123.9549 194.9421,122.2799 196.3221,121.4009 C197.8881,120.3919 200.3121,121.3189 201.2851,122.5649 C202.4961,124.1449 203.5431,125.9129 204.3501,127.7199 C205.5151,130.3079 206.1551,132.6609 209.1731,130.5579 C210.1001,129.8939 210.8351,128.8719 212.1771,128.9079 C212.9491,129.0499 213.5091,129.7029 213.7451,130.4999 C214.1131,132.3049 213.9711,134.2989 213.3771,136.0339 C213.0561,137.2459 212.6051,138.4099 212.5701,139.7159 C212.4041,140.7369 212.5701,141.3919 212.7821,142.2699 C213.0091,142.5539 213.0811,142.9219 213.4731,142.9589 C214.2081,143.0069 214.7551,142.3049 215.5031,142.2109 C216.2391,141.8419 217.2011,141.8059 217.9971,142.1629 C218.5911,142.5899 218.7451,143.3389 218.7451,144.0269 C218.3641,147.5199 215.0751,149.5149 213.6981,152.5559 C213.5681,153.0189 213.4731,153.4839 213.6501,153.9459 C213.7921,154.2319 214.0191,154.3259 214.3041,154.3739 C214.3521,154.2179 214.4821,154.2789 214.5761,154.3739 C214.9451,154.2179 215.3961,154.2789 215.7771,154.0409 C216.7381,154.0409 217.9041,154.1349 218.3901,155.0749 C219.0551,156.9159 217.5831,158.4129 216.5011,159.6819 L216.3221,159.6819 C215.2051,158.2809 213.5681,157.7709 211.8081,157.9139 C207.0931,159.0889 205.6211,164.0409 204.3501,169.0309 C204.0171,168.4969 203.3521,167.7119 202.5321,167.2379 C206.1551,155.6319 205.9051,147.0449 203.9351,137.5789 C203.4831,135.7249 203.3041,133.7189 201.8201,132.3649 C201.5461,132.3759 201.2621,132.5069 201.1321,132.7559 C200.7161,133.6359 200.9891,134.6919 200.9291,135.7249 C202.5321,149.3739 201.6181,157.7219 199.0651,166.4279 C198.3161,166.4279 197.0811,166.6779 196.3331,167.2959 C193.6841,169.4689 192.6381,172.8909 192.8761,176.4779 C192.8161,177.5819 192.6741,178.2939 192.1631,179.2339 C190.0261,173.3539 187.1151,172.7489 185.0311,173.8409 C188.3041,168.7209 187.4481,163.3419 187.1761,157.0219" id="Fill-65" fill="#007456"></path>
                <path d="M161.4896,192.145 C162.4876,191.015 163.9136,189.518 165.4086,190.327 C166.8706,191.111 165.9306,193.285 167.3696,194.126 C168.9016,195.019 169.7576,192.18 170.2896,190.659 C171.2766,187.893 171.5736,185.018 172.6676,183.01 C173.3786,181.726 174.0446,180.291 175.8026,180.801 C177.0616,181.181 176.8846,184.246 178.7706,184.02 C181.3026,183.699 182.4656,176.513 186.1776,177.322 C188.0186,177.712 189.7276,180.92 189.7886,185.101 C189.8236,187.822 188.7066,190.541 189.5036,193.095 C189.6456,193.273 189.8236,193.462 189.8236,193.736 C188.8136,194.686 187.6496,195.517 186.5456,196.361 C186.2236,195.624 185.7556,194.686 185.0196,194.126 C184.5446,193.712 183.9016,193.392 183.4026,193.072 C184.3296,191.015 185.0786,188.343 184.8536,186.513 C184.7106,186.276 184.2116,186.182 183.9856,186.312 C182.6076,187.358 181.7646,190.47 180.3026,192.88 C175.9686,193.867 173.5686,197.502 171.7156,201.171 C171.5266,201.136 171.5736,200.863 171.4426,200.708 C170.3266,199.46 168.6756,198.628 166.8216,199.035 C162.2026,199.983 159.8496,204.818 157.1776,208.833 C156.4756,206.909 155.0986,206.623 153.3426,206.03 C157.4156,201.113 158.2706,195.779 161.4896,192.145" id="Fill-67" fill="#007456"></path>
                <path d="M145.4075,216.5991 C147.5685,213.8931 149.0175,210.8171 151.8455,209.1771 C152.3565,208.8691 153.4135,208.7961 153.9835,209.1181 C154.8975,209.6171 154.9925,211.9921 156.4525,211.8981 C158.4245,211.7771 161.1805,208.1791 162.5335,206.2321 C163.7345,204.4491 165.2555,202.6911 167.4285,202.2171 C168.1535,202.1211 168.8535,202.2991 169.2335,202.9061 C169.9585,204.1171 169.0905,206.0651 170.2315,207.0511 C171.4425,207.1461 172.1795,206.2201 172.8685,205.4231 C173.7955,204.4851 174.3045,203.0831 175.0895,202.1581 C175.1375,201.7301 175.4585,201.3621 175.6825,200.9931 C177.1795,198.9381 178.8305,196.7421 181.3735,196.1831 C182.2035,196.0401 182.9875,196.3721 183.3455,197.1101 C183.6775,197.6561 183.7715,198.4141 183.7715,199.0701 C183.5815,199.2101 183.8545,199.3541 183.7715,199.5321 C183.8205,199.9481 183.9855,200.3751 184.3655,200.4581 C185.2925,200.7321 186.2235,200.3751 187.0085,199.9831 C190.3825,198.7351 192.2225,195.4701 195.7875,194.5681 C197.1755,194.1051 199.1595,194.1051 200.3595,194.9951 C201.6415,195.9561 201.5115,197.9641 201.1415,199.3661 C200.9055,199.4491 201.0955,199.6871 201.0005,199.8181 C200.1205,202.0981 198.5535,204.1171 197.5325,206.3021 C197.6285,206.6221 197.4015,206.8011 197.3525,207.1461 C197.3525,207.8351 197.3525,208.5471 197.8525,208.9981 C198.1855,209.2241 198.6845,209.3681 199.0055,209.5091 C199.8005,209.8411 200.4905,210.3051 200.8695,211.0891 C201.0955,212.3961 200.0745,213.3811 199.0645,214.0351 C195.2755,216.4111 190.1915,215.5311 186.1785,217.3961 C185.0675,217.7411 183.5345,218.3231 183.3085,219.5941 C183.2145,220.1531 183.5815,220.4241 183.9015,220.7081 C184.6395,221.0421 185.6605,221.6841 185.7555,222.6111 C185.8035,224.2381 184.1865,224.9381 182.9285,225.4601 C182.6315,225.5561 182.2395,225.6521 181.8725,225.7811 C175.7785,227.1481 169.1375,225.1531 162.9855,226.2451 C161.4665,226.4711 159.8495,226.7081 158.4605,227.3141 C157.9615,227.3741 157.6295,226.9931 157.1675,226.9111 C154.7675,226.0191 152.4155,225.0451 149.8385,224.5481 C151.4885,224.1651 153.1985,223.7991 154.8135,223.4531 C155.0405,223.3241 155.4305,223.3711 155.6455,223.2871 C156.8565,222.7531 158.0935,222.8481 159.2085,222.3021 C159.7205,222.3371 160.0765,221.9101 160.5405,221.9561 C162.3915,221.3041 164.2805,220.7451 166.2285,220.1391 C167.7375,219.4861 169.3645,218.8701 170.9795,218.3101 C171.1585,218.0851 171.4905,218.0851 171.6085,218.0371 C172.0015,217.8961 172.2745,217.6091 172.6785,217.6091 C173.2355,217.2881 173.9375,217.0521 174.5315,216.7671 C176.9425,215.6011 179.4715,214.5351 181.7045,213.1311 C182.3825,212.8461 183.2145,212.3361 183.9015,211.9091 C186.9495,209.8541 190.2755,207.9421 192.4015,204.7831 C192.5445,204.4971 192.7215,204.0341 192.4485,203.7611 C191.8075,203.3801 191.0825,203.8321 190.4175,204.0451 C187.1505,206.2791 184.0795,208.0851 180.6825,209.8671 C178.8665,210.7091 177.1795,211.5521 175.3625,212.3961 C174.9115,212.5741 174.3995,212.7401 173.9375,212.9061 C172.1325,213.7491 170.2315,214.4041 168.4035,215.1041 C167.0955,215.5311 165.6575,215.9011 164.3775,216.3391 C163.4855,216.5991 162.6665,216.8741 161.7865,217.1231 C156.2515,218.7141 148.4605,220.6021 143.9235,221.4821 C142.3785,221.7901 140.7865,222.1341 139.2075,222.3261 C139.1105,222.2781 139.2075,222.1831 139.2435,222.0991 C142.4735,220.4241 144.1245,218.2031 145.4075,216.5991" id="Fill-69" fill="#007456"></path>
                <path d="M110.5574,222.9311 C114.3714,221.5891 117.8044,219.6641 120.9384,217.0991 C124.3124,220.1631 128.6474,221.8851 132.8174,223.5131 L132.8174,223.5851 C129.1704,227.1351 125.1904,230.0341 120.8914,232.3141 C120.5714,232.3141 120.4754,232.0901 120.2024,231.9941 C116.8294,230.0581 113.2304,227.7781 110.3674,224.9381 C109.8564,224.6051 109.3944,224.0481 108.9304,223.5851 C109.4414,223.3111 110.0484,223.2161 110.5574,222.9311" id="Fill-71" fill="#D8232A"></path>
                <path d="M85.9349,230.4975 C86.2799,230.2245 86.7679,230.3175 87.1479,230.0335 C91.0799,228.7145 95.0339,227.8845 99.1199,226.9815 C101.0909,226.4715 103.1229,225.9485 105.0579,225.3305 C106.3049,226.7915 107.6009,227.7545 108.9429,228.9175 C107.4579,229.6175 105.7959,229.9975 104.2269,230.4615 C99.0369,232.1475 93.4649,232.8135 88.3479,234.5955 C84.7949,235.8535 81.3149,237.3965 78.7859,240.2375 C77.5389,241.4135 76.6469,242.9445 75.9589,244.5365 C74.8649,242.9925 74.1179,241.3285 72.9649,239.8805 C75.7679,235.1305 81.1369,232.4675 85.9349,230.4975" id="Fill-73" fill="#007456"></path>
                <path d="M128.7073,231.686 C128.7433,231.495 128.9333,231.4 129.0753,231.495 C130.0973,232.041 131.2963,232.314 132.3533,232.742 C135.5363,233.955 138.9453,234.69 142.3313,235.474 C143.1973,235.509 144.0053,235.878 144.9083,235.925 C147.1423,236.449 149.5403,236.898 151.6203,237.588 C152.0353,237.873 152.5813,237.79 152.9623,238.146 C157.2493,239.631 161.2633,242.696 163.0213,246.935 L163.1523,247.434 C161.9643,249.206 160.9903,250.808 159.8393,252.613 C159.5193,252.34 159.6483,251.77 159.4573,251.365 C157.9853,244.81 150.9183,242.339 145.1453,240.915 C137.8533,239.512 130.7383,237.636 124.1213,234.631 C125.7503,233.835 127.2343,232.66 128.7073,231.686" id="Fill-75" fill="#007456"></path>
                <path d="M136.1419,225.2358 C141.5109,227.1008 147.4139,227.6598 152.7709,229.3918 C157.4739,230.8418 161.8219,233.0978 165.4559,236.2708 C166.3939,237.3858 167.4989,238.4078 168.0109,239.7498 C167.4539,240.2608 167.2619,240.9248 166.8109,241.4708 C166.1929,242.3628 165.6479,243.4218 165.0059,244.3108 C164.8629,244.2278 164.9099,243.9908 164.8149,243.9068 C163.8059,241.5308 161.9639,239.6318 160.0169,237.9448 C159.8389,237.9088 159.6489,237.6718 159.4119,237.5518 C153.4129,233.4908 145.7509,232.8488 138.6729,231.0558 C136.4629,230.4148 134.2429,229.8558 132.1169,228.9528 C133.4109,227.7548 134.8359,226.5298 136.1419,225.2358" id="Fill-77" fill="#D8232A"></path>
                <path d="M81.8255,242.1381 C85.6625,238.6931 90.8885,237.2321 95.9715,236.2101 C96.2445,236.0211 96.5655,236.1161 96.8875,235.9731 C97.3975,235.9251 97.9435,235.7361 98.5135,235.6401 C100.0225,235.2241 101.6965,234.9751 103.2065,234.5121 C106.1985,233.6801 109.1685,232.7421 112.0315,231.5311 C113.5035,232.5891 115.0015,233.7511 116.6045,234.6901 C109.5365,237.8151 102.0175,239.9171 94.2025,241.3281 C90.6035,242.3981 87.0055,243.8121 84.1885,246.4721 C82.5745,248.2421 81.5645,250.3311 81.1375,252.6611 L81.0425,252.6611 C80.0335,250.9981 78.9645,249.2411 77.9535,247.6831 C78.5585,245.5951 80.2215,243.6941 81.8255,242.1381" id="Fill-79" fill="#D8232A"></path>
                <path d="M106.4837,201.4331 C106.0077,200.9351 102.0767,199.6381 99.4537,199.6381 C103.2067,204.5911 109.3107,212.6451 114.3107,217.3011 C115.8077,216.5991 116.9007,215.8761 118.1607,214.8071 C114.0027,210.6151 110.1187,206.1601 106.4837,201.4331" id="Fill-81" fill="#007456"></path>
                <path d="M94.285,198.2963 C93.763,197.5373 90.485,196.7413 87.753,196.7413 C92.599,204.2953 100.177,214.5343 106.293,220.8053 C107.897,220.2593 109.346,219.7003 110.82,218.9873 C103.159,210.7683 99.477,205.7793 94.285,198.2963" id="Fill-83" fill="#D8232A"></path>
                <path d="M135.3704,201.4331 C135.8564,200.9351 139.7784,199.6381 142.4134,199.6381 C138.6494,204.5911 132.5444,212.6451 127.5314,217.3011 C126.0694,216.5991 124.9534,215.8761 123.7074,214.8071 C127.8744,210.6151 131.7604,206.1601 135.3704,201.4331" id="Fill-85" fill="#007456"></path>
                <path d="M147.5804,198.2963 C148.1034,197.5373 151.3704,196.7413 154.1254,196.7413 C149.2684,204.2953 141.7134,214.5343 135.5724,220.8053 C133.9564,220.2593 132.5084,219.7003 131.0594,218.9873 C138.7084,210.7683 142.4024,205.7793 147.5804,198.2963" id="Fill-87" fill="#D8232A"></path>
                <path d="M120.928,191.2182 C120.202,190.3162 119.027,189.4602 117.293,188.4502 C110.606,184.8522 99.618,183.9962 93.561,183.0812 C78.559,180.8242 68.344,170.3242 68.344,155.6432 L68.344,154.8122 L68.344,52.4282 L173.521,52.4282 L173.521,154.8122 L173.521,155.6432 C173.521,170.3242 163.307,180.8242 148.305,183.0812 C142.236,183.9962 131.248,184.8522 124.574,188.4502 C122.851,189.4602 121.677,190.3162 120.928,191.2182 M120.928,185.6582 C128.766,180.8242 138.518,180.2182 147.723,178.8412 C159.993,176.9892 169.234,168.6382 169.234,155.7852 L169.234,154.9552 L169.234,56.7032 L72.62,56.7032 L72.62,154.9552 L72.62,155.7852 C72.62,168.6382 81.874,176.9892 94.143,178.8412 C103.349,180.2182 113.101,180.8242 120.928,185.6582" id="Fill-89" fill="#1A1919"></path>
                <polygon id="Fill-91" fill="#1A1919" points="80.3888 17.6971 84.6528 17.6971 84.6528 8.9541 80.3888 8.9541"></polygon>
                <polygon id="Fill-93" fill="#1A1919" points="114.9173 0 119.1923 0 119.1923 4.478 122.6863 4.478 122.6863 0 126.9493 0 126.9493 8.753 114.9173 8.753"></polygon>
                <polygon id="Fill-94" fill="#1A1919" points="88.1561 14.5004 88.1561 4.4784 92.4211 4.4784 92.4211 13.2194 96.6971 19.7994 96.6971 33.4114 92.4211 33.4114 92.4211 21.0944"></polygon>
                <polygon id="Fill-95" fill="#1A1919" points="100.1771 8.9545 103.6801 8.9545 103.6801 13.2195 95.9141 13.2195 95.9141 4.4775 100.1771 4.4775"></polygon>
                <polygon id="Fill-96" fill="#1A1919" points="107.553 41.1792 76.885 41.1792 76.885 25.5482 72.62 18.9672 72.62 8.9542 76.885 8.9542 76.885 17.6982 81.184 24.2882 81.184 36.8922 107.553 36.8922"></polygon>
                <polygon id="Fill-97" fill="#1A1919" points="157.2018 17.6971 161.4778 17.6971 161.4778 8.9541 157.2018 8.9541"></polygon>
                <polygon id="Fill-98" fill="#1A1919" points="153.721 14.5004 153.721 4.4784 149.446 4.4784 149.446 13.2194 145.169 19.7994 145.169 33.4114 149.446 33.4114 149.446 21.0944"></polygon>
                <polygon id="Fill-99" fill="#1A1919" points="141.7015 8.9545 138.1975 8.9545 138.1975 13.2195 145.9655 13.2195 145.9655 4.4775 141.7015 4.4775"></polygon>
                <path d="M76.8851,48.935 L76.8851,44.659 L111.0221,44.659 L111.0221,36.892 C111.0221,31.427 115.4631,26.997 120.9281,26.997 C126.3901,26.997 130.8331,31.427 130.8331,36.892 L130.8331,44.659 L164.9701,44.659 L164.9701,48.935 L126.5581,48.935 L126.5581,36.892 C126.5581,33.79 124.0401,31.285 120.9281,31.285 C117.8391,31.285 115.2971,33.79 115.2971,36.892 L115.2971,48.935 L76.8851,48.935 Z" id="Fill-100" fill="#1A1919"></path>
                <polygon id="Fill-101" fill="#1A1919" points="134.3138 41.1792 164.9698 41.1792 164.9698 25.5482 169.2338 18.9672 169.2338 8.9542 164.9698 8.9542 164.9698 17.6982 160.6938 24.2882 160.6938 36.8922 134.3138 36.8922"></polygon>
                <path d="M115.2972,24.729 L115.2972,14.728 L111.4262,8.753 L111.4262,0 L107.1612,0 L107.1612,10.023 L111.0222,15.987 L111.0222,27.877 C112.2332,26.57 113.6822,25.5 115.2972,24.729" id="Fill-102" fill="#1A1919"></path>
                <path d="M126.5579,24.729 L126.5579,14.728 L130.4179,8.753 L130.4179,0 L134.7169,0 L134.7169,10.023 L130.8329,15.987 L130.8329,27.877 C129.6459,26.57 128.1959,25.5 126.5579,24.729" id="Fill-103" fill="#1A1919"></path>
            </g>
        </g>
    </g>
</svg>