<?xml version="1.0" encoding="UTF-8"?><svg id="Livello_1" xmlns="http://www.w3.org/2000/svg" viewBox="0 0 1000.07 412.37"><defs><style>.cls-1{fill:#06c;}.cls-2,.cls-3{fill:#fff;}.cls-4{fill:#c42825;}.cls-5{fill:#72ab41;}.cls-3{fill-rule:evenodd;}</style></defs><rect class="cls-1" x=".07" width="999.86" height="412.37"/><g><rect class="cls-5" x="30.87" y="395.42" width="318.14" height="16.95"/><rect class="cls-2" x="345.68" y="395.42" width="318.14" height="16.95"/><rect class="cls-4" x="660.49" y="395.42" width="318.14" height="16.95"/><g><g><path class="cls-2" d="M375.36,129.36v-52.77h10.6l14.95,44.61,14.95-44.61h10.6v52.77h-5.87v-46.52h-1.07l-15.33,44.61h-6.56l-15.33-44.61h-1.07v46.52h-5.87Z"/><path class="cls-2" d="M438.42,82.61v-6.63h5.72v6.63h-5.72Zm0,46.75v-38.13h5.72v38.13h-5.72Z"/><path class="cls-2" d="M460.84,129.36h-5.72v-38.13h5.64v2.67c4.12-2.29,8.06-3.43,11.82-3.43,5.08,0,8.5,1.37,10.26,4.12,1.75,2.75,2.63,7.63,2.63,14.64v20.13h-5.64v-19.98c0-5.29-.52-8.91-1.56-10.87s-3.27-2.94-6.67-2.94c-1.63,0-3.34,.24-5.15,.72-1.81,.48-3.19,.95-4.16,1.41l-1.45,.69v30.96Z"/><path class="cls-2" d="M496.07,82.61v-6.63h5.72v6.63h-5.72Zm0,46.75v-38.13h5.72v38.13h-5.72Z"/><path class="cls-2" d="M524.75,95.58c-5.54,0-8.31,1.93-8.31,5.8,0,1.78,.64,3.04,1.91,3.78s4.17,1.5,8.69,2.29c4.52,.79,7.73,1.89,9.61,3.32,1.88,1.43,2.82,4.09,2.82,8.01s-1.26,6.79-3.78,8.62c-2.52,1.83-6.19,2.75-11.02,2.75-3.15,0-6.86-.36-11.13-1.07l-2.29-.38,.3-4.96c5.8,.86,10.17,1.3,13.12,1.3s5.2-.47,6.75-1.41c1.55-.94,2.33-2.52,2.33-4.73s-.66-3.71-1.98-4.5c-1.32-.79-4.22-1.54-8.69-2.25-4.47-.71-7.65-1.75-9.53-3.13-1.88-1.37-2.82-3.91-2.82-7.63s1.31-6.46,3.93-8.24,5.89-2.67,9.8-2.67c3.1,0,6.99,.36,11.67,1.07l2.13,.38-.15,4.88c-5.64-.81-10.09-1.22-13.35-1.22Z"/><path class="cls-2" d="M567.99,96.19h-12.12v18.23c0,4.37,.32,7.24,.95,8.62,.64,1.37,2.15,2.06,4.54,2.06l6.79-.46,.38,4.73c-3.41,.56-6,.84-7.78,.84-3.97,0-6.71-.97-8.24-2.9-1.53-1.93-2.29-5.62-2.29-11.06v-20.06h-5.42v-4.96h5.42v-11.67h5.64v11.67h12.12v4.96Z"/><path class="cls-2" d="M600.93,124.63l2.21-.23,.15,4.5c-5.8,.81-10.75,1.22-14.87,1.22-5.49,0-9.38-1.59-11.67-4.77-2.29-3.18-3.43-8.12-3.43-14.83,0-13.37,5.31-20.06,15.94-20.06,5.13,0,8.97,1.44,11.51,4.31,2.54,2.87,3.81,7.39,3.81,13.54l-.3,4.35h-25.17c0,4.22,.76,7.35,2.29,9.38,1.52,2.03,4.18,3.05,7.97,3.05s7.64-.15,11.55-.46Zm-2.06-16.55c0-4.68-.75-7.98-2.25-9.91-1.5-1.93-3.94-2.9-7.32-2.9s-5.92,1.02-7.63,3.05c-1.7,2.04-2.58,5.29-2.63,9.76h19.83Z"/><path class="cls-2" d="M613.51,129.36v-38.13h5.64v5.19c4.42-3.05,9.08-5.06,13.96-6.03v5.8c-2.13,.41-4.36,1.04-6.67,1.91-2.31,.86-4.08,1.63-5.3,2.29l-1.91,.99v27.99h-5.72Z"/><path class="cls-2" d="M637.54,110.22c0-6.97,1.25-12,3.74-15.1,2.49-3.1,6.7-4.65,12.62-4.65s10.12,1.55,12.58,4.65,3.7,8.13,3.7,15.1-1.17,12.03-3.51,15.18c-2.34,3.15-6.61,4.73-12.81,4.73s-10.47-1.58-12.81-4.73c-2.34-3.15-3.51-8.21-3.51-15.18Zm5.87-.11c0,5.57,.67,9.47,2.02,11.7,1.35,2.24,4.17,3.36,8.47,3.36s7.1-1.1,8.43-3.32c1.32-2.21,1.98-6.11,1.98-11.71s-.74-9.44-2.21-11.55c-1.47-2.11-4.21-3.16-8.2-3.16s-6.74,1.06-8.24,3.16c-1.5,2.11-2.25,5.95-2.25,11.52Z"/><path class="cls-2" d="M725.54,74.61v54.75h-5.64v-2.59c-3.92,2.24-7.78,3.36-11.59,3.36-2.04,0-3.81-.26-5.34-.76-1.52-.51-2.95-1.42-4.27-2.75-2.75-2.75-4.12-7.82-4.12-15.21s1.23-12.74,3.7-16.02c2.47-3.28,6.55-4.92,12.24-4.92,2.95,0,6.07,.33,9.38,.99v-16.85h5.64Zm-19.83,49.87c.92,.36,2.1,.53,3.55,.53s3.07-.24,4.88-.72c1.8-.48,3.21-.95,4.23-1.41l1.52-.69v-25.85c-3.25-.61-6.28-.91-9.08-.91-3.86,0-6.56,1.23-8.08,3.7-1.53,2.47-2.29,6.29-2.29,11.48,0,5.9,.89,9.87,2.67,11.9,.81,.97,1.68,1.63,2.59,1.98Z"/><path class="cls-2" d="M762.52,124.63l2.21-.23,.15,4.5c-5.79,.81-10.75,1.22-14.87,1.22-5.49,0-9.38-1.59-11.67-4.77-2.29-3.18-3.43-8.12-3.43-14.83,0-13.37,5.31-20.06,15.94-20.06,5.13,0,8.97,1.44,11.51,4.31,2.54,2.87,3.81,7.39,3.81,13.54l-.31,4.35h-25.17c0,4.22,.76,7.35,2.29,9.38,1.52,2.03,4.18,3.05,7.97,3.05s7.64-.15,11.55-.46Zm-2.06-16.55c0-4.68-.75-7.98-2.25-9.91-1.5-1.93-3.94-2.9-7.32-2.9s-5.92,1.02-7.63,3.05c-1.7,2.04-2.58,5.29-2.63,9.76h19.83Z"/><path class="cls-2" d="M775.57,129.36v-54.75h5.72v54.75h-5.72Z"/><path class="cls-2" d="M793.18,129.36v-54.75h5.72v54.75h-5.72Z"/><path class="cls-2" d="M836.26,124.63l2.21-.23,.15,4.5c-5.79,.81-10.75,1.22-14.87,1.22-5.49,0-9.38-1.59-11.67-4.77-2.29-3.18-3.43-8.12-3.43-14.83,0-13.37,5.31-20.06,15.94-20.06,5.13,0,8.97,1.44,11.51,4.31,2.54,2.87,3.81,7.39,3.81,13.54l-.31,4.35h-25.17c0,4.22,.77,7.35,2.29,9.38,1.53,2.03,4.18,3.05,7.97,3.05s7.64-.15,11.55-.46Zm-2.06-16.55c0-4.68-.75-7.98-2.25-9.91-1.5-1.93-3.94-2.9-7.32-2.9s-5.92,1.02-7.63,3.05c-1.7,2.04-2.58,5.29-2.63,9.76h19.83Z"/></g><g><path class="cls-2" d="M375.36,220.87v-52.77h5.87v52.77h-5.87Z"/><path class="cls-2" d="M398.84,220.87h-5.72v-38.13h5.64v2.67c4.12-2.29,8.06-3.43,11.82-3.43,5.08,0,8.5,1.37,10.26,4.12,1.75,2.75,2.63,7.63,2.63,14.64v20.13h-5.64v-19.98c0-5.29-.52-8.91-1.56-10.87-1.04-1.96-3.27-2.94-6.67-2.94-1.63,0-3.34,.24-5.15,.72-1.81,.48-3.19,.95-4.16,1.41l-1.45,.69v30.96Z"/><path class="cls-2" d="M441.4,187.7v33.17h-5.72v-33.17h-4.8v-4.96h4.8v-3.43c0-5.39,.76-9.06,2.29-11.02,1.53-1.96,4.2-2.94,8.01-2.94l7.7,.53-.08,4.73c-2.85-.1-5.2-.15-7.05-.15s-3.18,.61-3.96,1.83c-.79,1.22-1.18,3.58-1.18,7.09v3.36h11.06v4.96h-11.06Z"/><path class="cls-2" d="M459.32,220.87v-38.13h5.64v5.19c4.42-3.05,9.08-5.06,13.96-6.03v5.8c-2.13,.41-4.36,1.04-6.67,1.91-2.31,.86-4.08,1.63-5.3,2.29l-1.91,.99v27.99h-5.72Z"/><path class="cls-2" d="M512.62,194.26v19.52c.15,1.88,1.63,3,4.42,3.36l-.23,4.5c-4.02,0-7.04-1.02-9.08-3.05-4.58,2.03-9.15,3.05-13.73,3.05-3.51,0-6.18-.99-8.01-2.97-1.83-1.98-2.75-4.83-2.75-8.54s.94-6.44,2.82-8.2c1.88-1.75,4.83-2.83,8.85-3.24l11.97-1.14v-3.28c0-2.59-.56-4.45-1.68-5.57s-2.64-1.68-4.57-1.68c-4.07,0-8.29,.26-12.66,.76l-2.36,.23-.23-4.35c5.59-1.12,10.55-1.68,14.87-1.68s7.46,.99,9.42,2.97c1.96,1.98,2.94,5.08,2.94,9.3Zm-23.49,15.56c0,4.68,1.93,7.01,5.8,7.01,3.46,0,6.86-.58,10.22-1.75l1.75-.61v-12.58l-11.28,1.07c-2.29,.2-3.94,.86-4.96,1.98-1.02,1.12-1.52,2.75-1.52,4.88Z"/><path class="cls-2" d="M535.88,187.09c-5.54,0-8.31,1.93-8.31,5.8,0,1.78,.64,3.04,1.91,3.78s4.17,1.5,8.69,2.29c4.52,.79,7.73,1.89,9.61,3.32,1.88,1.43,2.82,4.09,2.82,8.01s-1.26,6.79-3.78,8.62c-2.52,1.83-6.19,2.75-11.02,2.75-3.15,0-6.86-.36-11.13-1.07l-2.29-.38,.3-4.96c5.8,.86,10.17,1.3,13.12,1.3s5.2-.47,6.75-1.41c1.55-.94,2.33-2.52,2.33-4.73s-.66-3.71-1.98-4.5c-1.32-.79-4.22-1.54-8.69-2.25-4.47-.71-7.65-1.75-9.53-3.13-1.88-1.37-2.82-3.91-2.82-7.63s1.31-6.46,3.93-8.24,5.89-2.67,9.8-2.67c3.1,0,6.99,.36,11.67,1.07l2.13,.38-.15,4.88c-5.64-.81-10.09-1.22-13.35-1.22Z"/><path class="cls-2" d="M579.12,187.7h-12.12v18.23c0,4.37,.32,7.24,.95,8.62,.64,1.37,2.15,2.06,4.54,2.06l6.79-.46,.38,4.73c-3.41,.56-6,.84-7.78,.84-3.97,0-6.71-.97-8.24-2.9-1.53-1.93-2.29-5.62-2.29-11.06v-20.06h-5.42v-4.96h5.42v-11.67h5.64v11.67h12.12v4.96Z"/><path class="cls-2" d="M586.13,220.87v-38.13h5.64v5.19c4.42-3.05,9.08-5.06,13.96-6.03v5.8c-2.13,.41-4.36,1.04-6.67,1.91-2.31,.86-4.08,1.63-5.3,2.29l-1.91,.99v27.99h-5.72Z"/><path class="cls-2" d="M636.32,182.74h5.72v38.13h-5.72v-2.67c-3.81,2.29-7.58,3.43-11.29,3.43-5.19,0-8.63-1.35-10.33-4.04-1.7-2.69-2.55-7.68-2.55-14.95v-19.9h5.72v19.83c0,5.54,.48,9.25,1.45,11.13s3.15,2.82,6.56,2.82c1.68,0,3.38-.24,5.11-.72,1.73-.48,3.05-.95,3.97-1.41l1.37-.69v-30.96Z"/><path class="cls-2" d="M672.77,187.7h-12.12v18.23c0,4.37,.32,7.24,.95,8.62,.64,1.37,2.15,2.06,4.54,2.06l6.79-.46,.38,4.73c-3.41,.56-6,.84-7.78,.84-3.97,0-6.71-.97-8.24-2.9-1.53-1.93-2.29-5.62-2.29-11.06v-20.06h-5.42v-4.96h5.42v-11.67h5.64v11.67h12.12v4.96Z"/><path class="cls-2" d="M699.53,187.7h-12.12v18.23c0,4.37,.32,7.24,.95,8.62,.64,1.37,2.15,2.06,4.54,2.06l6.79-.46,.38,4.73c-3.41,.56-6,.84-7.78,.84-3.97,0-6.71-.97-8.24-2.9-1.53-1.93-2.29-5.62-2.29-11.06v-20.06h-5.42v-4.96h5.42v-11.67h5.64v11.67h12.12v4.96Z"/><path class="cls-2" d="M730.34,182.74h5.72v38.13h-5.72v-2.67c-3.81,2.29-7.58,3.43-11.29,3.43-5.19,0-8.63-1.35-10.33-4.04-1.7-2.69-2.55-7.68-2.55-14.95v-19.9h5.72v19.83c0,5.54,.48,9.25,1.45,11.13s3.15,2.82,6.56,2.82c1.68,0,3.38-.24,5.11-.72,1.73-.48,3.05-.95,3.97-1.41l1.37-.69v-30.96Z"/><path class="cls-2" d="M747.04,220.87v-38.13h5.64v5.19c4.42-3.05,9.07-5.06,13.96-6.03v5.8c-2.13,.41-4.36,1.04-6.67,1.91s-4.08,1.63-5.3,2.29l-1.91,.99v27.99h-5.72Z"/><path class="cls-2" d="M798.67,216.14l2.21-.23,.15,4.5c-5.79,.81-10.75,1.22-14.87,1.22-5.49,0-9.38-1.59-11.67-4.77-2.29-3.18-3.43-8.12-3.43-14.83,0-13.37,5.31-20.06,15.94-20.06,5.13,0,8.97,1.44,11.51,4.31,2.54,2.87,3.81,7.39,3.81,13.54l-.31,4.35h-25.17c0,4.22,.77,7.35,2.29,9.38,1.53,2.03,4.18,3.05,7.97,3.05s7.64-.15,11.55-.46Zm-2.06-16.55c0-4.68-.75-7.98-2.25-9.91-1.5-1.93-3.94-2.9-7.32-2.9s-5.92,1.02-7.63,3.05c-1.7,2.04-2.58,5.29-2.63,9.76h19.83Z"/><path class="cls-2" d="M853.96,216.14l2.21-.23,.15,4.5c-5.79,.81-10.75,1.22-14.87,1.22-5.49,0-9.38-1.59-11.67-4.77s-3.43-8.12-3.43-14.83c0-13.37,5.31-20.06,15.94-20.06,5.13,0,8.97,1.44,11.51,4.31,2.54,2.87,3.81,7.39,3.81,13.54l-.31,4.35h-25.17c0,4.22,.77,7.35,2.29,9.38,1.53,2.03,4.18,3.05,7.97,3.05s7.64-.15,11.55-.46Zm-2.06-16.55c0-4.68-.75-7.98-2.25-9.91-1.5-1.93-3.94-2.9-7.32-2.9s-5.92,1.02-7.63,3.05c-1.7,2.04-2.58,5.29-2.63,9.76h19.83Z"/><path class="cls-2" d="M912.6,166.12v54.75h-5.64v-2.59c-3.91,2.24-7.78,3.36-11.59,3.36-2.03,0-3.81-.26-5.34-.76-1.53-.51-2.95-1.42-4.27-2.75-2.75-2.75-4.12-7.82-4.12-15.21s1.23-12.74,3.7-16.02c2.46-3.28,6.55-4.92,12.24-4.92,2.95,0,6.07,.33,9.38,.99v-16.85h5.64Zm-19.83,49.87c.91,.36,2.1,.53,3.55,.53s3.07-.24,4.88-.72c1.8-.48,3.21-.95,4.23-1.41l1.53-.69v-25.85c-3.26-.61-6.28-.91-9.07-.91-3.86,0-6.56,1.23-8.08,3.7-1.53,2.47-2.29,6.29-2.29,11.48,0,5.9,.89,9.87,2.67,11.9,.81,.97,1.68,1.63,2.59,1.98Z"/><path class="cls-2" d="M949.58,216.14l2.21-.23,.15,4.5c-5.79,.81-10.75,1.22-14.87,1.22-5.49,0-9.38-1.59-11.67-4.77s-3.43-8.12-3.43-14.83c0-13.37,5.31-20.06,15.94-20.06,5.13,0,8.97,1.44,11.51,4.31,2.54,2.87,3.81,7.39,3.81,13.54l-.31,4.35h-25.17c0,4.22,.77,7.35,2.29,9.38,1.53,2.03,4.18,3.05,7.97,3.05s7.64-.15,11.55-.46Zm-2.06-16.55c0-4.68-.75-7.98-2.25-9.91-1.5-1.93-3.94-2.9-7.32-2.9s-5.92,1.02-7.63,3.05c-1.7,2.04-2.58,5.29-2.63,9.76h19.83Z"/><path class="cls-2" d="M962.17,174.12v-6.63h5.72v6.63h-5.72Zm0,46.75v-38.13h5.72v38.13h-5.72Z"/></g><g><path class="cls-2" d="M369.87,264.88v-5.26h38.13v5.26h-16.09v47.51h-5.8v-47.51h-16.24Z"/><path class="cls-2" d="M407.99,312.39v-38.13h5.64v5.19c4.42-3.05,9.08-5.06,13.96-6.03v5.8c-2.13,.41-4.36,1.04-6.67,1.91-2.31,.86-4.08,1.63-5.3,2.29l-1.91,.99v27.99h-5.72Z"/><path class="cls-2" d="M461.3,285.77v19.52c.15,1.88,1.63,3,4.42,3.36l-.23,4.5c-4.02,0-7.04-1.02-9.08-3.05-4.58,2.03-9.15,3.05-13.73,3.05-3.51,0-6.18-.99-8.01-2.97-1.83-1.98-2.75-4.83-2.75-8.54s.94-6.44,2.82-8.2c1.88-1.75,4.83-2.83,8.85-3.24l11.97-1.14v-3.28c0-2.59-.56-4.45-1.68-5.57-1.12-1.12-2.64-1.68-4.57-1.68-4.07,0-8.29,.26-12.66,.76l-2.36,.23-.23-4.35c5.59-1.12,10.55-1.68,14.87-1.68s7.46,.99,9.42,2.97c1.96,1.98,2.94,5.08,2.94,9.3Zm-23.49,15.56c0,4.68,1.93,7.01,5.8,7.01,3.46,0,6.86-.58,10.22-1.75l1.75-.61v-12.58l-11.28,1.07c-2.29,.2-3.94,.86-4.96,1.98-1.02,1.12-1.52,2.75-1.52,4.88Z"/><path class="cls-2" d="M484.56,278.6c-5.54,0-8.31,1.93-8.31,5.8,0,1.78,.64,3.04,1.91,3.78s4.17,1.5,8.69,2.29c4.52,.79,7.73,1.89,9.61,3.32,1.88,1.43,2.82,4.09,2.82,8.01s-1.26,6.79-3.78,8.62c-2.52,1.83-6.19,2.75-11.02,2.75-3.15,0-6.86-.36-11.13-1.07l-2.29-.38,.3-4.96c5.8,.86,10.17,1.3,13.12,1.3s5.2-.47,6.75-1.41c1.55-.94,2.33-2.52,2.33-4.73s-.66-3.71-1.98-4.5c-1.32-.79-4.22-1.54-8.69-2.25-4.47-.71-7.65-1.75-9.53-3.13-1.88-1.37-2.82-3.91-2.82-7.63s1.31-6.46,3.93-8.24c2.62-1.78,5.89-2.67,9.8-2.67,3.1,0,6.99,.36,11.67,1.07l2.13,.38-.15,4.88c-5.64-.81-10.09-1.22-13.35-1.22Z"/><path class="cls-2" d="M508.05,329.32v-55.06h5.64v2.75c3.86-2.34,7.68-3.51,11.44-3.51,4.83,0,8.34,1.54,10.52,4.62,2.18,3.08,3.28,8.15,3.28,15.21s-1.28,12.14-3.85,15.21c-2.57,3.08-6.82,4.62-12.77,4.62-3.1,0-5.95-.28-8.54-.84v17.01h-5.72Zm16.24-50.71c-1.52,0-3.17,.26-4.92,.76-1.75,.51-3.14,1.02-4.16,1.52l-1.45,.76v25.7c3.61,.56,6.36,.84,8.24,.84,4.12,0,7-1.17,8.66-3.51,1.65-2.34,2.48-6.15,2.48-11.44s-.75-9.05-2.25-11.29c-1.5-2.24-3.7-3.36-6.6-3.36Z"/><path class="cls-2" d="M546.56,293.24c0-6.97,1.25-12,3.74-15.1,2.49-3.1,6.7-4.65,12.62-4.65s10.12,1.55,12.58,4.65c2.47,3.1,3.7,8.13,3.7,15.1s-1.17,12.03-3.51,15.18c-2.34,3.15-6.61,4.73-12.81,4.73s-10.47-1.58-12.81-4.73c-2.34-3.15-3.51-8.21-3.51-15.18Zm5.87-.11c0,5.57,.67,9.47,2.02,11.7,1.35,2.24,4.17,3.36,8.47,3.36s7.1-1.1,8.43-3.32c1.32-2.21,1.98-6.11,1.98-11.71s-.74-9.44-2.21-11.55c-1.47-2.11-4.21-3.16-8.2-3.16s-6.74,1.06-8.24,3.16c-1.5,2.11-2.25,5.95-2.25,11.52Z"/><path class="cls-2" d="M588.5,312.39v-38.13h5.64v5.19c4.42-3.05,9.08-5.06,13.96-6.03v5.8c-2.13,.41-4.36,1.04-6.67,1.91-2.31,.86-4.08,1.63-5.3,2.29l-1.91,.99v27.99h-5.72Z"/><path class="cls-2" d="M634.64,279.21h-12.12v18.23c0,4.37,.32,7.24,.95,8.62,.64,1.37,2.15,2.06,4.54,2.06l6.79-.46,.38,4.73c-3.41,.56-6,.84-7.78,.84-3.97,0-6.71-.97-8.24-2.9-1.53-1.93-2.29-5.62-2.29-11.06v-20.06h-5.42v-4.96h5.42v-11.67h5.64v11.67h12.12v4.96Z"/><path class="cls-2" d="M641.65,265.64v-6.63h5.72v6.63h-5.72Zm0,46.75v-38.13h5.72v38.13h-5.72Z"/></g><path class="cls-3" d="M242.2,261.55c1.46,0,3.51,.74,3,1.98s-1.09,3.32-2.25,3.45c-1.15,.13-3.4-1.49-3.4-2.95s1.19-2.48,2.65-2.48"/><path class="cls-3" d="M197.35,357.14c-.46,.81-.17,1.61,.86,2.41,1.03,.8,1.89,.98,2.58,.52l-3.44-2.93Z"/><g><path class="cls-3" d="M308.7,198.11c.92-6.19,.29-10.09-1.89-11.7-2.3-1.61-5.11-1.09-8.43,1.55-1.95-1.03-4.59-.06-7.92,2.93,.57-1.49,.63-2.81,.17-3.96,2.99-1.37,4.91-2.89,5.77-4.56,.86-1.66,1.29-4.27,1.29-7.83,.34-2.18,2.35-6.08,6.03-11.71,2.52-5.62,.74-7.57-5.34-5.85,3.33-2.98,4.99-5.56,4.99-7.74,.23-2.06-.63-4.7-2.59-7.92-.8-1.83-2.01-2.18-3.61-1.03,.58-1.15,.89-2.53,.95-4.13,.06-1.61-1-4.99-3.19-10.15-.34-6.77-1.95-9.58-4.82-8.44-.46-3.55-1.61-6.94-3.44-10.15-2.76-4.13-4.93-5.22-6.54-3.27-4.47-6.65-8.66-9.41-12.56-8.26-.11-2.87-1.09-5.45-2.93-7.74-1.03-4.36-2.29-7.4-3.78-9.12-2.07-.81-3.5,.34-4.3,3.44-.34-2.52-1.15-5.16-2.41-7.91-1.26-2.75-3.27-4.19-6.02-4.3-1.03-.11-2.01,.06-2.93,.52-1.84-1.15-3.39-1.72-4.65-1.72-3.9-4.13-7.46-4.47-10.67-1.03l-.52-3.61c-1.15-4.25-3.44-5.17-6.88-2.75-5.62-5.85-10.44-9.7-14.46-11.53-3.32-1.15-5.51-.86-6.54,.86-1.72-1.72-3.56-2.81-5.51-3.27-1.95-.46-3.79-.97-5.51-1.55-2.64-.11-3.79,1.32-3.44,4.3-4.13,.23-6.97,.95-8.52,2.15-1.55,1.21-1.95,2.9-1.21,5.08,.75,2.18,2.44,3.96,5.08,5.33-.69,.8-.98,2.06-.86,3.79,.11,1.72,1.95,3.15,5.51,4.3,2.64,.69,5.22,.74,7.74,.17-.57,2.64,.35,4.3,2.76,4.99,3.33,3.44,7.46,4.3,12.39,2.58l-.52,3.27,6.71,2.75c.23,3.21,1.72,5.51,4.47,6.88l2.64,1.14c-.57,.07-3.03,2.11-3.07,2.43-.08,.1-.18,.26-.29,.45l-6.22,5.78c-3.22-1.86-6.54-3.53-9.89-5.01l1.14-10.04-1.46-.62c-2.04-.86-10.4-3.56-12.7-4.13l-1.57-.4-4.95,8.85c-3.69-.82-7.29-1.4-10.92-1.76l-2.06-9.91-1.6-.11c-2-.14-9.22-.16-12.35-.05v-.02l-2.56,.18-1.98,9.91c-3.85,.38-7.52,.97-10.94,1.75l-5.11-8.85-1.56,.41c-2.19,.57-10.45,3.25-12.57,4.12l-1.49,.61,1.14,10.06c-3.3,1.45-6.59,3.13-9.84,5.01l-7.57-6.89-1.19,.77c.62-1.38,1.07-2.52,1.23-3.21l1.46-.47,1.72-.69c5.74-2.29,10.62-4.75,15.09-6.81l6.94-3.69c4.82-2.06,9.41-4.88,13.77-8.43,4.59-4.02,7.05-8.2,7.4-12.57-.8-1.03-3.16-1.61-7.06-1.72,2.07-2.29,3.16-4.7,3.27-7.23-1.49-2.06-5.96-2.41-13.43-1.03-7.8,1.95-14.63,4.99-20.48,9.12-5.97,3.79-11.33,8.41-16.09,13.85-4.76,5.45-8.57,11.11-11.44,16.96l3.44-7.92c1.72-3.79,3.56-8.2,5.51-13.25,.57-2.41,.6-4.13,.08-5.16-.52-1.03-1.63-1.32-3.36-.86-1.83,.46-5.16,2.87-9.98,7.23-5.28,5.39-9.95,12.05-14.03,19.96-4.07,7.92-6.85,14.17-8.34,18.76,.8-5.16,.69-9.58-.34-13.25-.58-1.49-1.84-1.9-3.79-1.21-1.83,1.26-3.67,3.16-5.51,5.68-1.83,2.52-3.61,4.96-5.34,7.31-1.72,2.36-3.76,5.71-6.11,10.07-2.36,4.36-4.42,9.52-6.2,15.49-1.78,5.97-3.13,13.88-4.04,23.75-.58,6.31-.11,13.08,1.38,20.31,1.83,7.23,3.67,12.57,5.51,16.01,1.83,3.44,3.55,5.45,5.16,6.02,1.03,2.52,2.41,6.72,4.13,12.57,.92,2.75,1.32,4.85,1.21,6.28-.12,1.44,.25,2.44,1.12,3.01,.86,.58,1.57,1.73,2.15,3.44,1.49,5.51,3.5,10.61,6.02,15.32-.46,2.53-.69,5.05-.69,7.58-5.51-15.95-9.98-28-13.43-36.14-6.65-14.8-11.87-21.57-15.66-20.31-1.83,.69-2.98,2.36-3.44,4.99-.11,1.03-.11,3.67,0,7.92,.11,4.24,.52,8.72,1.2,13.43,3.44,15.26,9.35,28,17.73,38.2l12.57,14.8c2.52,2.52,4.94,4.39,7.23,5.59,2.3,1.2,4.42,1.52,6.37,.95,2.87,4.59,6.48,9.41,10.84,14.46,2.75,4.24,5.62,6.25,8.61,6.02,1.26,2.75,3.15,4.13,5.68,4.13l2.59-.34c3.55,3.44,6.76,6.2,9.63,8.26l-3.27,9.29c-5.74,.8-11.02,1.26-15.84,1.38-4.47-3.22-10.78-7.58-18.93-13.08l-.52-10.32c-.23-3.56,.4-6.54,1.89-8.95,.34-1.95-.74-3.73-3.27-5.34-3.79-1.83-6.48-2.58-8.09-2.24-.69,.23-1.09,.86-1.21,1.89v5.68l-16.35,.34c-1.49,0-2.72,.57-3.7,1.72-.98,1.15-1,3.44-.09,6.88,.11,1.26,.06,2.35-.17,3.27-.8,3.67-2.93,8.15-6.37,13.42-.46,.8-.26,2.01,.6,3.61,.86,1.61,3.01,4.13,6.45,7.57,1.49,1.49,3.76,3.33,6.8,5.51,3.04,2.18,8.4,5.51,16.09,9.98,9.06,5.39,17.73,9.87,25.99,13.43,1.72,.12,13.2-1.44,34.42-4.65l.17,1.89c-6.08,4.59-9.98,6.48-11.7,5.68-2.41,.23-3.16,2.01-2.24,5.33,.68,1.5,1.95,2.53,3.79,3.1l2.24,2.58,6.37,3.79c2.41,.69,4.7,.69,6.88,0,2.06-.81,3.44-2.59,4.13-5.34l.68-.68,6.89-6.89,4.99-3.79c3.9-.69,6.43-2.06,7.58-4.13,.23-1.84,.74-2.98,1.55-3.44l6.03-4.13c.23-.58,2.69,.4,7.4,2.93,2.29,.57,4.3,.45,6.02-.35l4.47-2.58c4.02,.92,11.07,5.91,21.16,14.97-.11,1.03,.52,2.24,1.9,3.61,.8,1.03,2.98,1.9,6.54,2.59l2.41,4.47,2.41,.86c3.56,.12,6.88-1.15,9.99-3.79l3.78-1.2c1.95-1.49,2.81-2.98,2.59-4.47l-1.55-1.55-3.27-.86c-4.13-1.95-8.32-4.59-12.56-7.92l-2.75-2.06c12.51,2.18,28.05,3.9,46.64,5.16,2.29,.46,5.36-.72,9.21-3.52,3.84-2.81,15.46-11.11,34.85-24.87,2.87-3.1,5.17-6.65,6.88-10.67-1.72-1.61-3.24-3.9-4.56-6.88-1.32-2.98-2.15-5.51-2.5-7.57-.46-1.95-.52-3.7-.17-5.25,.34-1.55-.17-3.01-1.55-4.39-.57-.81-1.89-1.32-3.96-1.55-3.67-.34-7.8-.29-12.39,.17-2.18-.23-3.45-.74-3.79-1.55l.17-4.13c.34-1.83-.17-2.64-1.55-2.41-5.05,1.26-8.09,2.53-9.12,3.79-1.49,1.61-1.43,3.33,.17,5.17,1.26,1.15,1.89,2.47,1.89,3.96-.69,7.58-1.32,12.68-1.89,15.32-8.38,6.65-14.06,10.73-17.04,12.22-2.41,.8-7.8,.46-16.18-1.03-1.84-1.61-3.15-4.36-3.96-8.26,2.87-1.72,5.91-3.78,9.12-6.19,2.18-.34,4.02-.78,5.51-1.29,1.49-.52,2.24-1.92,2.24-4.21,1.49-.58,2.58-1.83,3.27-3.79l9.98-12.05c3.21-2.75,6.71-4.36,10.5-4.82,4.59-.34,10.56-2.92,17.9-7.75,1.15-1.26,1.15-3.04,0-5.34,2.18-1.26,5.74-4.82,10.67-10.67,1.95-2.76,2.41-5.79,1.38-9.12,4.59-5.51,7.17-9.87,7.75-13.08,.46-2.87,.4-5.97-.17-9.29,2.18-1.38,3.7-2.55,4.56-3.53,.86-.97,1.29-2.32,1.29-4.04s-.63-3.16-1.89-4.3c3.32-4.7,3.73-8.95,1.2-12.73Zm-42.51-94.49c.8-1.61,1.38-2.93,1.72-3.96,.34-1.03,1.38-1.14,3.1-.34,1.72,.8,4.47,3.85,8.26,9.12,1.83-2.06,3.61-1.32,5.34,2.24,2.07,3.22,2.87,7.06,2.41,11.53,4.25-2.29,5.74-.74,4.47,4.65,1.84,3.79,2.96,6.74,3.36,8.86,.4,2.12,.06,4.1-1.03,5.94-1.09,1.84-1.61,3.24-1.55,4.22,.06,.97,.46,.95,1.2-.09,.75-1.03,2.27-1.89,4.56-2.58,1.49,3.21,2.12,5.34,1.89,6.37,0,1.26-.77,2.64-2.32,4.13-1.55,1.49-2.44,3.27-2.66,5.33,0,1.03,.52,1.55,1.55,1.55l3.1-.86c1.61-.23,1.66,1.03,.17,3.79-1.61,2.98-2.78,5.51-3.53,7.57-.74,2.07-1.12,3.73-1.12,4.99-.12,2.64-.57,4.19-1.38,4.65,.23-3.33,.15-6.8-.26-10.41-.4-3.61-1.12-7.66-2.15-12.13,.91-.8,2.18-3.5,3.78-8.09,.8-2.29,.63-2.58-.52-.86-1.26,3.44-2.52,5.56-3.78,6.37-1.26-4.25-2.64-9.41-4.13-15.49,1.72-2.87,2.81-6.48,3.27-10.84,.12-3.67-.11-3.96-.69-.86-.68,4.36-1.95,7.74-3.79,10.15-1.49-4.82-3.1-9.35-4.82-13.6,.57-2.41,.8-5.22,.69-8.43-.12-3.22-.4-3.33-.86-.35,0,2.41-.28,4.48-.86,6.2l-3.78-9.64-2.41-5.51c-.8-1.83-1.09-1.83-.86,0l2.24,7.23c-1.72-1.95-3.33-3.38-4.82-4.3-1.49-.91-1.78-.86-.86,.17,2.53,2.18,4.71,4.53,6.54,7.06,1.49,3.67,2.98,7.46,4.47,11.36-4.36-3.67-7.4-5.74-9.12-6.2-2.18-.8-2.18-.4,0,1.21,3.1,1.95,6.77,5.39,11.02,10.32,1.38,4.02,2.69,7.92,3.96,11.71-2.18-1.26-4.82-3.79-7.91-7.58-1.38-1.38-1.44-1.15-.17,.69,2.52,3.78,5.45,7.11,8.78,9.98l2.58,10.5c-2.64-2.64-6.08-5.34-10.32-8.09-1.84-1.15-1.95-.92-.34,.69,3.67,2.64,7.51,6.54,11.53,11.7,1.15,3.22,1.67,9.12,1.55,17.73-.12,2.18-1.72,3.78-4.82,4.82l-.03,.34h0l-.66,7.92-4.3,.17h0c-2.29-3.22-4.04-5.71-5.25-7.49-1.2-1.78-2.92-4.5-5.16-8.17-2.24-3.67-3.87-6.65-4.91-8.95-1.03-2.29-1.2-4.64-.52-7.05,.69-2.41,1.26-4.25,1.72-5.51,.46-1.26,.4-1.49-.17-.69-1.38,2.41-2.36,4.76-2.93,7.06l-3.44-9.81c.34-3.9,2.41-8.89,6.19-14.97,1.15-2.06,1.03-2.24-.34-.52-3.44,4.59-5.68,9.24-6.71,13.94l-5.34-11.87c-.11-2.18,1.26-6.31,4.13-12.39,1.49-3.21,1.15-3.1-1.03,.34-1.83,3.44-3.15,6.66-3.96,9.64-1.61-6.54-3.16-12.1-4.65-16.69l-1.2-.35,.69,1.9c.92,5.74,2.18,10.73,3.79,14.97-2.18-1.95-4.65-3.55-7.4-4.82-1.49-.8-1.49-.63,0,.52,3.33,1.95,5.85,3.9,7.58,5.85,1.38,3.21,2.64,6.14,3.78,8.78-2.06-1.49-5.56-3.21-10.5-5.16-1.83-.34-1.83-.11,0,.69,6.2,2.52,10.04,4.99,11.53,7.4l3.44,9.12c-1.26,0-2.93-1.89-4.99-5.68-1.72-3.21-6.02-6.31-12.91-9.29-1.38-.57-2.01-1.77-1.89-3.61,.23-1.26,1.55-1.78,3.96-1.55-.69-1.95-1.49-3.5-2.41-4.65l-1.38-2.07c-1.84-3.78-.75-5.68,3.27-5.68-1.49-2.3-2.01-4.08-1.55-5.34-.11-2.18,.4-4.3,1.55-6.37,.69-1.38,1.21-2.76,1.55-4.13,2.18,1.26,4.16,2.32,5.94,3.19,1.77,.86,2.72,2.44,2.84,4.73l-.86,5.33c.34,1.03,1.26,.69,2.75-1.03,1.49-2.07,2.69-3.27,3.61-3.61,1.26,.57,2.47,1.61,3.61,3.1,1.15,2.18,.74,6.19-1.21,12.04l-1.89,4.82c3.9-5.17,7.05-7.63,9.46-7.4,.8,.57,1.06,1.75,.78,3.53-.29,1.78-.29,3.64,0,5.59,.28,1.95-.37,3.61-1.98,4.99-1.61,1.38-2.69,3.61-3.27,6.71,3.67-2.75,5.16-2.24,4.47,1.55l-2.07,7.4c-.57,3.55,0,5.22,1.73,4.99,1.72-.23,2.78,0,3.18,.68,.4,.69,.49,1.89,.26,3.61-1.03,2.41-1.49,3.99-1.38,4.74,.12,.75,.43,1.38,.95,1.89,.51,.52,1.63,.4,3.36-.34,1.72-.75,2.58-.23,2.58,1.55s.03,3.5,.08,5.16c.06,1.66,.6,3.3,1.64,4.9,.77,1.11,1.77,1.82,2.97,2.18l1.66-1.81,.02-.02c-1.05,.05-1.8-.27-2.33-.89-.64-.73-.94-1.9-.85-3.59,.17-3.1,.14-5.51-.09-7.23-.4-.96-.81-1.7-1.21-2.28-.11-.15-.21-.29-.32-.42-.41-.49-.82-.81-1.23-.92-.27-.07-.65-.66-1.12-1.67-.71-1.52-1.66-4.08-2.84-7.74-.72-2.22-1.51-4.8-2.4-7.8h0l2.02,.09,1.59,.07h0c2.64,9.64,4.76,14.83,6.37,15.58,1.61,.74,2.35,1.61,2.24,2.58-.06,.54,0,1.44,.19,2.66,.15,.99,.36,2.18,.67,3.62,2.06-.57,3.27-2.47,3.61-5.68,.57-2.98-.29-5.28-2.58-6.88-2.41-1.38-3.78-2.64-4.13-3.78-.69-1.95,.06-3.16,2.24-3.61,1.26-.69-1.78-3.44-9.12-8.26-3.78-2.64-4.93-4.99-3.44-7.06,.57-1.03,1.64-1.01,3.19,.08,1.55,1.09,2.55,1.35,3.01,.77,.8-1.61,.17-2.72-1.89-3.36-2.07-.63-3.04-1.35-2.93-2.15-.11-3.55-.06-5.97,.17-7.23,.23-1.26,.11-2.75-.35-4.47-1.26-1.83-3.67-1.72-7.23,.34,.8-1.95,1-3.84,.6-5.68-.4-1.84-1.29-3.61-2.66-5.34l-1.73-5.33c-.46-1.83,.58-3.1,3.1-3.79-.8-3.55-.8-6.08,0-7.57Zm-3.79,124.78c-.69,1.38-1.29,2.58-1.81,3.61-.51,1.03-1.12,2.06-1.81,3.1-.23-1.84-.97-5.11-2.24-9.81-1.03-3.21-1.32-3.15-.86,.17,.92,5.39,1.55,10.61,1.89,15.66-1.95-2.07-3.93-3.85-5.94-5.34-2.01-1.49-3.76-3.1-5.25-4.82-1.26-.8-1.49-.69-.69,.34,1.37,1.84,3.41,3.99,6.11,6.46,2.7,2.47,4.33,4.1,4.9,4.9,.58,.8,.92,1.49,1.03,2.07-1.03,1.38-2.24,2.81-3.61,4.3-.8-.46-1.26-1.23-1.38-2.32-.11-1.09-.49-1.89-1.12-2.41-.63-.52-2.55-2.09-5.77-4.73-2.87-2.53-3.79-4.82-2.75-6.88-.8-1.03-1.52-2.24-2.15-3.61-.63-1.38-.49-2.72,.43-4.05,.92-1.32,3.04-.72,6.37,1.81,.57-1.95,.57-3.79,0-5.51-.57-1.72-1.26-3.44-2.06-5.16-1.5-2.76-2.93-5.11-4.3-7.05-1.26-2.64-1.55-4.13-.86-4.47,.68-.35,1.78,.11,3.27,1.38,2.87-3.1,4.76-3.99,5.68-2.67,.92,1.32,1.67,3.53,2.24,6.63,.58,3.1,.63,6.31,.17,9.64l-.69,.68,.69,.69c.23,.69-.06,3.27-.86,7.74,0,.92,.28,1.83,.86,2.75-.23-1.38-.29-2.41-.17-3.1,.12-.58,.49-1.92,1.12-4.05s.95-3.32,.95-3.61,.03-.49-.89-.6c1.03-.35,1.2-.84,1.49-1.47,.29-.63,.34-1.26,.17-1.89-.17-.63-.29-2.44-.35-5.42-.06-2.98-.34-5.25-.86-6.8-.52-1.55-.83-2.75-.95-3.61s-.8-1.35-2.07-1.46c-1.26-.12-3.04,1.15-5.34,3.79,1.03-4.94,2.09-8.23,3.19-9.9,1.09-1.67,2.21-2.15,3.36-1.46,1.14,.69,1.89,1.43,2.24,2.24,.34,.8,.86,.66,1.55-.43,.69-1.09,1.26-1.46,1.73-1.12,.46,.34,.95,1.03,1.46,2.06,.52,1.03,.89,2.13,1.12,3.27,.23,1.15,.43,3.24,.6,6.28,.17,3.04-.2,5.08-1.12,6.11-.92,1.03-1.38,2.3-1.38,3.79,.23,5.97,.69,8.92,1.38,8.86,.69-.06,1.52-.52,2.49-1.38,.98-.86,1.83-1.18,2.58-.95,.75,.23,1.18,1.89,1.29,4.99,.12,3.1,.4,3.41,.86,.95,.46-2.47,1.32-3.7,2.58-3.7s1.49,3.32,.69,9.98c-4.47,4.02-7.68,7.34-9.64,9.98-.69-2.87-.72-4.88-.08-6.02,.63-1.15,1.2-2.44,1.72-3.87,.52-1.43,.95-2.72,1.29-3.87,.91-2.75,.75-2.98-.52-.69Zm-24.78,42.16c.46,2.64-.95,5.6-4.22,8.86-3.27,3.27-5.42,6.28-6.45,9.04-.58,2.07-2.81,4.3-6.71,6.71-.23-.69-1.15-1.77-2.75-3.27-.23-.46-.69-.63-1.38-.52-3.9,1.03-11.76,4.47-23.58,10.32-2.06,1.03-4.99,4.08-8.77,9.12h-6.72c-1.83-1.03-3.79-2.47-5.85-4.3-1.49-1.15-4.13-.74-7.92,1.2-3.55-.8-7.11-.06-10.67,2.24-2.18,.8-3.79,.97-4.82,.52l-8.43-9.12c-17.44-7.34-26.97-10.61-28.57-9.81-1.72,1.03-2.98,2.52-3.78,4.48-1.73-.8-4.3-2.99-7.74-6.54l-5.34-6.02c-3.9-4.36-5.51-8.49-4.82-12.39l.86-5.34c.11-.8,0-1.44-.34-1.89-1.26-1.38-3.5-2.21-4.65-2.44-.24-.11-.99-.36-1.84,2.75,.13,.43-1.75-2.19-3.36-4.52l8.11-3.68c2.35,2.56,4.93,5.12,7.84,7.77l-4.21,9.34,1.26,1.03c1.73,1.41,8.85,6.54,10.67,7.73l1.38,.9,7.5-6.89c3.22,1.85,6.54,3.53,9.9,5.01l-1.15,10.19,1.55,.58c2.19,.81,10.42,3.47,12.54,4.08l1.61,.46,4.99-8.91c3.77,.78,7.42,1.35,10.91,1.7l2.07,10.04,1.66,.06c1.13,.04,3.87,.06,6.6,.06s5.46-.02,6.55-.06l1.67-.06,2-9.99c3.9-.43,7.5-1,10.92-1.74l5.06,8.9,1.6-.46c2.17-.62,10.54-3.31,12.57-4.09l1.53-.59-1.15-10.12c3.42-1.55,6.72-3.25,9.84-5.06l7.55,6.86,1.36-.85c1.95-1.22,9.14-6.55,10.66-7.71l1.34-1.03-4.3-9.3c2.93-2.61,5.52-5.2,7.86-7.84l8.52,3.84c-.51,.82-.86,1.38-.88,1.43-.28,.11-4.26-2.12-5.58-.96-1.39,1.24-2.53,2.91-3.18,3.92l.69,6.37Zm-33.91,37.87c-.58-1.95,.11-3.5,2.06-4.65,1.84-1.38,3.84-1.95,6.02-1.72,.92,.11,.97,1.78,.17,4.99-.69,1.61-4.08,3.56-10.16,5.85l-5.68-.69,6.02-3.44,1.55,2.41h.86l-.86-2.75Zm7.75-9.29c-1.49-.11-3.5,.37-6.02,1.46-2.53,1.09-3.9,2.61-4.13,4.56-.46,1.38-1.09,2.24-1.89,2.58-2.52,1.38-4.82,2.58-6.88,3.61l-5.33-.34,2.75-3.79c1.38-1.61,3.15-3.04,5.34-4.3,9.75-4.82,16.23-7.63,19.45-8.43,.57-.23,1.09-.06,1.55,.52l1.38,1.72-1.89,1.21c-1.15,.91-2.58,1.32-4.3,1.2Zm-94.32-3.61c-1.83-1.03-3.32-1.38-4.47-1.03-.8,.23-1.67,1.38-2.58,3.44l-.35-.35c.46-1.95,1.18-3.16,2.15-3.61,.97-.46,2.21-.34,3.7,.34l8.26,3.96,14.12,5.33c3.44,3.67,5.56,6.19,6.37,7.57-2.87,.35-5.97,.58-9.29,.69l-7.4-5.17c-2.98-3.55-5.16-6.14-6.54-7.75-1.38-1.61-2.7-2.75-3.96-3.44Zm2.75,5.85c-1.61,.81-3.21,.81-4.82,0l-2.75-2.06c.92-2.3,2.12-3.04,3.61-2.24l2.75,2.41,1.2,1.89Zm126.2-46.42l-9.2-4.15-1.03,1.21c-2.78,3.26-5.94,6.42-9.66,9.65l-1.2,1.04,4.21,9.09c-2.08,1.56-5.57,4.12-7.65,5.57l-7.46-6.78-1.35,.82c-3.78,2.28-7.87,4.39-12.14,6.25l-1.43,.63,1.13,9.92c-2.43,.83-6.59,2.17-9.09,2.94l-4.96-8.72-1.54,.36c-4.14,.97-8.55,1.67-13.48,2.16l-1.56,.15-1.95,9.75c-2.58,.03-6.92,.03-9.52,0l-2.03-9.85-1.58-.13c-4.24-.35-8.77-1.05-13.47-2.08l-1.53-.34-4.88,8.7c-2.47-.77-6.6-2.11-9.07-2.95l1.13-10.01-1.46-.61c-4.16-1.75-8.26-3.83-12.2-6.17l-1.35-.81-7.37,6.77c-2.1-1.46-5.62-4.01-7.67-5.55l4.13-9.16-1.16-1.03c-3.72-3.32-6.89-6.47-9.7-9.63l-1.04-1.17-9.07,4.12c-.2-.27-.45-.62-.69-.94,1.43-2.37,3.09-5.93,4.18-9.91,1.77-6.45,2.59-13.57,2.51-16.29,.28-.51,.34-.65,.66-.96,.74-.57,1.53-2.47,2.28-4.99,3.45,7.73,8.1,14.97,13.89,21.4l1.8,2,23.96-34.98-13.13,44.02,37.05-25.62-26,32.72,2.45,1.13c10.79,4.97,22.4,7.45,34.02,7.45s22.75-2.38,33.38-7.14l2.45-1.1-25.81-33.48,37.72,26.04-12.92-43.18,23.1,34.82,1.83-1.98c8.45-9.14,14.51-20,18.04-31.63,2.5,4.42,5.69,9.11,5.84,11.77-2.37-2.11-7.74-2.17-7.75,2.97,0,1.56,1.27,4.2,1.8,5.33-1.1,5.48,5.22,9.49,10.38,14.65-.02,.48,.02,.81,.07,1.13-1.49,2.12-3.57,4.98-4.91,6.77Zm-167.33-62.69c-1.83,9.52-2.92,21.74-3.27,36.66l-.17,9.81-.35,13.43-2.24-2.58c-1.61-8.03-2.29-16.47-2.06-25.3,.34-6.54,1.38-13.6,3.1-21.17,2.41-9.52,4.7-14.57,6.88-15.14,1.26,3.33,2.3,9.49,3.1,18.5,.8,9.01,.8,17.12,0,24.35-1.03,9.18-2.58,15.38-4.65,18.59l-2.24,4.82c0-7.11,.09-12.91,.26-17.38,.17-4.47,.34-10.41,.52-17.81,.17-7.4,.66-15.81,1.46-25.22,.46-2.29,.35-2.81-.34-1.55Zm-9.12,23.92c-5.05,8.72-8.95,17.38-11.7,25.99-.69,2.64-1.26,5.8-1.73,9.47-.34-4.71,.43-11.27,2.33-19.71,1.89-8.43,6.22-17.18,12.99-26.25-1.15,4.71-1.78,8.21-1.9,10.5Zm.13,29.78l-.12,.13-3.62-4.61,2.75-6.88c-.11,3.68,.23,7.47,.99,11.37Zm-16.82-32.37c-1.15-1.15-2.64-6.31-4.47-15.49,.11-2.41,1.09-6.02,2.92-10.84,.34-.89,.77-1.87,1.19-2.85-.03,3.47-.02,9.17,.04,10.85l.06,1.66,10.04,2.07c.35,3.39,.91,6.99,1.7,10.91l-8.93,5.08,.48,1.61c.4,1.36,1.73,5.52,2.8,8.76-.61,1.89-1.16,3.81-1.58,5.78-1.03-1.61-1.62-3.93-2.54-6.97-.91-3.04-1.2-5.07-.86-6.11,.92-1.61,.63-3.1-.86-4.47Zm9.99,2.05c-.61,1.15-1.19,2.31-1.73,3.5-.25-.78-.48-1.5-.68-2.13l2.4-1.37Zm82.09-49.18l2.28,.67,.1-2.38,15.53-44.33,15.67,44.39,.07,2.37,2.31-.64,46.92,1.07-37.36,28.59-2.23,.79,1.32,1.99,13.46,44.99-38.69-26.71-1.45-1.87-1.48,1.86-38.63,26.72,13.45-45.11,1.35-1.97-2.24-.83-37.35-28.45,46.97-1.14Zm-1.72-4.92l-45.76-13.5c10.81-17.35,28-29.69,47.81-34.32l-2.05,47.82Zm38.08-47.64c19.88,4.91,36.96,17.46,47.48,34.92l-46.12,12.83-1.37-47.75Zm56.58,92.32c-2.8,12.02-8.45,23.31-16.66,32.84l-26.47-39.9,44.95-16.03c.48,6.46,.04,12.89-1.08,19.16-.73,.56-1.15,1.54-.99,2.97,.03,.3,.17,.65,.24,.97Zm-45.94,53.81c-18.93,7.7-40.12,7.61-58.93-.26l29.81-37.52,29.12,37.78Zm-100.19-59c-.34-1.84-.77-2.78-1.29-2.84-.52-.06-1.01,.09-1.46,.43l1.03-2.07c.57-1.49,.57-2.47,0-2.92-.25-.26-1.96-.3-3.91,.22-.26-3.85-.33-7.72,0-11.6l44.89,16.71-27.01,39.42c-5.98-7.12-10.48-15.21-13.55-23.79,1.05-5.53,1.68-11.3,1.31-13.56Zm-5.5,5.34l-1.03,1.89-.17-3.44,2.58-3.27c1.72-1.72,2.47-.8,2.24,2.75-.35,5.17-1.49,11.59-3.44,19.28-.11-6.31-.4-10.55-.86-12.74l1.55-4.3c.12-1.49-.17-1.55-.86-.17Zm1.03-11.36c1.49-.34,1.78,.34,.86,2.06l-3.27,4.82c-.23-1.95-.52-3.61-.86-4.99,1.15-.8,2.24-1.44,3.27-1.89Zm178.03,22.02c-.14,.49-.33,1.08-.51,1.68-.8-.31-1.65-.35-2.23,.06-.04,.03-1.57,1.1-2.51,1.82-.32,.24-.61-1.58-.71-2.94-.04-.68-.14-2.56,.04-4.02l5.93,3.4Zm4.2,3.68c.05-.07-.36-.14-.85-.15,.55-1.75,1.02-3.31,1.19-4.09l.34-1.52-8.75-5.02c.01-.07,.02-.13,.04-.2,.06-.11,.14-.21,.2-.32,.5-.9,.69-2.49,.66-4.39,.33-2.05,.61-4.06,.81-6.02l9.99-2.06,.11-1.6c.1-1.37,.14-5.2,.11-8.48,.35,.6,4.49,5.1,6.04,9.24-.55,2.8-.48,5.21-.49,5.35-.59,5.53-1.59,10.61-2.98,15.23-4.88-2.35-5.68,.86-6.4,4.02Zm12.61-25.46c.69-.23,2.24-.04,3.73-.04-1.61,8.72-3.46,18.27-4.95,24.24l-2.41-1.38c2.07-8.26,3.18-17.54,3.63-22.82Zm-13.17-15.64l-5.82-1.15c-.38-3.83-.96-7.5-1.74-10.93l1.53-.87c1.6,4.41,3.64,8.72,6.03,12.96Zm-35.52-73.15c.47,.55,.99,1.14,1.61,1.81,1.86,2.03,5.38,4.03,8.34,5.28-.19,.21-1,2.45-1.75,4.5-.21,.59-.39,1.27-.53,1.98l-3.09,1.44c-2.47-2.75-5.05-5.33-7.84-7.83l3.27-7.19Zm-4.33-6.14c.37,0,.73,.04,1.1,.03,.02,.27,.15,.63,.25,.97-.43-.32-.87-.65-1.34-1Zm16-25.43c.12-1.61,1.18-2.09,3.18-1.47,2.01,.64,3.87,4.91,5.59,12.82l2.75,1.03c.92-2.18,1.67-3.27,2.24-3.27,.92,0,1.83,1.89,2.75,5.68,2.3,2.07,3.39,5.45,3.27,10.16-1.49,1.95-2.29,4.36-2.41,7.23l-1.38-3.1c-.8-3.44-1.15-7.05-1.03-10.84-.11-1.61-.29-1.61-.52,0-.34,3.33-.4,6.14-.17,8.43-3.1-4.01-6.42-7.63-9.98-10.84-.69-2.53-.91-5.39-.69-8.6-.35-2.76-.63-3.39-.86-1.89-.23,3.44-.11,6.66,.34,9.64-2.64-2.64-5.74-6.48-9.29-11.53-.91-1.61-1.32-1.95-1.2-1.03,2.18,4.13,4.47,7.57,6.88,10.32,2.41,2.75,4.36,4.93,5.85,6.54-2.98-.92-5.57-1.52-7.74-1.81-2.18-.29-4.19-.89-6.02-1.81-1.72-.34-1.67,.06,.17,1.21,1.03,.69,3.13,1.32,6.28,1.89,3.16,.57,6.11,1.55,8.87,2.92,1.49,.92,3.5,3.27,6.02,7.06l2.07,4.65c-3.21-1.73-6.77-2.93-10.67-3.61-3.9-.69-6.19-1.32-6.88-1.89-2.98-1.26-3.33-1.15-1.03,.34,.69,.69,3.13,1.46,7.31,2.32,4.19,.86,8.23,2.5,12.13,4.9l.34,1.03c-.8,.92-1.09,2.18-.86,3.79l1.2,3.44c-1.03-1.26-2.47-.69-4.3,1.72,.69-1.49,.52-2.87-.52-4.13-1.61-2.41-5.51-4.99-11.7-7.75l-1.03,1.89c-5.05-1.61-8.21-4.59-9.47-8.95-.11-1.38,1.09-2.15,3.61-2.33,2.52-.17,2.92-.89,1.2-2.15-3.33-1.15-6.08-3.1-8.26-5.85-1.49-1.95-1.49-3.33,0-4.13l2.59-.69,1.2-1.55-1.55-6.02c-.46-3.1,.4-5.28,2.58-6.54,3.1-.46,6.13,.46,9.12,2.75Zm-33.73,4.82l.34-3.95-3.27,.68c-3.1,1.03-6.2,.12-9.29-2.75-2.06,.35-2.92-.46-2.58-2.41,.8-1.73,.57-2.64-.69-2.75l-4.99,.52c-3.21-.46-5.33-1.38-6.37-2.75-.69-1.15-.23-2.58,1.38-4.3-3.1-1.26-5.02-2.64-5.77-4.13-.74-1.49-.28-2.7,1.38-3.61,1.67-.92,4.74-1.09,9.21-.52-1.03-1.26-1.32-2.58-.86-3.96,.12-1.38,3.1-.63,8.95,2.24l3.44,2.06c.91-1.72,2.47-2.24,4.64-1.55,2.64,1.26,5.11,2.78,7.4,4.56,2.3,1.78,4.88,4.33,7.75,7.66,2.41-1.61,4.13-1.26,5.16,1.03l.52,4.13c-2.52-2.41-5.62-2.58-9.29-.52l-2.41-1.03c-3.33-4.02-5.33-7.05-6.02-9.12-.69-2.64-1.03-2.87-1.03-.69,.11,2.29,1.49,5.22,4.13,8.78-5.05-1.61-8.75-3.67-11.1-6.19-2.36-2.53-4.16-4.65-5.42-6.37-1.26-2.07-1.78-2.07-1.55,0,1.38,2.52,3.27,4.88,5.68,7.05-1.83-.8-3.56-1.61-5.16-2.41-4.02-1.72-7.34-2.64-9.98-2.75-1.26,0-1.32,.23-.17,.69,4.48,1.15,7.72,2.21,9.73,3.19,2.01,.97,3.36,1.86,4.04,2.66-3.21,1.38-6.54,2.01-9.98,1.9-2.18-.12-3.16-.06-2.92,.17,.23,.23,.92,.46,2.06,.68,4.13,.46,8.32,0,12.57-1.38,3.1,1.61,6.71,3.16,10.84,4.65-2.53,.58-4.99,1.72-7.4,3.44-.92,1.15-.46,1.2,1.38,.17,1.83-1.38,4.59-2.24,8.26-2.58l2.92,1.2c-.23,3.1,.52,6.25,2.24,9.47l-1.89,.69-5.85-1.9Zm13.42,14.63l1.16-1.95c-3.74-1.71-7.18-3.73-7.36-8.37l3.1-1.21c1.38-1.61,1.41-2.81,.08-3.61-1.32-.8-2.04-2.92-2.15-6.37,1.26-2.75,4.36-2.75,9.29,0,2.18-4.24,4.82-5.51,7.92-3.78-3.33,0-5.28,1.43-5.85,4.3-.35,1.84-.35,4.08,0,6.71-1.15-1.61-2.52-2.98-4.13-4.13-3.1-1.61-3.67-1.43-1.73,.52,1.95,1.95,3.67,3.96,5.17,6.03-2.53,2.07-5.28,2.98-8.26,2.75-1.03,.46-.86,.74,.52,.86,1.38,.35,2.98,.23,4.82-.34-.23,1.83,.38,4.88,1.18,6.72,1.09,1.56,2.54,2.95,4.25,4.21-.8,.23-1.46,.66-1.81,1.46-6.43,.11-7.72-.04-8.08-1.03-.24-.76-.38-1.46,1.88-2.75Zm-120.48,5.69l7.45,6.77,1.35-.82c3.98-2.4,8.05-4.47,12.11-6.17l1.47-.61-1.13-9.96c2.41-.85,6.56-2.2,9.01-2.94l5.06,8.77,1.55-.39c4.1-1.02,8.61-1.75,13.42-2.15l1.59-.13,1.96-9.8c2.56-.06,6.95-.06,9.51,0l2.04,9.81,1.58,.13c4.47,.36,8.86,1.07,13.43,2.16l1.56,.37,4.91-8.76c2.48,.74,6.67,2.09,9.06,2.94l-1.13,9.97,1.46,.61c4.15,1.75,8.26,3.82,12.19,6.17l1.36,.82,7.32-6.79c2.1,1.44,5.64,4.04,7.72,5.63l-4.14,9.11,1.19,1.04c3.51,3.06,6.68,6.22,9.68,9.67l1.05,1.2,4.15-1.94c.19,.79,.48,1.52,.94,2.1-.38-.19-2.03,.96-2.61,1.87-2.14,3.31,2.5,8.06,3.24,9.7-.36-.04-1.64,.61-2.32,1.09-1.6,1.14-1.05,6.84,3.49,7.82,1.13,.55,6.34,3.58,8.95,6.22,.51,.52,1.97,3.27,4.05,6,.9,1.18,1.89,2.96,3.66,3.65l-3.93,2.24,.39,1.56c1.03,4.12,1.75,8.64,2.15,13.42l.13,1.59,9.89,1.96c.06,2.56,.06,6.94,0,9.5l-8.18,1.69c-.19-.75-.4-1.49-.62-2.18-.54-1.7-1.65-2.51-2.64-2.89-.39-.16-2.97-.01-3.45,1.96-.14-1.12-1.95-1.79-3.29-2.11-3.76-.89-7.79,6.34-7.34,13.05-.22-.18-.46-.3-.69-.44,1.27-7.38,1.63-14.94,.81-22.54l-.29-2.67-39.86,14.21,36.45-27.89-44.98-1.03,40.17-11.17-1.31-2.35c-11.41-20.53-31.2-35.09-54.3-39.94l-2.63-.55,1.21,42.36-15.28-43.31-14.9,42.51,1.78-41.69-2.64,.52c-23,4.52-42.93,18.83-54.69,39.24l-1.34,2.33,40.6,11.98-45.86,1.11,35.84,27.3-39.14-14.57-.32,2.68c-.29,2.46-.41,4.91-.47,7.36-.11-.27-.21-.51-.3-.7-.24-.53-.99,.04-1.01,.05-4.82,2.92-6.96,9.31-8.67,17.23l-1.38,1.27c-.75,.93-1.47,1.89-2.18,2.86-.67-3.57-1.19-6.96-1.46-10.07l-.13-1.58-9.84-2.03c-.03-2.59-.03-6.94,0-9.53l9.85-2.03,.13-1.58c.35-4.28,1.03-8.68,2.09-13.47l.34-1.54-2.19-1.23c7.79-7.34,21.66-26.63,24.93-40.73,2.48-2.69,5.04-5.26,7.69-7.56l1.2-1.04-3.38-7.44c.68-1.23,1.38-2.5,2.07-3.79,1.71-1.26,3.55-2.6,4.85-3.52Zm-49.8,80.04c1.59-3.25,3.49-6.79,5.72-10.6,.22-.3,2-2.23,2.55-2.37,.13-.03,.32-.16,.47-.22l1.09,.61c-.79,3.81-1.35,7.41-1.7,10.91l-8.12,1.67Zm37.92-64.73c-.13,.58,.88-.96,2.37-3.48l.81,1.78c-1.05,.94-2.08,1.94-3.1,2.94-.03-.41,0-.86-.07-1.25Zm55.6-54.57c0,2.18-1.32,4.59-3.96,7.23-4.02,3.67-9.04,7.05-15.06,10.16-6.02,3.1-13.85,6.77-23.49,11.02v-1.03c11.7-8.72,22.55-15.83,32.53-21.35,2.64-1.61,2.41-2.06-.68-1.38-3.44,1.73-7.23,3.85-11.36,6.37-6.88,4.47-13.59,8.89-20.13,13.25l.17-2.07c13.08-11.47,23.81-18.87,32.19-22.2,4.13-.92,7.4-.92,9.81,0Zm-38.81,4.13c6.25-5.17,13.74-9.18,22.46-12.05,4.24-1.15,7.92-1.67,11.02-1.55,1.49,.35,1.89,1.21,1.2,2.58l-3.78,4.99c-3.33,.46-7.89,2.35-13.68,5.68-5.8,3.33-12.02,7.75-18.68,13.25l-2.41,1.55c-1.26-.92-3.56-.52-6.88,1.2,10.55-8.83,19.74-15.54,27.53-20.14,5.05-2.52,7.98-4.3,8.78-5.33-2.52,.69-6.08,2.26-10.67,4.73-4.59,2.47-12.16,7.6-22.72,15.41l-10.15,9.12c5.74-7.8,11.73-14.29,17.99-19.45Zm-13.54,21.68c.98-.89,1.94-1.8,2.95-2.58,.61-.34,1.07-.51,1.55-.72,.97-.41,1.78-.64,2.24-.49,.1,.24,.12,.59,.18,.87,.24,1.02,.33,2.23,.16,3.76,0,.04,0,.07,0,.11-.16,1.36-.94,3.83-2.26,7.22-.62,1.61-1.33,3.36-2.22,5.43l-6.37,12.39c-3.08,.39-6.04,1.55-8.9,3.35-1.3,.82-2.58,1.73-3.84,2.85h0c1.03-1.78,2.17-3.69,3.42-5.72,1.25-2.04,2.6-4.2,4.07-6.5,2.48-3.88,6.2-9.51,11.01-16.68,.88-1.3,1.72-2.56,2.67-3.97,.26-.43,.45-.78,.58-1.05,.13-.27,.2-.46,.21-.57,0-.04-.04,0-.06-.03-.06-.09-.25,0-.65,.35-.97,.86-3.58,4.16-7.83,9.9-.8,1.08-1.67,2.31-2.58,3.62-3.88,5.62-8.7,13.28-14.46,23.06-1.95,2.98-6.77,10.38-14.46,22.2-.58,.58-2.3,.92-5.17,1.03l-5.68,16.69c.46,.69,1.89,.46,4.3-.69-1.15,2.18-2.87,3.39-5.17,3.61l-1.38-1.03-.69-2.58,.17-1.55,1.38,.17,6.03-15.32-3.61-4.47,.86-2.58c1.15,2.41,2.24,3.73,3.27,3.96,1.61-3.1,3.93-7.31,6.97-12.65,3.04-5.34,6.63-10.76,10.76-16.27l-.17-1.38c0-.8,.4-.86,1.2-.17l8.6-12.39-7.05,12.22c1.14,1.26,.63,2.12-1.55,2.58-7.34,9.75-12.96,19.45-16.87,29.09l1.72,.52c1.03,.46,2.01,0,2.93-1.38l10.5-18.59,9.98-18.59c3.92-6.98,8.35-12.61,13.22-17.04Zm-34.56,59.21c-.19,.35-.32,.65-.5,1h-.08l-.25,.66c-1.97,3.79-3.58,7.3-4.68,10.39l-1.38-.17,3.61-11.19,3.27-.69Zm-7.75,18.76l-3.44,9.29-2.41,8.09,.86-6.88,1.2-4.99,1.03-4.99,2.75-.52Zm-5.68-8.26c.8-5.16,1.9-9.87,3.27-14.12l1.38,1.73-4.65,12.39Zm8.78-30.12c4.59-7.46,10.1-18.01,16.52-31.67,1.95-4.02,4.82-8.55,8.61-13.6,1.14-2.64,.52-2.58-1.89,.17-5.62,7-12.16,18.07-19.62,33.22l3.27-8.26c.57-1.84,2.41-6,5.51-12.48,3.1-6.48,6.13-11.62,9.12-15.4,2.98-3.79,5.05-6.25,6.19-7.4,4.13-3.56,6.54-5.22,7.23-4.99,.58,.46,.74,1.2,.52,2.24l-8.43,21.68c-5.51,10.67-12.74,21.8-21.69,33.39-3.79,4.13-6.14,6.77-7.06,7.92-.92,1.15-1.66,2.24-2.24,3.27l.69-2.93,3.27-5.16Zm-6.71,93.97c0-2.3-.26-3.73-.78-4.3-.52-.57-1.03-1.63-1.55-3.18-.52-1.55-1.29-3.84-2.33-6.88-1.03-3.04-1.78-5.77-2.24-8.18h-.01c-.18-.08-.33-.2-.5-.29-2.09-1.04-3.79-2.52-5.05-4.49-.43-.68-.82-1.41-1.15-2.2-1.38-3.27-2.66-7.54-3.87-12.82-.18-.78-.31-1.64-.46-2.47-.84-4.75-1.2-10.21-1.01-16.46,.13-1.94,.3-3.86,.5-5.77,.47-4.62,1.13-9.18,2-13.67,.39-2.02,.82-4.03,1.29-6.03,2.26-9.03,6.39-17.7,12.35-26.02,1.61-2.25,3.33-4.48,5.21-6.68,.3-.33,.55-.56,.82-.81,1.46-1.41,2.41-1.7,2.8-.73,.14,1.39,.15,2.75,.2,4.12,.11,3.13,.08,6.22-.28,9.22-.18,1.53-.53,3.19-.87,4.84-.23,1.15-.48,2.31-.79,3.52-.49,1.95-1.01,3.91-1.7,6.02-2.13,7.1-3.84,13.05-5.17,17.94-1.46,5.39-2.44,9.47-2.92,12.18-1.36,4.8-2.83,10.78-4.4,17.86-.42,1.9-.84,3.83-1.28,5.89h0c-.91-4.7-.37-14.6,1.64-29.69,2.01-15.09,4.56-25.85,7.66-32.27,.68-1.53,1.03-2.43,1.06-2.78,.01-.12,0-.2-.08-.17-.17,.07-.55,.54-1.15,1.39-3.44,5.86-6.16,13.11-8.19,21.72-2.1,8.91-3.45,19.27-4.03,31.12-.23,8.15,.23,14.03,1.38,17.64,.83,2.62,1.76,4.42,2.77,5.44,.38,.39,.78,.68,1.19,.84,.12,.07,.26,.05,.38,.09,.29,.11,.59,.22,.89,.2,.42-.03,.86-.18,1.31-.46,.69-4.36,1.15-7.89,1.38-10.59,.23-2.7,.55-5.85,.94-9.46,.4-3.61,1.12-6.63,2.15-9.04l.69,.69c-1.15,5.28-1.75,8.95-1.81,11.02-.06,2.06-.2,4.13-.43,6.19-.23,2.07-.46,6.02-.69,11.87,.62-2.1,1.26-4.14,1.93-6.15,.82-2.49,1.66-4.92,2.55-7.26l1.86-5.39,3.48-10.1,4.49-10.66,2.39-5.69c1.89-3.67,4.16-7.6,6.8-11.79,2.64-4.19,5.65-8.63,9.04-13.34,1.51-1.76,2.93-3.12,4.31-4.27,2.29-1.92,4.43-3.09,6.36-3.3h0c.2,.29,.35,.65,.45,1.09,.2,.85,.19,2,0,3.42-.1,.77-.25,1.61-.46,2.55-.3,1.34-.77,2.73-1.24,4.12-.33,.97-.7,1.96-1.11,2.96-.55,1.35-1.09,2.7-1.79,4.1h0c-.04,.07-.08,.14-.11,.21,0,0,0,0,0,0-1.79,3.3-3.57,6.37-5.34,9.23-.04,.06-.07,.12-.11,.18-.81,1.31-1.61,2.55-2.42,3.77-.11,.17-.22,.35-.33,.52-.68,1.03-1.36,1.99-2.04,2.95-.23,.32-.46,.67-.69,.99-.55,.76-1.1,1.46-1.64,2.17-.35,.46-.71,.95-1.06,1.4-.42,.53-.84,1.01-1.26,1.51-.47,.57-.94,1.16-1.41,1.69-.36,.41-.72,.77-1.08,1.17-.52,.57-1.04,1.15-1.56,1.68-.88,.89-1.75,1.72-2.63,2.49l11.88-19.28,5.68-10.32c1.63-2.92,2.27-4.43,1.9-4.52-.12-.03-.35,.1-.7,.39-11.59,17.44-18.53,28.4-20.82,32.87-2.3,4.47-4.53,8.66-6.71,12.57-2.18,3.9-3.61,6.94-4.3,9.12-.69,2.18-2.12,6.08-4.3,11.7,0,1.03,.69,4.02,2.07,8.95,1.37,4.94,2.55,7.83,3.52,8.69,.97,.86,1.06,1.8,.26,2.84-.34,.92-.12,2.64,.69,5.16,.57,2.76,1.89,6.54,3.96,11.36l-.52,1.72c-2.18-4.82-4.13-10.1-5.85-15.83Zm-5.68-51.12c-1.15,9.18-2.12,16.35-2.92,21.51l-.69-1.38c-.69-1.03,.52-7.74,3.61-20.14Zm54.56,129.25l-2.24-2.93c-.68-.8-1.63-.97-2.84-.52-1.2,.46-2.15-.23-2.84-2.06-3.1,1.83-6.25,1.15-9.46-2.07l-5.68-6.88-5.33-9.12-1.89-1.38c-1.09,.7-2.3,.94-3.62,.75-2.24-.29-4.82-1.79-7.4-4.53-.2-.18-.43-.44-.68-.76-1.35-1.69-3.5-5.31-6.42-10.78-.99-1.86-2.06-3.9-3.23-6.19-5.85-11.13-10.12-19.94-12.84-26.5-.53-1.28-1.03-2.51-1.44-3.61-.24-.74-.44-1.35-.66-2.02-.86-2.63-1.56-4.71-2.09-6.23-.36-1.03-.66-1.9-.86-2.43-.29-.74-.49-1.12-.6-1.14-.05,0-.08,.08-.1,.23,0,.01,0,0,0,.02-.01,.18,0,.44,.02,.8,.06,.69,.29,1.82,.7,3.34,.01,.05,.02,.09,.04,.14,0,.04,.03,.09,.03,.12,.21,.78,.46,1.64,.75,2.62,.31,1.03,.66,2.16,1.07,3.41,1.34,4.16,3.69,10.03,6.94,17.43,.65,1.47,1.28,2.92,2,4.52,.58,1.2,1.16,2.35,1.74,3.52,1.52,3.06,3.03,6.01,4.53,8.85,1.65,3.12,3.29,6.12,4.92,8.97v0c-3.19-3.44-5.93-6.78-8.45-10.06-4.2-5.47-7.6-10.73-9.96-15.75-3.44-7.18-5.78-13.87-7.14-20.1-.14-.64-.32-1.3-.44-1.93-.21-.89-.38-2.01-.53-3.25-.25-2.12-.43-4.7-.5-7.85-.02-.9-.03-1.64-.04-2.4-.03-1.98-.01-3.45,.04-4.44,.04-.74,.09-1.31,.17-1.51,.35-1.03,.78-1.67,1.29-2,.34-.22,.71-.33,1.12-.24,.58,0,1.83,1.24,3.68,3.57,.34,.43,.67,.83,1.05,1.34,2.2,2.91,5.1,9.05,8.69,18.4,.45,1.17,.91,2.36,1.38,3.63,3.39,9.12,5.72,15.69,7.02,19.79,.33,1.03,.61,1.95,.81,2.67,.97,3.56,1.95,6.65,2.93,9.29,.97,2.64,2.15,5.33,3.52,8.09,.6,1.19,1.19,2.24,1.79,3.21,1.34,2.18,2.67,3.79,4.01,4.87,.13,.11,.26,.25,.4,.35,.68,.48,1.32,.86,1.91,1.15,1.77,.85,3.13,.81,4.11-.13h0l-6.3-11.26c-.57-.25-1.21-.3-1.95-.09-.13,0-.2-.04-.32-.04,0,0,0,.05-.01,.05-.26,0-.45-.1-.68-.14-.26-.05-.55-.06-.76-.16-.21-.09-.35-.26-.51-.39-.19-.15-.4-.27-.54-.47-.14-.21-.2-.51-.28-.79-.07-.22-.18-.4-.22-.66-.07-.59-.06-1.26,.05-2.05,.08-.74,.26-1.74,.47-2.87,.38-2.01,.96-4.56,1.77-7.8,2.53-8.49,6.14-16.93,10.84-25.3h0c-.57,3.68-.86,6.77-.86,9.3-2.36,5.29-4.33,9.96-5.98,14.12-1.32,3.32-2.45,6.35-3.31,8.95-.47,1.91-.68,3.31-.7,4.34-.01,.65,.04,1.16,.2,1.46,.15,.28,.37,.42,.67,.39l1.38-.69-1.03-2.41,.69-1.89,2.06,3.61,1.21-.86,1.03,1.55-1.03,1.55,7.75,11.19,1.89-1.55,1.38,1.55c-2.3,2.29-3.22,3.78-2.76,4.47,2.06,3.79,3.96,6.83,5.68,9.12,3.44,5.05,6.25,6.48,8.43,4.3,.69-.57,1.55-.46,2.58,.35,1.03,.8,2.18,2.53,3.44,5.16l-.17-3.96-6.37-6.02-3.61-7.23c-2.98-4.24-5.11-7.52-6.37-9.81-1.26-2.3-2.84-5.05-4.73-8.26-1.9-3.21-4.22-6.83-6.97-10.85l.52-1.89,5.51,6.71c4.94,6.31,8.41,11.1,10.41,14.37,2.01,3.27,3.18,4.04,3.53,2.32l1.03-3.27,1.55,.86-1.03,6.71-.34,2.06c-.12,1.61,.2,2.55,.94,2.84,.75,.28,1.41,1.35,1.98,3.18,.34,1.15,2.15,3.53,5.42,7.14,3.27,3.61,6.71,6.66,10.33,9.12,3.61,2.47,6.6,4.47,8.95,6.02,2.35,1.55,3.47,3.07,3.36,4.56l3.27,.69-.86-4.13,2.06-.52c1.03,.68,1.89,1.95,2.59,3.79,2.98,2.29,5.56,4.13,7.74,5.51l-7.58,1.38-12.9-7.75-11.87-7.92Zm-31.67-40.27l1.03-1.03,4.82,8.09-.52,1.03-5.33-8.09Zm8.09,16.18l1.9-2.41,4.47,6.37,2.59,4.65,.86,2.58c-1.61-.8-2.98-2.01-4.13-3.61l-2.76-3.61-2.93-3.96Zm39.76,41.48l-10.32,1.72,2.41-6.88,7.92,5.17Zm24.61,32.18c-4.82,4.71-10.27,9.18-16.35,13.43l-2.07-.69c3.56-2.18,8.61-5.73,15.15-10.67l2.92-3.27-1.55-.17c-2.18,1.95-4.68,3.93-7.48,5.94-2.81,2.01-6.06,3.93-9.72,5.77l-4.99,2.4,.86,1.03,3.78,.52c2.18,1.38,3.1,2.76,2.76,4.13-1.15,1.72-2.98,1.95-5.51,.69l-4.13-2.23c-1.49-1.49-2.98-2.53-4.47-3.1l-1.72-1.38,.69-1.72,5.17,2.06h1.55l-.86-3.09,6.2-3.79c1.61-.57,2.3-1.55,2.07-2.92l.51-3.1c2.64,.57,5.51,.14,8.61-1.29,3.1-1.44,6.02-2.27,8.78-2.49,1.72,1.15,1.67,2.47-.17,3.96Zm-4.13-7.14c-5.97,1.32-11.36,2.49-16.18,3.53-12.05,2.18-23.92,3.96-35.63,5.33-2.98-.8-11.59-5.22-25.82-13.25-10.1-6.08-17.16-11.01-21.17-14.8-4.59-4.94-6.43-7.92-5.51-8.95,2.98-4.93,4.99-9.29,6.02-13.08,.46-1.61,.57-2.87,.35-3.79-1.26-3.9-.35-5.91,2.75-6.02,7.69-.46,12.85-.58,15.49-.35,1.15,.11,1.89-.23,2.24-1.03l2.58-5.17-1.55-.69-2.24,3.44-.17-3.96c0-.58,.34-.74,1.03-.52,4.82,1.26,7.05,2.87,6.71,4.82-1.49,2.53-2.18,5.39-2.07,8.61l.17,8.95c-6.08-4.02-12.62-7.58-19.62-10.67,.8-.11,1.72-.2,2.75-.26,1.03-.06,1.72-.43,2.06-1.12,.35-.68-.29-1.09-1.89-1.2-3.56,0-5.85,.28-6.88,.86-.8,.92-.63,1.89,.52,2.92,8.26,4.13,15.54,8.26,21.86,12.39,9.98,6.31,17.72,11.48,23.23,15.49,5.39-.12,12.96-.86,22.72-2.24l14.8-2.75c6.08-1.15,12.39-2.12,18.93-2.92,2.41-.35,5.45-.58,9.12-.69,3.67-.11,7.06-.4,10.16-.86,2.98,5.62,4.82,10.56,5.51,14.8,.34,2.18,.06,3.38-.86,3.61-13.65,5.05-23.47,8.23-29.43,9.55Zm44.06-5.59l-.86-2.75-4.65,5.85-3.79,2.41c-1.72,1.49-3.5,2.06-5.33,1.72l-6.02-2.93,3.1-1.55,.86,.69c-.57,1.72,.11,1.49,2.07-.69l5.33-5.17c.34-3.1-.4-7.08-2.24-11.96-1.83-4.88-3.21-7.94-4.13-9.21-.23-1.03-2.87-1.26-7.92-.69,2.98-1.49,6.48-1.61,10.5-.34l4.13,1.72,2.25-.96-.32-.3-3.82-1.83,2.06,.17,1.75,1.66,.49,.23-.16,.07,1.2,1.14c5.85,6.31,9.15,10.61,9.9,12.91,.74,2.29,.83,4.53,.26,6.71-2.18,2.87-3.73,3.9-4.65,3.1Zm41.13,24.78l1.89,.34-.68,.86-4.48,1.38c-1.95,1.72-4.24,2.87-6.88,3.44l-2.93-.52-.69-2.06c.69-1.03,1.58-1.78,2.67-2.24,1.09-.46,2.5-.86,4.22-1.2l4.13,.69,2.75-.69Zm-6.37-1.9c-3.1,0-5.05,.35-5.85,1.03h-2.41c-3.33-2.3-5.97-4.42-7.92-6.37l-8.09-6.37c1.49-.81,4.7-.52,9.64,.86l14.63,10.84Zm24.61-35.02c3.33,.29,5.85,.14,7.57-.43,3.1-1.26,9.46-5.97,19.1-14.11,9.29-7,17.16-11.88,23.58-14.63,1.95-1.15,2.03-1.98,.26-2.5-1.78-.51-4.45-.77-8-.77-1.15,.91-1.03,1.66,.34,2.24,1.61-.11,2.76,0,3.44,.34-7.69,4.02-14.11,8.03-19.27,12.05,.46-2.64,.86-7.17,1.2-13.6-.12-2.06-.8-3.9-2.07-5.51-.8-1.14,.29-2.18,3.27-3.1l2.41-.69v3.78l-3.27-.86,.34,1.73c.69,1.26,1.95,2.12,3.79,2.58l9.3,.52,4.13-.17c4.82,.11,7.17,1.29,7.05,3.53-.11,2.24,.06,4.33,.52,6.28,.8,4.93,2.75,9.64,5.85,14.11-.69,2.06-2.18,4.47-4.47,7.23l-8.95,5.85c-7.69,5.51-18.13,12.68-31.33,21.51-9.41,.23-20.71-.52-33.9-2.24-9.52-1.26-20.49-3.67-32.87-7.23l-2.75-.69,1.2-1.2c1.95-2.52,3.01-4.21,3.18-5.07,.17-.86-.12-2.81-.86-5.86-.75-3.04-2.9-6.63-6.45-10.76v-1.03l2.58-.35c7.11,.46,13.46,1.38,19.02,2.75,5.57,1.38,12.19,2.64,19.88,3.79,7.46,1.38,12.85,2.21,16.18,2.49Zm-12.91-4.56c-2.98-.46-7.8-1.32-14.46-2.59l6.02-2.06c3.22,.69,5.05,0,5.51-2.07,.46,2.41,1.44,4.65,2.93,6.71Zm35.97-50.78c-2.3,2.53-3.04,5.17-2.24,7.92-3.22,1.72-6.31,4.25-9.29,7.57-2.98,3.33-5.25,6.14-6.8,8.44-1.55,2.3-3.18,3.67-4.9,4.13-1.95,.92-4.19,.46-6.72-1.38l-.69,4.3-11.53,7.06-5.68,2.41c.46-1.15,.75-3.1,.86-5.85l2.06-1.72c7.92-4.13,12.51-7.91,13.77-11.36,1.61-2.87,3.33-5.25,5.17-7.14,1.83-1.89,3.15-4.21,3.96-6.97l.17-4.13-.52-4.3c1.83,2.06,3.5,2.52,4.99,1.38,2.41-4.48,4.99-8.63,7.75-12.48,2.75-3.84,5.68-7.43,8.78-10.76,3.1-3.33,5.74-6.13,7.91-8.43l-.17,4.3c-6.88,8.5-11.19,14.29-12.91,17.38-5.85,8.84-9.81,15.84-11.87,21-1.26,2.87-3.1,5.17-5.51,6.88-1.83,.92-3.21,1.89-4.13,2.93-.8,1.49-.34,1.89,1.38,1.2,1.15-1.14,2.41-2.01,3.79-2.58,2.52-1.26,7.92-7.23,16.18-17.9l-.17-6.02,1.89-3.27c-.12,3.32,.17,5.16,.86,5.5,.69,.35,1.63-.6,2.84-2.84,1.2-2.24,4.16-8.41,8.86-18.5-1.03,3.1-1.09,5.8-.17,8.09-2.75,1.95-3.5,5.28-2.24,9.99l-5.68,5.16Zm38.64-38.21c-.4,2.87-1.35,5.34-2.84,7.4-4.71,5.39-6.65,8.6-5.85,9.64,1.26,2.18,1.03,4.65-.69,7.4-2.53,3.1-5.85,6.54-9.98,10.32,1.15,2.3,.29,4.24-2.58,5.85-3.33,1.84-7,3.44-11.02,4.82,7.46-5.62,12.04-11.65,13.77-18.07,2.41-2.18,4.53-3.61,6.37-4.3,1.61-1.03,1.89-1.49,.86-1.38-2.07,.8-4.24,2.06-6.54,3.79,2.18-4.36,3.73-9.06,4.65-14.12,4.47-4.36,7.28-7.8,8.43-10.32,1.61-2.41,1.67-2.92,.17-1.55-1.72,2.87-4.36,5.91-7.92,9.12,1.61-4.93,3.04-10.44,4.3-16.52,.57-3.56,.4-4.19-.52-1.89l-1.72,6.02c-.8-2.41-1.72-4.24-2.75-5.51l2.24,7.23c-.46,2.87-1.55,6.94-3.27,12.22-1.61-4.59-3.73-8.72-6.37-12.39-2.41-2.98-2.81-3.04-1.2-.17,2.64,3.78,4.82,8.77,6.54,14.97-1.38,5.51-2.98,10.1-4.82,13.77-1.38-2.07-2.81-3.5-4.3-4.31-1.15-.57-1.15-.23,0,1.03,1.49,1.49,2.7,2.98,3.61,4.47-1.38,3.32-3.18,6.25-5.42,8.78-2.24,2.53-4.45,4.65-6.63,6.37,2.75-4.24,3.67-8.95,2.75-14.11,0-.92,.72-1.66,2.15-2.24,1.43-.58,1.92-1.21,1.46-1.89-1.26-2.53-1.89-4.53-1.89-6.03,.92-.46,2.3-.46,4.13,0,1.49-1.03,1.35-2.49-.43-4.39-1.78-1.89-2.9-4.62-3.36-8.17,0-2.07,1.38-2.81,4.13-2.24,1.26-.12,1.38-1.61,.34-4.47l-2.92-3.96c-2.07-4.59-1.21-6.25,2.58-4.99l4.47,2.75c2.98,1.15,4.42-.86,4.3-6.02,0-1.15,.89-1.41,2.67-.78,1.77,.63,3.41-.72,4.9-4.04,1.49-1.61,2.64-.12,3.44,4.47-.34,6.08,1.15,8.95,4.47,8.6,.57,.34,.66,1.95,.26,4.82Zm5.17-14.8c.17,1.15-.09,2.09-.78,2.84-.69,.75-2.01,1.41-3.96,1.98l-1.89-3.44c.11-2.75-.81-5.39-2.76-7.92,.8-.69,2.06-1.38,3.78-2.06,1.26-.58,1.03-.75-.68-.52-1.83,.34-3.27,.8-4.3,1.38h-.34c1.03-3.67,2.69-7.17,4.99-10.5,.58-1.49,.23-1.44-1.03,.17-1.95,2.75-3.67,5.68-5.16,8.78-.69-.69-1.21-1.95-1.55-3.79-.46-2.18-.8-2.24-1.03-.17,.35,2.64,.86,4.53,1.55,5.68-2.53,3.9-4.53,5.45-6.03,4.65,.92-5.51,2.12-11.3,3.61-17.38,2.64-2.64,4.94-3.5,6.88-2.58,2.75-2.18,5.11-2.58,7.06-1.21,1.03,1.73,1.49,3.42,1.38,5.08-.12,1.66-.69,3.53-1.72,5.59,2.18,0,3.33,.86,3.44,2.58-.92,3.9-2.75,6.71-5.51,8.44,2.52,.46,3.87,1.26,4.05,2.41Z"/><polygon class="cls-3" points="63.45 261.1 63.45 261.1 65.63 265.55 63.45 261.1 63.45 261.1"/></g><path class="cls-3" d="M64.67,324.54c.02,.39,.42,.37,.83,.73,1.6,1.08,3.15,.61,4.23-1.39,1.46-2.02,.97-3.55-.64-4.62q-.84-.75-1.55,.47l-2.88,4.81Zm-22.72-15.21c2.06,1.45,3.27,2.55,5.47-.29,1.09-1.61,.98-3.54-.23-4.27-.4-.36-1.2-.71-1.2-.71-.41,.02-.38,.41-.78,.44l-3.27,4.82Zm32.65,16.05c.3-1.57,.61-2.74-.59-3.85l.36-.42c.78,.36,1.63,1.09,2.42,1.44,.81,.34,1.62,1.08,2.81,1.39l-.38,.4c-.39-.36-1.58-.67-1.94,.1-.35,.82-1.31,4.74-1.67,5.94l-1.18,6.66,4.88-4.13c.72-.82,3.7-3.72,4.05-4.5,.73-1.22-.08-1.56-.49-1.93l-.04-.76c.82,.72,1.6,1.08,2.03,1.44,.81,.35,1.59,.7,2.01,1.07l.02,.36c-1.62-1.06-3.08,.96-4.58,2.2l-9.69,9.08-.8-.36,2.76-14.14Zm-12.49,2.39c-.34,.8-1.41,2.43-1.37,3.19-.35,.8,.42,1.16,1.26,1.89l-.37,.4c-.8-.72-1.63-1.07-2.84-1.82-.8-.33-1.61-1.05-2.41-1.39l-.04-.79c.8,.36,1.61,1.1,1.99,.3,.74-.45,1.85-2.04,2.2-2.85l3.58-6.02c.34-.79,1.44-2.39,1.8-2.83,.33-1.17-.46-1.52-1.27-1.86l.38-.42c.81,.74,2.01,1.07,2.84,1.8,.79,.34,1.62,1.08,2.42,1.43,1.99,1.05,3.69,3.28,1.87,6.12-1.79,3.2-4.95,2.58-6.97,1.15-.39,.02-1.21-.71-1.21-.71l-1.83,2.41Zm-8.66-13.8c.34-.8,1.43-2.42,1.8-2.83,.33-1.17-.47-1.52-1.27-1.87l.76-.46,8.51,5.4-2.18,3.22-.41-.36c1.44-2.4,.6-3.14-1.41-4.59l-1.22-.71q-.39-.38-1.14,.44l-3.24,5.23c2.43,1.83,3.55,.61,4.65-.64l.39-.02c-.69,1.22-1.44,2.03-1.81,2.83-.71,1.2-1.06,1.98-1.8,2.81l-.42-.38c1.44-2.39,.62-3.12-1.39-4.2l-2.17,3.63c-.36,.78-1.08,1.61-1.04,2.37,.06,1.17,.88,1.94,1.69,2.26,2.02,1.06,3.2,1.39,5.04-.62l.39-.02-2.15,3.57-9.72-6.49,.35-.41c.44,.37,1.22,.73,1.98,.29,.36-.41,1.46-2.02,2.19-2.82l3.62-5.63Zm-9.4,5.36c.06,1.17,.08,1.55,.91,2.3l-.36,.41c-.43-.37-.84-.73-1.24-1.12-.43-.36-1.21-.32-1.62-.68l.29-1.97,.06-6.22q-.06-1.16-.88-1.9l-1.82,2.44c-.36,.8-1.44,2.39-1.79,3.19,.04,.78,.45,1.14,1.25,1.5l-.37,.41c-.8-.35-1.62-1.08-2.41-1.44-.84-.71-1.66-1.46-2.84-1.77l.35-.41c.81,.34,1.22,.7,1.97,.28,.77-.43,1.86-2.05,2.21-2.83l3.97-6.06c.38-.42,1.47-2.02,1.84-2.81,.33-.79-.48-1.15-.89-1.51l-.04-.78c1.22,.72,2.04,1.46,3.25,2.17,.8,.34,1.61,1.08,2.03,1.44,2.03,1.46,3.69,3.3,1.88,6.11-1.82,2.45-3.78,2.56-5.77,1.47v7.78Zm111.79,5.15l-3.22-6.01-.99,6.49,4.21-.48Zm-49.9,11.36c.39,.75,.42,1.9,.82,2.65,.42,.75,1.17,.73,1.93,.71,1.53-.43,2.25-1.97,1.81-3.86-.04-1.52-.84-2.28-1.62-3-1.14-.34-1.89,.05-2.67,.07l-.75,.02,.47,3.41Zm-.5-4.53h.38c.74-.44,1.5-.46,1.88-.85,.74-.78,.71-1.92,.68-3.05-.43-1.88-1.22-2.62-2.73-2.58-.37,.38-1.16,.4-1.16,.4,0,0,.02,.74,.03,1.14l.92,4.93Zm-12,6.39c.02,.75,.44,2.26,.83,3.03,.42,.74,1.18,.72,1.93,.31,1.9-.05,2.63-1.58,2.19-3.86-.42-1.13-.84-2.26-1.99-2.62-.76-.34-1.9-.31-3.04,.08h-.4l.48,3.06Zm-.88-4.18l.75-.38c.75-.02,1.5-.04,1.89-.8,.74-.78,.72-1.57,.69-2.69-.43-1.9-1.25-3.01-3.14-2.59,0,0-.75,.02-1.14,.42l.02,.76,.92,5.27Zm58.36-6.72c.03,1.14-.68,3.06-.28,3.8,.03,1.16,1.17,.73,1.95,.71l.02,.78c-.78,.02-1.55,.04-2.3,.06-.76,.39-1.5,.42-2.27,.43v-.37c1.12-.41,1.48-.81,1.85-1.97,.32-1.91,.28-3.42,.62-4.98l1.66-10.28,.76-.02,6.04,11.62c.39,.74,1.19,1.88,1.6,2.61,.4,.38,1.16,.36,1.91,.34l.02,.75c-.76,.02-1.9,.05-2.66,.46-1.14,.03-2.27,.43-3.04,.45v-.37c.35-.4,1.51-.43,1.08-1.56-.01-.38-.39-1.14-.4-1.51l-1.62-2.64-4.95,.92,.02,.76Zm-7.12-9.71h.39l.91,4.91h-.4c-.84-2.64-2.8-4.47-5.08-4.05-3.82,.48-4.08,5.04-3.6,8.83,.88,3.79,2.5,7.55,6.31,7.07,2.66-.83,3.37-3.12,3.29-6.16l.37-.4,.92,5.68-.79-1.12c-1.11,1.55-2.63,1.97-4.15,2.39-4.17,.88-7.7-2.07-8.6-6.98-.52-4.93,1.67-9.18,5.85-9.65,1.92-.44,3.08-.08,4.62,.62l-.03-1.14Zm-15.62,7.25c-.02-.77-.43-2.26-.45-3.02-.8-.74-1.55-.72-1.94-.71l-.39-.36c1.14-.43,2.3-.46,3.06-.47,1.14-.04,2.27-.45,3.04-.47v.39c-.37,.01-1.14,.43-1.49,1.16,.02,.8,.06,2.29,.45,3.05l.97,7.21c.02,.75,.45,2.64,.82,3,.42,.75,1.2,.72,1.94,.7l.02,.78c-1.13,.03-1.92,.05-3.06,.08-.75,.38-1.89,.42-3.04,.45v-.37c.76-.02,1.51-.04,1.48-1.19,.37-.77-.06-2.27-.08-3.02l-1.34-7.21Zm-13.29,2.54c-.02-.76-.46-2.64-.48-3.42-.41-.74-1.52-.71-1.92-.32l-.41-.74c1.15-.03,2.3-.06,3.06-.45,1.14-.03,2.3-.06,3.05-.47l.38,.75c-.75,.02-1.51,.04-1.88,.8,.02,.76,.45,2.64,.48,3.43l.95,7.18c.48,3.04,1.25,3.77,3.92,3.32,.74-.39,1.91-.43,2.64-1.22,.75-.77,.72-1.91,.7-3.06l.75-.41,.48,4.57c-.37,0-.76,.02-1.13,.03-3.44,.47-7.25,1.33-10.68,1.81v-.39c.75-.39,1.51-.41,1.49-1.17,.36-.77-.07-2.67-.09-3.43l-1.32-6.8Zm-12.2,2.2c-.02-.77-.44-2.64-.85-3.02-.4-.74-1.16-.72-1.93-.69v-.37c1.14-.42,1.89-.44,3.06-.47,.74-.02,1.49-.42,2.28-.44,2.27-.46,4.95-.13,5.42,2.9,.46,2.27-1.07,3.43-2.57,4.26,1.16-.03,2.3-.06,3.1,.68,1.14,.72,1.95,1.83,2.36,2.95,.05,1.91-.69,3.06-1.43,3.85-1.12,1.18-2.65,1.22-3.8,1.25-.36,.4-1.52,.43-2.26,.45-1.18,.03-2.3,.43-3.42,.84l-.02-.74c.37,0,1.5-.04,1.47-1.18-.02-.76-.44-2.29-.46-3.03l-.95-7.21Zm-12.88,2.22c-.02-.74-.46-2.64-.47-3.39-.4-.75-1.17-.73-1.92-.32l-.02-.76c.76-.02,1.91-.05,2.66-.47,1.17-.03,1.92-.05,2.67-.44,1.89-.43,4.97-.13,5.45,3.27,.44,2.28-.69,3.44-2.18,4.22,1.15-.03,2.29-.06,3.06,.33,1.18,.71,1.97,1.84,2,3.36,.42,1.53-.29,2.67-1.42,3.84-.75,.78-2.26,1.2-3.41,1.22-1.17,.03-1.92,.05-2.66,.46-1.55,.05-2.28,.46-3.82,.5v-.39c.74-.41,1.52-.43,1.88-1.19-.02-.74-.46-2.64-.47-3.4l-1.34-6.84Zm129.52,2.01l-1.16-6.99-3.1,6.22,4.26,.76Zm25.95-1.72c0-.77-.38-2.7-.38-3.11-.37-1.16-1.17-.76-1.93-.76v-.79h3.08c.76,0,1.93-.39,3.1-.39v.78c-.76,0-1.57,0-1.93,.79v3.48l.76,7c0,.78,0,2.71,.4,3.49,.39,.78,1.16,.78,1.92,.78v.38h-3.08c-1.17,.38-1.94,.38-3.1,.38v-.38c.4,0,1.56,0,1.56-1.16,.37-.78,0-2.33,0-3.11l-.4-7.38Zm-15.21-1.48c0-.79,.41-2.72,.41-3.49-.41-.78-1.16-1.19-1.94-1.19l.4-.36c.76,0,1.92,.36,2.69,.36,1.17,.41,2.32,.41,3.48,.41l-.37,.78c-.39,0-1.56-.38-1.94,.38-.39,.77-.39,2.72-.79,3.48l-1.16,7.4c-.38,3.09,0,3.87,2.32,4.27,1.18,0,2.32,.38,3.09,0,1.58-.79,1.58-1.57,1.94-3.12h.79l-1.15,4.66c0-.38-.79-.38-.79-.38-3.87-.78-7.35-1.16-11.19-1.95v-.39c.75,0,1.52,0,2.3-.77,0-.38,.38-2.32,.78-3.1l1.13-6.99Zm-16.15,3.99c-.39,.78-1.15,2.71-1.54,3.5,0,1.15,1.15,1.15,1.54,1.56v.38c-.78,0-1.54-.38-2.3-.38s-1.56-.41-2.32-.41l.37-.37c1.16,0,1.53-.4,2.33-1.57,.77-1.56,1.54-3.1,2.32-4.66l4.63-9.31,.77,.37,2.31,13.21c.41,.78,.41,2.32,.79,3.11,.37,.79,.76,.79,1.53,1.16v.4c-.77,0-1.9-.4-3.08-.4-.79-.37-1.93-.37-3.09-.37l.39-.79c.39,0,1.54,.39,1.54-.38v-2.34l-.39-2.71-5.4-.78-.4,.78Zm-1.49-7.94l-.4-.38c.4-2.34-.38-3.13-2.3-3.52-1.16,0-2.34-.36-2.34,.4l-1.92,12.03c0,1.95,0,2.34,1.92,3.12v.38c-1.14,0-2.31-.38-3.45-.77-1.18,0-2.34,0-3.49-.39v-.38c2.31,0,2.73-.38,3.09-2.34l1.54-12.04c.39-.36-.78-.77-1.54-.77-2.33-.36-3.09-.36-3.47,2.72l-.78-.38,.78-3.9,13.13,2.33-.77,3.9Zm-19.57-2.61c0-.79,.38-2.33,0-3.12,0-.76-.77-1.16-1.52-1.16v-.76c1.13,.38,2.3,.76,3.08,.76,1.16,0,2.3,.4,3.47,.4l-.39,.37c-.41,0-1.55,0-1.92,.79-.4,.77-.4,2.31-.78,3.11l-.78,7.36c-.37,.79-.37,2.72-.37,3.12,0,1.15,.78,1.15,1.53,1.15v.79c-1.16-.42-1.94-.42-3.08-.79-1.17,0-1.93,0-3.08-.39v-.38c.75,0,1.51,0,1.91-.78,.42-.38,.78-2.33,.78-3.09l1.16-7.38Zm93.24-11.64l-5.78-3.89,2.31,6.61,3.47-2.73Zm-26.04,18.73l-5.03-4.66,1.16,6.61,3.87-1.96Zm22.95-14.46c0,1.16,.78,3.11,1.18,3.89,.77,.78,1.54,0,1.91-.39l.39,.78c-.39,.39-1.15,.8-1.92,1.18-.38,.35-1.18,.76-1.56,1.55l-.38-.78c.77-.76,.77-1.14,.77-2.33-.77-1.94-1.16-3.5-1.53-5.04l-3.09-10.09,.37-.41,11.22,7.79c.37,.38,1.91,1.55,2.31,1.55,.76,.38,1.55,0,2.33-.39v.78c-.78,.4-1.57,.78-2.33,1.55-.76,.78-1.55,1.18-2.31,1.95l-.38-.4c.38-.37,1.14-1.16,.75-1.94-.37-.38-1.14-.76-1.54-1.16l-2.3-1.55-4.27,3.1,.38,.39Zm-19.31,2.81c-1.15-.4-1.94-.4-2.7,.41l-.39-.8c.77-.38,1.15-.38,1.55-1.14,.4,0,1.16-.38,1.55-.78l15.07,5.06-4.26-5.85c-.77-.76-1.54-2.33-2.32-3.09-1.14-.78-1.55-.39-2.7,0l-.39-.39c.77-.39,1.53-.79,2.33-1.17,.38-.79,.76-1.16,1.54-1.57l.39,.42c-.39,.78-1.17,.78-.78,1.94,.39,.78,1.92,2.72,2.72,3.87l6.17,8.56-.38,.38c-.77,0-1.54-.38-2.32-.78l-13.92-4.64,5.02,6.97c.41,.79,1.56,1.94,2.32,2.72,.78,.4,1.55,0,2.32-.4v.4c-.38,.79-1.15,1.17-1.92,1.56-.78,.38-1.16,.77-1.95,1.55l-.36-.39c.77-.78,1.15-1.16,.77-2.32-.42-.8-1.18-1.95-1.95-2.74l-5.41-7.76Zm-7.1,15.54c0,.77,.37,2.72,.76,3.87,.39,.78,1.52,.38,1.91,0l.39,.38c-.79,.41-1.14,.79-1.92,1.19-.78,.38-1.55,.77-1.94,1.15l-.4-.38c.78-.77,1.19-1.17,.78-2.71,0-1.56-.39-3.49-.78-5.04l-1.93-10.49h.78l10.03,8.92c.4,.4,1.56,1.57,2.33,1.94,.76,.4,1.54,0,1.94,0l.38,.4c-.78,.38-1.94,.78-2.71,1.55-.76,.39-1.94,.78-2.71,1.55l-.39-.78c.78,0,1.56-.78,1.16-1.55-.38-.4-.77-1.18-1.54-1.55l-1.93-1.57-4.63,2.33,.4,.78Z"/></g></g></svg>