<?xml version="1.0" encoding="UTF-8" standalone="no"?>
<svg
   xmlns:dc="http://purl.org/dc/elements/1.1/"
   xmlns:cc="http://creativecommons.org/ns#"
   xmlns:rdf="http://www.w3.org/1999/02/22-rdf-syntax-ns#"
   xmlns:svg="http://www.w3.org/2000/svg"
   xmlns="http://www.w3.org/2000/svg"
   xmlns:sodipodi="http://sodipodi.sourceforge.net/DTD/sodipodi-0.dtd"
   xmlns:inkscape="http://www.inkscape.org/namespaces/inkscape"
   id="svg"
   version="1.1"
   width="400"
   height="123.76237623762376"
   style="display: block;"
   sodipodi:docname="spid-idp-testid.svg"
   inkscape:export-filename="/home/luciano/Scrivania/spid-idp-testid.svg.png"
   inkscape:export-xdpi="96"
   inkscape:export-ydpi="96"
   inkscape:version="0.92.3 (2405546, 2018-03-11)">
  <metadata
     id="metadata13">
    <rdf:RDF>
      <cc:Work
         rdf:about="">
        <dc:format>image/svg+xml</dc:format>
        <dc:type
           rdf:resource="http://purl.org/dc/dcmitype/StillImage" />
        <dc:title></dc:title>
      </cc:Work>
    </rdf:RDF>
  </metadata>
  <defs
     id="defs11" />
  <sodipodi:namedview
     pagecolor="#ffffff"
     bordercolor="#666666"
     borderopacity="1"
     objecttolerance="10"
     gridtolerance="10"
     guidetolerance="10"
     inkscape:pageopacity="0"
     inkscape:pageshadow="2"
     inkscape:window-width="1920"
     inkscape:window-height="996"
     id="namedview9"
     showgrid="false"
     inkscape:zoom="1.14"
     inkscape:cx="-9.2105263"
     inkscape:cy="61.881187"
     inkscape:window-x="0"
     inkscape:window-y="28"
     inkscape:window-maximized="1"
     inkscape:current-layer="svgg" />
  <g
     id="svgg">
    <path
       id="path4"
       d="m 211.87619,9.420104 -0.32761,0.714795 v 11.253655 11.25453 l -0.36966,0.24177 c -0.4485,0.294327 -1.58991,0.200599 -2.65684,-0.218994 -0.43623,-0.171691 -1.4874,-0.342506 -2.81363,-0.458135 -1.16418,-0.101615 -2.37126,-0.274181 -2.68224,-0.382802 -0.82166,-0.286443 -6.94211,-0.27856 -7.83998,0.01139 -0.35564,0.113877 -1.43485,0.286443 -2.39842,0.381925 -1.13876,0.113877 -2.03226,0.289947 -2.55434,0.503685 -0.44237,0.180452 -1.06606,0.374918 -1.38755,0.431856 -0.32061,0.05782 -0.78049,0.222498 -1.02139,0.366158 -0.24089,0.144536 -0.69376,0.344259 -1.00561,0.44412 -0.31185,0.09986 -0.79364,0.334622 -1.06957,0.522081 -0.27593,0.187459 -0.64472,0.385429 -0.81991,0.43974 -0.17432,0.05518 -0.50281,0.254908 -0.72969,0.444119 -0.22688,0.190086 -0.47477,0.345134 -0.54924,0.345134 -0.50806,0 -4.80472,4.231837 -4.80472,4.732019 0,0.07884 -0.15417,0.31097 -0.34164,0.515949 -0.18745,0.204978 -0.4555,0.685013 -0.59566,1.066938 -0.14015,0.38105 -0.30571,0.692896 -0.36703,0.692896 -0.10248,0 -0.59391,1.336739 -0.59391,1.616175 0,0.06745 -0.15505,0.352142 -0.34513,0.631578 -0.18922,0.279436 -0.39069,0.856704 -0.44763,1.282428 -0.056,0.425724 -0.2225,0.971456 -0.36879,1.213226 -0.14628,0.241768 -0.34513,1.031023 -0.44235,1.753702 -0.0973,0.72268 -0.29696,1.610043 -0.44326,1.971821 -0.17169,0.424847 -0.32498,1.40594 -0.43185,2.773337 -0.0911,1.164172 -0.27068,2.675229 -0.39769,3.357614 -0.2917,1.557484 -0.43536,8.348044 -0.20936,9.854722 0.0841,0.562376 0.25403,1.974449 0.37667,3.138619 0.40207,3.800858 0.53085,4.728515 0.67713,4.905462 0.0797,0.09549 0.26629,0.893494 0.41345,1.772974 0.14805,0.879479 0.37055,1.757206 0.49493,1.949921 0.12351,0.192715 0.29696,0.744579 0.38368,1.226365 0.0867,0.481787 0.29083,1.056427 0.45288,1.276296 0.16118,0.219871 0.3355,0.614059 0.38543,0.875976 0.0508,0.261917 0.27594,0.738447 0.50019,1.05993 0.22512,0.321482 0.45287,0.769982 0.50806,0.99686 0.0543,0.227753 0.19183,0.449375 0.30484,0.492298 0.113,0.0438 0.31096,0.284692 0.43974,0.536097 0.39769,0.77699 1.86757,2.41594 2.68924,2.998463 0.2733,0.19359 0.59479,0.441491 0.71567,0.550988 0.63596,0.578144 3.50302,2.090078 3.96379,2.090078 0.12702,0 0.39419,0.128768 0.59479,0.286444 0.20059,0.157675 0.87247,0.391561 1.49266,0.519453 0.62107,0.128768 1.33674,0.324987 1.58989,0.437111 1.81415,0.80327 11.36491,0.819914 13.2719,0.02278 0.28732,-0.120008 1.03803,-0.331995 1.66699,-0.471275 0.62895,-0.13928 1.37353,-0.374918 1.65296,-0.523833 0.28032,-0.148916 0.60793,-0.270676 0.72882,-0.270676 0.19358,0 1.62493,-0.632455 2.82589,-1.248265 0.22687,-0.116505 0.63684,-0.211987 0.90927,-0.211987 0.54047,0 0.54923,0.01665 0.72004,1.337615 0.0535,0.414337 0.17608,0.714796 0.31185,0.766479 0.38368,0.147163 14.12511,0.09285 14.36161,-0.05694 0.18483,-0.115628 0.23389,-0.90751 0.31273,-4.997439 0.0516,-2.673476 0.16906,-7.816327 0.26104,-11.429726 0.16118,-6.341185 0.16732,-65.388052 0.006,-65.519448 -0.67363,-0.552741 -0.55275,-0.543981 -7.32754,-0.543981 -5.71398,0 -6.5374,-0.02716 -6.5374,-0.218994 0,-0.5834 -0.79802,-0.234762 -1.13264,0.494927 M 92.457981,31.615565 c -0.498429,0.0622 -0.990727,0.180452 -1.094969,0.264546 -0.103364,0.08322 -0.680633,0.230381 -1.283303,0.326738 -0.601796,0.09636 -1.390173,0.324111 -1.751951,0.506314 -0.360902,0.182202 -0.835681,0.374041 -1.054674,0.427476 -0.218118,0.05343 -0.638586,0.260164 -0.932914,0.459886 -0.294327,0.199723 -0.640338,0.363531 -0.769982,0.365282 -0.129644,8.76e-4 -0.399445,0.09549 -0.600043,0.211111 -0.200599,0.114752 -0.759472,0.409956 -1.24126,0.656981 -0.481786,0.247025 -1.039782,0.545732 -1.24038,0.663113 -1.117745,0.65523 -1.751951,0.188335 -1.751951,-1.289435 0,-0.725308 -0.05343,-0.963573 -0.231257,-1.031899 -0.322359,-0.123513 -14.237227,-0.0911 -14.552578,0.03416 -0.431855,0.170815 -0.396816,82.553672 0.03504,83.050342 l 0.292576,0.33725 h 6.571567 c 5.742893,0 6.57069,0.0271 6.57069,0.219 0,0.15241 0.154172,0.21899 0.510694,0.21899 0.413461,0 0.510693,-0.0561 0.510693,-0.29257 0,-0.16031 0.05518,-0.29171 0.122637,-0.29171 0.427476,0 0.461639,-0.89612 0.461639,-12.05867 0,-13.355123 -0.09285,-12.748072 1.85444,-12.127006 2.611284,0.832177 15.916475,0.825169 17.492355,-0.01051 0.15942,-0.08409 0.84794,-0.264544 1.53033,-0.401196 0.68238,-0.135776 1.42345,-0.336374 1.64683,-0.444119 0.2225,-0.108621 0.78137,-0.305716 1.24126,-0.438864 0.459,-0.132272 0.93728,-0.331995 1.06168,-0.443244 0.12438,-0.111248 0.48529,-0.295203 0.80239,-0.40908 0.55537,-0.198847 1.73005,-0.868091 2.59727,-1.479523 0.58953,-0.415211 3.45484,-3.2341 3.45484,-3.399659 0,-0.07533 0.18834,-0.374042 0.41784,-0.663114 0.23039,-0.289947 0.50106,-0.726183 0.6018,-0.969704 0.10073,-0.243521 0.23564,-0.442367 0.29958,-0.442367 0.0639,0 0.23126,-0.311848 0.3723,-0.693773 0.14015,-0.381049 0.34425,-0.798889 0.45287,-0.927658 0.10862,-0.128768 0.35478,-0.686765 0.54574,-1.240381 0.19183,-0.553617 0.45024,-1.270164 0.57464,-1.590771 0.12438,-0.321483 0.22863,-0.730563 0.23212,-0.909262 0.003,-0.178699 0.16645,-0.748959 0.36091,-1.266661 0.19447,-0.517701 0.41959,-1.55398 0.50018,-2.302939 0.0797,-0.748083 0.25666,-1.985836 0.39331,-2.747935 0.41521,-2.32659 0.39156,-14.331831 -0.0333,-16.717112 -0.17081,-0.963574 -0.35126,-2.288924 -0.40031,-2.945029 -0.0491,-0.656105 -0.22251,-1.608291 -0.38631,-2.116357 -0.16293,-0.508065 -0.38806,-1.396304 -0.49931,-1.972696 -0.11125,-0.576392 -0.29519,-1.233373 -0.40732,-1.459375 -0.11301,-0.226877 -0.2917,-0.740199 -0.39682,-1.142272 -0.10512,-0.401196 -0.27068,-0.828672 -0.36879,-0.948681 -0.0981,-0.120884 -0.29345,-0.580771 -0.43448,-1.022263 -0.14103,-0.441491 -0.34601,-0.905759 -0.45463,-1.031023 -0.1095,-0.12614 -0.27593,-0.454631 -0.36966,-0.729687 -0.0937,-0.275933 -0.35741,-0.717424 -0.58603,-0.981093 -0.22775,-0.264544 -0.41434,-0.568508 -0.41434,-0.676252 0,-0.107745 -0.10774,-0.284693 -0.23914,-0.39419 -0.1314,-0.108621 -0.3863,-0.43098 -0.56588,-0.716547 -0.18045,-0.284693 -0.88911,-1.074822 -1.57587,-1.753703 -1.61005,-1.59515 -1.85182,-1.808888 -2.29156,-2.03489 -0.2006,-0.10249 -0.4958,-0.301336 -0.65698,-0.442368 -0.16031,-0.141032 -0.52997,-0.331994 -0.82167,-0.424848 -0.2917,-0.09373 -0.64033,-0.292576 -0.77611,-0.441492 -0.1349,-0.149791 -0.48441,-0.317103 -0.77611,-0.371413 -0.29083,-0.05518 -0.82867,-0.250529 -1.19484,-0.435359 -0.36528,-0.183956 -1.1519,-0.416089 -1.74668,-0.51595 -0.59479,-0.09898 -1.31747,-0.282064 -1.60567,-0.405576 -0.59566,-0.256661 -6.362208,-0.393314 -8.001159,-0.190964 M 24.79939,31.840691 c -0.37229,0.102488 -1.411196,0.263668 -2.308195,0.357398 -0.896999,0.09373 -1.963937,0.302211 -2.372141,0.462514 -0.408205,0.161179 -1.077449,0.364406 -1.487406,0.452879 -0.409957,0.0876 -0.94255,0.303964 -1.183443,0.480035 -0.241769,0.176947 -0.7183,0.400321 -1.05993,0.497554 -0.340754,0.09636 -0.62019,0.226877 -0.62019,0.288195 0,0.06132 -0.279437,0.233887 -0.620191,0.382802 -0.748958,0.325862 -1.013504,0.52033 -2.926633,2.145263 -0.819914,0.6964 -1.720416,1.5715 -2.000728,1.944665 -0.281189,0.373166 -0.69202,0.896999 -0.912766,1.163296 -0.220746,0.26542 -0.401197,0.585152 -0.401197,0.708664 0,0.123512 -0.171691,0.429228 -0.381926,0.678004 -0.209357,0.249654 -0.442367,0.724432 -0.516825,1.055551 -0.073581,0.331119 -0.2689241,0.789254 -0.431856,1.018759 -0.1909625,0.267172 -0.3714129,0.91189 -0.5036855,1.788742 -0.2435211,1.619679 -0.4152117,2.130372 -0.7174237,2.130372 -0.3740414,0 -0.3302425,6.361332 0.044673,6.459442 0.3381262,0.08847 0.5650039,0.944301 0.6850121,2.59201 0.066577,0.904007 0.1822038,1.399808 0.4257248,1.824657 0.1839541,0.321483 0.4160879,0.92941 0.5150733,1.35163 0.09898,0.42222 0.263669,0.816409 0.365281,0.875975 0.100741,0.05956 0.286444,0.305716 0.412584,0.546608 0.386306,0.741952 2.674354,2.929262 3.309436,3.164899 0.147163,0.05518 0.310971,0.16994 0.363529,0.254909 0.05344,0.08585 0.419592,0.295204 0.813781,0.464267 0.394189,0.16994 0.79013,0.396817 0.879479,0.504562 0.09023,0.108621 0.534346,0.30484 0.987224,0.436236 0.45288,0.131396 0.989853,0.355646 1.192203,0.49843 0.20235,0.142783 0.762098,0.306591 1.243885,0.364405 0.481787,0.05782 1.088837,0.235638 1.348126,0.395066 0.280312,0.17169 1.026643,0.366157 1.833417,0.479157 0.748958,0.104241 1.553979,0.288196 1.790493,0.408206 0.5615,0.284691 1.135264,0.381925 3.147379,0.534344 0.914519,0.0692 1.991092,0.232133 2.392289,0.360902 0.402073,0.129644 1.476018,0.330243 2.387908,0.446747 0.95131,0.120885 1.760711,0.30046 1.898239,0.421344 0.132272,0.115629 0.666617,0.28294 1.188698,0.37229 0.521205,0.08935 1.113365,0.285568 1.316591,0.43536 0.202351,0.149791 0.529966,0.32411 0.727059,0.386305 0.51595,0.163807 1.716036,1.237753 1.912255,1.712531 0.09198,0.222498 0.220745,0.404701 0.284691,0.404701 0.155925,0 0.407329,0.825169 0.44412,1.460251 0.06044,1.043286 -0.0184,1.42346 -0.377545,1.810641 -0.200599,0.217242 -0.365282,0.455507 -0.365282,0.530841 0,0.280312 -1.115992,1.166799 -1.678368,1.332359 -0.321483,0.0946 -0.683261,0.253156 -0.80327,0.352142 -1.071317,0.88123 -13.931511,0.914518 -17.300512,0.04467 -0.321526,-0.08321 -2.161074,-0.276802 -4.08822,-0.430098 -1.927146,-0.154171 -3.914733,-0.359149 -4.417543,-0.455507 -1.270164,-0.243521 -1.2482656,-0.285567 -1.3709013,2.6945 -0.098982,2.401925 -0.2557855,4.53142 -0.5746398,7.805816 -0.1567996,1.614422 -0.056942,2.082194 0.446747,2.082194 0.153296,0 0.3144751,0.05782 0.3582741,0.127892 0.08585,0.140156 2.240745,0.532593 3.696615,0.673624 0.501058,0.04905 1.125629,0.176948 1.38667,0.284693 0.261041,0.108621 1.525949,0.304839 2.811005,0.436236 1.28418,0.132271 2.700631,0.334622 3.147378,0.45025 3.233225,0.83831 17.490599,0.790131 19.683165,-0.0657 0.371414,-0.144536 1.134388,-0.34163 1.696764,-0.437111 0.562377,-0.09636 1.156289,-0.261917 1.320972,-0.368786 0.164683,-0.105993 0.720051,-0.301335 1.234249,-0.432732 0.515073,-0.132272 1.037155,-0.328491 1.161543,-0.436235 0.123513,-0.107745 0.52033,-0.324987 0.882107,-0.482663 0.361777,-0.157676 0.747207,-0.395941 0.857579,-0.529088 0.110374,-0.133149 0.281189,-0.242646 0.380174,-0.242646 0.321483,0 2.03489,-1.368273 2.819765,-2.251256 0.137527,-0.154172 0.388057,-0.416964 0.55712,-0.584276 0.169063,-0.166436 0.418716,-0.520329 0.555368,-0.785749 0.135776,-0.265421 0.368786,-0.603548 0.516826,-0.751588 0.14804,-0.14804 0.316227,-0.48967 0.373165,-0.758594 0.05694,-0.268925 0.222498,-0.621067 0.368786,-0.78137 0.146287,-0.160304 0.366157,-0.728811 0.48967,-1.262281 0.123512,-0.533468 0.349514,-1.222861 0.503686,-1.532956 0.17169,-0.346887 0.347762,-1.201838 0.458135,-2.229357 0.09898,-0.916271 0.271552,-1.92627 0.383677,-2.244249 0.247025,-0.701656 0.28294,-4.547188 0.04818,-5.165626 -0.08497,-0.22425 -0.27856,-1.287684 -0.430103,-2.362505 -0.168187,-1.193079 -0.360902,-2.048031 -0.494926,-2.196071 -0.120885,-0.134024 -0.320607,-0.627199 -0.442368,-1.095845 -0.122636,-0.469523 -0.315351,-0.927658 -0.428352,-1.017883 -0.113877,-0.09022 -0.323235,-0.419593 -0.466895,-0.73144 -0.14366,-0.310972 -0.416088,-0.738447 -0.606174,-0.948681 -0.79889,-0.886487 -1.550477,-1.623182 -1.654718,-1.623182 -0.06132,0 -0.386305,-0.230382 -0.722679,-0.511569 -0.336375,-0.281189 -0.692897,-0.510694 -0.791006,-0.510694 -0.09898,0 -0.328491,-0.157676 -0.509818,-0.350391 -0.181327,-0.19359 -0.635958,-0.428351 -1.010875,-0.522081 -0.374918,-0.0946 -0.902255,-0.307467 -1.172056,-0.474778 -0.2698,-0.166436 -0.778742,-0.356523 -1.130884,-0.42222 -0.353018,-0.0657 -0.821664,-0.24615 -1.04241,-0.400321 -0.229505,-0.159428 -0.904006,-0.35477 -1.569747,-0.453755 -0.642091,-0.0946 -1.430469,-0.295204 -1.751951,-0.44412 C 38.878898,56.734156 37.861015,56.508155 36.937736,56.381138 36.013582,56.254121 34.962412,56.055275 34.60151,55.939647 34.239732,55.824018 33.305943,55.661087 32.526325,55.576993 31.746707,55.493773 30.771746,55.2923 30.36179,55.130246 29.950958,54.96819 29.035563,54.776351 28.326899,54.70277 27.619112,54.63006 26.753647,54.441729 26.404134,54.285806 26.054619,54.129882 25.423917,53.9214 25.002573,53.822414 c -0.42222,-0.09811 -0.766478,-0.230381 -0.766478,-0.294327 0,-0.06394 -0.289948,-0.270677 -0.644718,-0.459887 -2.529817,-1.350754 -2.552592,-5.395133 -0.03679,-6.420023 0.254033,-0.103365 0.528213,-0.27418 0.607927,-0.379298 0.08058,-0.105117 0.737571,-0.294327 1.46025,-0.419592 0.72268,-0.125265 1.609168,-0.322358 1.970945,-0.437111 0.904007,-0.28732 5.610622,-0.28732 6.889546,0 0.506314,0.113877 2.301187,0.282063 3.98744,0.373165 1.686251,0.09198 3.722894,0.26542 4.525288,0.384553 0.803269,0.120009 2.117232,0.283817 2.920502,0.365282 0.802392,0.08058 2.247752,0.234761 3.211325,0.34163 2.377397,0.264545 2.445723,0.21987 2.576243,-1.686252 0.153296,-2.247753 0.183079,-10.206865 0.03854,-10.339136 -0.312723,-0.28732 -1.979704,-0.723556 -3.12548,-0.818161 -0.682385,-0.05606 -1.635446,-0.199723 -2.117232,-0.318856 -2.003356,-0.495802 -2.661213,-0.621066 -3.284907,-0.62457 -0.360902,-0.0026 -0.886488,-0.06132 -1.167675,-0.13052 -1.79137,-0.444119 -2.978317,-0.635958 -5.109565,-0.826045 -1.32535,-0.118256 -2.770709,-0.275056 -3.212201,-0.349514 -1.250892,-0.210234 -8.116786,-0.166435 -8.926188,0.05694 m 117.912405,1.54084 c -0.24089,0.06482 -1.08534,0.283815 -1.87721,0.487042 -0.79101,0.203226 -1.54698,0.459887 -1.67838,0.571136 -0.13227,0.111249 -0.52033,0.289948 -0.86283,0.397693 -0.34251,0.107744 -0.6964,0.284692 -0.78576,0.392437 -0.0903,0.108621 -0.43448,0.327615 -0.76472,0.487918 -1.22023,0.590407 -2.83904,1.991092 -3.95941,3.425939 -1.24914,1.601283 -1.48653,1.942037 -1.67574,2.41156 -0.113,0.281189 -0.32061,0.675377 -0.46076,0.875976 -0.14103,0.200598 -0.32236,0.740199 -0.40382,1.199209 -0.0815,0.459888 -0.29872,1.14928 -0.48266,1.532957 -0.50808,1.061683 -0.51946,8.529372 -0.014,9.473673 0.17607,0.329367 0.39681,1.038032 0.49054,1.575004 0.0929,0.536973 0.26192,1.067814 0.37404,1.179939 0.11213,0.112124 0.3285,0.493174 0.47917,0.846192 0.15154,0.353018 0.44674,0.82692 0.65609,1.052046 0.20936,0.226002 0.38018,0.490546 0.38018,0.58778 0,0.09636 0.16119,0.366158 0.35828,0.599167 0.9916,1.169427 1.33761,1.560987 1.51719,1.714283 0.10862,0.09285 0.35739,0.316227 0.55448,0.496679 0.19623,0.18045 0.4047,0.32849 0.4634,0.32849 0.0578,0 0.42309,0.262793 0.81202,0.584276 0.38894,0.320606 0.75598,0.583399 0.81554,0.583399 0.0596,0 0.28556,0.164683 0.50281,0.365282 0.21636,0.200598 0.50982,0.365281 0.6526,0.365281 0.14278,0 0.55011,0.188335 0.90489,0.418717 0.35564,0.231257 0.93116,0.462515 1.2798,0.515074 0.3495,0.05256 1.0389,0.270675 1.53295,0.483538 1.27542,0.550988 7.07525,0.593911 8.41812,0.06307 0.4415,-0.175195 1.19308,-0.420468 1.66962,-0.545733 0.4774,-0.125264 1.02226,-0.349514 1.21147,-0.49843 0.1892,-0.148916 0.55448,-0.316226 0.81202,-0.372289 0.25667,-0.05607 0.68327,-0.289948 0.94694,-0.521206 0.26367,-0.230381 0.53697,-0.418715 0.60704,-0.418715 0.28908,0 3.36638,-2.777718 3.36638,-3.038759 0,-0.07096 0.13052,-0.246149 0.29082,-0.391561 0.15943,-0.144536 0.46602,-0.565004 0.68063,-0.934665 0.21374,-0.369662 0.47741,-0.724432 0.58515,-0.789254 0.10775,-0.06395 0.19535,-0.204979 0.19535,-0.313599 0,-0.107745 0.19184,-0.560625 0.42573,-1.006496 0.23476,-0.444995 0.50455,-1.191327 0.60091,-1.657346 0.0954,-0.466018 0.2444,-0.978464 0.33025,-1.139643 0.68763,-1.285056 0.67625,-7.197013 -0.0167,-8.491705 -0.0815,-0.151544 -0.22426,-0.698152 -0.31799,-1.214977 -0.0937,-0.516826 -0.32148,-1.205342 -0.50631,-1.529453 -0.18396,-0.324111 -0.38105,-0.786626 -0.43711,-1.02752 -0.0561,-0.240892 -0.19272,-0.538724 -0.30397,-0.662237 -0.11037,-0.123512 -0.339,-0.533469 -0.50631,-0.91189 -0.16731,-0.378421 -0.35039,-0.688517 -0.40733,-0.688517 -0.056,0 -0.25929,-0.296079 -0.45112,-0.656981 -0.19185,-0.361778 -0.39683,-0.656982 -0.45463,-0.656982 -0.0587,0 -0.27944,-0.261916 -0.49143,-0.580771 -0.21111,-0.319731 -0.68676,-0.86196 -1.05642,-1.204467 -0.36967,-0.343382 -0.90314,-0.837431 -1.18608,-1.098472 -0.28294,-0.261041 -0.59391,-0.473903 -0.69202,-0.473903 -0.0981,0 -0.29695,-0.131396 -0.44237,-0.292576 -0.14541,-0.160303 -0.32499,-0.291699 -0.39944,-0.291699 -0.0736,0 -0.61231,-0.229506 -1.19659,-0.510694 -0.58427,-0.281188 -1.22022,-0.511569 -1.41294,-0.511569 -0.19359,0 -0.94167,-0.162932 -1.66435,-0.362655 -1.3709,-0.379297 -5.88656,-0.521205 -7.00605,-0.218993 m 62.90992,11.665363 c 0.79625,0.09549 1.66172,0.263668 1.92451,0.373165 0.26192,0.109497 1.11863,0.280313 1.90263,0.378422 1.14839,0.144536 1.49178,0.245273 1.76333,0.516825 l 0.33638,0.336375 v 15.089551 c 0,11.841433 -0.0394,15.142984 -0.18221,15.337451 -0.28207,0.384553 -2.07781,0.946053 -3.61164,1.129131 -0.76123,0.0911 -1.5496,0.25053 -1.75196,0.354771 -0.47828,0.245273 -1.68275,0.475655 -3.14124,0.600043 -0.64209,0.05431 -1.42259,0.189211 -1.73356,0.298707 -0.73669,0.258413 -2.73567,0.256661 -3.35849,-0.0035 -0.26629,-0.111248 -0.80589,-0.247901 -1.20008,-0.303963 -0.67626,-0.09549 -0.93204,-0.200599 -2.12074,-0.863711 -1.00562,-0.562377 -2.75581,-2.462368 -2.75581,-2.992333 0,-0.114752 -0.16469,-0.425723 -0.36704,-0.691144 -0.20235,-0.264544 -0.42748,-0.796261 -0.50106,-1.18169 -0.14979,-0.785751 -0.23914,-1.076574 -0.53872,-1.753703 -0.11476,-0.259289 -0.26892,-1.310459 -0.34339,-2.336227 -0.0736,-1.025766 -0.20585,-2.631429 -0.29345,-3.568722 -0.26454,-2.816261 -0.24877,-6.100293 0.0394,-8.297239 0.4485,-3.419807 0.52559,-3.859547 0.7586,-4.326442 0.12526,-0.250529 0.29608,-0.827796 0.38017,-1.282428 0.0841,-0.455506 0.31359,-1.063433 0.50894,-1.352505 0.19622,-0.289073 0.35653,-0.626323 0.35653,-0.749835 0,-0.635082 2.40104,-3.405792 3.38126,-3.90247 0.26805,-0.136653 0.59742,-0.343382 0.73144,-0.460763 0.68063,-0.595663 6.13533,-0.789254 9.81618,-0.347762 M 94.167885,45.376261 c 0.200598,0.134901 0.750711,0.344259 1.22111,0.465143 0.471274,0.121761 0.982844,0.356522 1.137015,0.522081 0.155049,0.16556 0.360902,0.303089 0.458136,0.30484 0.37842,0.0061 3.023864,2.839036 3.023864,3.237605 0,0.07533 0.15681,0.34601 0.34952,0.600919 0.19272,0.255784 0.4266,0.837433 0.51945,1.293816 0.0929,0.455506 0.25842,0.902254 0.36791,0.993356 0.18308,0.151543 0.34777,0.942549 0.59391,2.849547 0.0516,0.402072 0.15154,0.799766 0.22075,0.884735 0.52032,0.63333 0.60004,10.21212 0.0937,11.362275 -0.13665,0.311848 -0.31097,1.113366 -0.38719,1.782611 -0.15505,1.364769 -0.38717,2.342357 -0.58427,2.464994 -0.0727,0.04467 -0.20848,0.458135 -0.30134,0.918022 -0.0928,0.460763 -0.3206,1.066938 -0.5063,1.348127 -0.18572,0.281187 -0.38368,0.667492 -0.44063,0.859331 -0.22688,0.759471 -1.71165,2.488645 -2.480754,2.888966 -0.240899,0.125264 -0.578148,0.355646 -0.748962,0.51157 -0.171692,0.1568 -0.66399,0.373166 -1.09497,0.481786 -0.43098,0.109498 -1.080077,0.315351 -1.440979,0.458136 -0.92065,0.365281 -6.914073,0.350389 -9.19774,-0.02278 -0.843567,-0.137529 -1.906125,-0.292576 -2.361632,-0.345134 -1.594275,-0.183956 -1.433972,1.582887 -1.433972,-15.844642 0,-16.148604 -0.01227,-15.850772 0.645594,-15.850772 0.105118,0 0.356522,-0.130521 0.559748,-0.289949 0.203227,-0.160303 0.81203,-0.393312 1.351631,-0.518576 0.540477,-0.125266 1.066939,-0.311848 1.169429,-0.415213 0.103364,-0.103365 0.801517,-0.304839 1.552227,-0.448499 0.749836,-0.142784 1.453243,-0.331995 1.562741,-0.420468 0.550112,-0.442368 5.512512,-0.500182 6.151974,-0.07183 M 144.46375,74.42097 c -0.48179,0.0657 -1.52858,0.190962 -2.32572,0.27856 -0.79714,0.0876 -1.7169,0.27856 -2.04364,0.423971 -0.32675,0.146289 -0.93992,0.377546 -1.36127,0.515074 -0.42134,0.136652 -0.76648,0.298707 -0.76648,0.360026 0,0.147164 -0.67538,0.449375 -1.00475,0.449375 -0.14365,0 -0.43097,0.181327 -0.63946,0.402072 -0.20848,0.220747 -0.68763,0.630704 -1.06431,0.911891 -0.37667,0.281188 -0.88998,0.734944 -1.14139,1.008248 -1.05205,1.144899 -1.26579,1.407692 -1.34375,1.652965 -0.0446,0.142785 -0.14541,0.259289 -0.22337,0.259289 -0.078,0 -0.27506,0.311847 -0.43799,0.692897 -0.16293,0.381925 -0.41258,0.825168 -0.55361,0.985471 -0.14191,0.16118 -0.34076,0.58778 -0.44237,0.949558 -0.10249,0.360902 -0.27944,0.762099 -0.39332,0.890867 -0.11474,0.128768 -0.28119,0.621066 -0.37141,1.094969 -0.0893,0.473027 -0.31973,1.40156 -0.51157,2.062046 -0.34951,1.207093 -0.49055,3.170154 -0.24439,3.396156 0.1603,0.147163 27.67819,0.305715 30.34378,0.174319 l 2.04452,-0.09987 -0.0351,-0.948682 c -0.0184,-0.522081 -0.12789,-1.212349 -0.24265,-1.532957 -0.11475,-0.321483 -0.28557,-1.139643 -0.3793,-1.818524 -0.0937,-0.679756 -0.28994,-1.468134 -0.43448,-1.751951 -0.14454,-0.284692 -0.34776,-0.813781 -0.45113,-1.174682 -0.10249,-0.361778 -0.27155,-0.757719 -0.37492,-0.881232 -0.10424,-0.123512 -0.32674,-0.517701 -0.49492,-0.875975 -0.48179,-1.025767 -1.7502,-2.683113 -2.66822,-3.488134 -0.14454,-0.12614 -0.43799,-0.409956 -0.6526,-0.630702 -0.21549,-0.220745 -0.46339,-0.402072 -0.55099,-0.402072 -0.0884,0 -0.37492,-0.190964 -0.63684,-0.424849 -0.26192,-0.233885 -0.65085,-0.468646 -0.86546,-0.522081 -0.21462,-0.05256 -0.52121,-0.214613 -0.68151,-0.359149 -0.16031,-0.145413 -0.5545,-0.345135 -0.87598,-0.444996 -0.32148,-0.09987 -0.79363,-0.308343 -1.05029,-0.463391 -0.33199,-0.199723 -0.92328,-0.318855 -2.04452,-0.409956 -0.86722,-0.07096 -1.93854,-0.168188 -2.38003,-0.217242 -1.56975,-0.173444 -1.83517,-0.179575 -2.70063,-0.06132"
       inkscape:connector-curvature="0"
       style="fill:#1d71b8;fill-rule:evenodd;stroke:none;stroke-width:0.87597531"
       sodipodi:nodetypes="cccccccccccccssccssscssccssccccccccsccccccccsscccscscsccccccssccccccsccscsccccsssssscccccsccscsscsccsscccscscccscccscccccccccccccsccccscsccsccccscccsccccccssscccccccccccsccscccccccsccccccccccssscccssssccccccccccsssccccccscccccscscccsccccccccccccccccccscccccccccsccscccscscscccccsccsscccsccccscscsscsccsscssscccccscsccccccccscccccccccscccccccscccccccccsccccccssscccccccsccssssccsccccccccccccccccccssccscccc" />
    <text
       xml:space="preserve"
       style="font-style:normal;font-weight:normal;font-size:35.03900909px;line-height:1.25;font-family:sans-serif;letter-spacing:0px;word-spacing:0px;fill:#1d71b8;fill-opacity:1;stroke:none;stroke-width:0.87597531"
       x="240.33617"
       y="71.783409"
       id="text3720"><tspan
         sodipodi:role="line"
         id="tspan3718"
         x="240.33617"
         y="71.783409"
         style="font-style:normal;font-variant:normal;font-weight:normal;font-stretch:normal;font-family:'Noto Sans Mono CJK JP';-inkscape-font-specification:'Noto Sans Mono CJK JP';fill:#1d71b8;fill-opacity:1;stroke-width:0.87597531">VALIDATOR</tspan></text>
  </g>
</svg>
