<?xml version="1.0" encoding="UTF-8"?>
<!DOCTYPE svg PUBLIC "-//W3C//DTD SVG 1.1//EN" "http://www.w3.org/Graphics/SVG/1.1/DTD/svg11.dtd">
<svg xmlns="http://www.w3.org/2000/svg" version="1.1" width="156px" height="55px" style="shape-rendering:geometricPrecision; text-rendering:geometricPrecision; image-rendering:optimizeQuality; fill-rule:evenodd; clip-rule:evenodd" xmlns:xlink="http://www.w3.org/1999/xlink">
<g><path style="opacity:1" fill="#1a69cc" d="M -0.5,-0.5 C 51.5,-0.5 103.5,-0.5 155.5,-0.5C 155.5,17.8333 155.5,36.1667 155.5,54.5C 103.5,54.5 51.5,54.5 -0.5,54.5C -0.5,36.1667 -0.5,17.8333 -0.5,-0.5 Z"/></g>
<g><path style="opacity:1" fill="#edeef1" d="M 122.5,7.5 C 124.167,7.5 125.833,7.5 127.5,7.5C 127.5,17.1667 127.5,26.8333 127.5,36.5C 111.585,40.2513 105.919,34.2513 110.5,18.5C 113.959,15.7692 117.959,14.7692 122.5,15.5C 122.5,12.8333 122.5,10.1667 122.5,7.5 Z"/></g>
<g><path style="opacity:1" fill="#3fa950" d="M 41.5,12.5 C 44.648,13.4735 46.4813,15.4735 47,18.5C 39.8333,25.6667 32.6667,32.8333 25.5,40C 24.0922,40.3152 22.7589,39.9819 21.5,39C 18.5,35.6667 15.5,32.3333 12.5,29C 13.7481,27.0414 15.4148,25.5414 17.5,24.5C 19.3159,25.8149 20.9825,27.3149 22.5,29C 23.5,29.6667 24.5,29.6667 25.5,29C 31.0363,23.6314 36.3697,18.1314 41.5,12.5 Z"/></g>
<g><path style="opacity:1" fill="#e8ebf0" d="M 54.5,15.5 C 58.5138,15.3345 62.5138,15.5012 66.5,16C 67.3802,17.3561 67.7135,18.8561 67.5,20.5C 63.6249,20.0845 59.9582,20.5845 56.5,22C 60.2778,22.8264 63.7778,24.3264 67,26.5C 68.7941,31.6326 67.2941,35.1326 62.5,37C 58.7973,37.5787 55.1306,37.412 51.5,36.5C 51.5,34.8333 51.5,33.1667 51.5,31.5C 54.8984,31.8204 58.2317,31.487 61.5,30.5C 58.1998,29.4563 55.0331,28.123 52,26.5C 50.8118,22.2586 51.6451,18.5919 54.5,15.5 Z"/></g>
<g><path style="opacity:1" fill="#e9ebf0" d="M 71.5,15.5 C 76.3624,15.9541 81.3624,16.1208 86.5,16C 91.254,21.7198 91.754,27.8864 88,34.5C 84.9587,36.9287 81.4587,37.9287 77.5,37.5C 77.5,40.1667 77.5,42.8333 77.5,45.5C 75.5,45.5 73.5,45.5 71.5,45.5C 71.5,35.5 71.5,25.5 71.5,15.5 Z"/></g>
<g><path style="opacity:1" fill="#e7eaf0" d="M 97.5,15.5 C 105.294,15.8001 107.461,19.4667 104,26.5C 98.4393,29.8029 94.9393,28.3029 93.5,22C 93.7225,19.0379 95.0558,16.8712 97.5,15.5 Z"/></g>
<g><path style="opacity:1" fill="#2671cf" d="M 77.5,20.5 C 82.0386,19.5394 84.372,21.3727 84.5,26C 84.843,31.1594 82.5097,33.3261 77.5,32.5C 77.5,28.5 77.5,24.5 77.5,20.5 Z"/></g>
<g><path style="opacity:1" fill="#2a71cf" d="M 116.5,20.5 C 118.5,20.5 120.5,20.5 122.5,20.5C 122.5,24.1667 122.5,27.8333 122.5,31.5C 120.208,31.7564 118.041,31.4231 116,30.5C 115.253,27.0764 115.42,23.7431 116.5,20.5 Z"/></g>
<g><path style="opacity:1" fill="#ededf0" d="M 96.5,30.5 C 101.825,29.3137 104.825,31.3137 105.5,36.5C 101.5,36.5 97.5,36.5 93.5,36.5C 93.615,34.0532 94.615,32.0532 96.5,30.5 Z"/></g>
<g><path style="opacity:1" fill="#5993db" d="M 115.5,40.5 C 120.64,41.1932 121.307,42.8599 117.5,45.5C 115.77,44.9744 114.436,43.9744 113.5,42.5C 113.846,41.3044 114.346,41.3044 115,42.5C 115.464,41.9056 115.631,41.2389 115.5,40.5 Z"/></g>
<g><path style="opacity:1" fill="#5596dc" d="M 123.5,40.5 C 127.214,40.0127 130.214,41.1794 132.5,44C 129.179,44.8787 125.513,45.3787 121.5,45.5C 121.343,44.1266 121.51,42.7932 122,41.5C 123.087,43.9316 123.587,43.5983 123.5,40.5 Z"/></g>
<g><path style="opacity:1" fill="#5898dc" d="M 133.5,40.5 C 136.656,40.8366 139.989,40.8366 143.5,40.5C 143.5,41.8333 143.5,43.1667 143.5,44.5C 141.599,44.4332 139.766,44.7665 138,45.5C 136.347,45.1802 135.347,44.1802 135,42.5C 134.667,43.1667 134.333,43.8333 134,44.5C 133.51,43.2068 133.343,41.8734 133.5,40.5 Z"/></g>
<g><path style="opacity:1" fill="#5d9add" d="M 43.5,40.5 C 45.3786,40.3932 45.7119,40.8932 44.5,42C 46.6524,44.0824 47.3191,43.9157 46.5,41.5C 50.1073,40.5108 53.774,40.1774 57.5,40.5C 57.5432,44.8926 57.0432,45.2259 56,41.5C 54.4252,44.1034 52.0919,45.4367 49,45.5C 46.2429,45.3618 43.4095,45.0285 40.5,44.5C 39.479,43.9984 39.3123,43.3317 40,42.5C 41.3024,41.9152 42.469,41.2485 43.5,40.5 Z"/></g>
<g><path style="opacity:1" fill="#5e99dd" d="M 60.5,40.5 C 67.3125,40.5676 67.9792,42.2343 62.5,45.5C 61.2638,44.7542 59.9305,44.4208 58.5,44.5C 58.5271,42.8007 59.1938,41.4674 60.5,40.5 Z"/></g>
<g><path style="opacity:1" fill="#5593db" d="M 90.5,42.5 C 89.4402,44.0433 87.9402,45.0433 86,45.5C 84.7651,44.3845 83.5984,44.3845 82.5,45.5C 78.7342,43.9886 78.5676,42.3219 82,40.5C 85.0093,39.9942 87.8426,40.6609 90.5,42.5 Z"/></g>
<g><path style="opacity:1" fill="#5693db" d="M 90.5,42.5 C 91.7901,40.86 93.4567,40.36 95.5,41C 94.3463,41.9138 94.513,42.7471 96,43.5C 96.6667,39.5 97.3333,39.5 98,43.5C 98.4828,42.552 98.6495,41.552 98.5,40.5C 100.39,40.2965 101.89,40.9632 103,42.5C 104.016,41.3659 104.683,41.6992 105,43.5C 105.483,42.552 105.649,41.552 105.5,40.5C 109.938,39.4251 111.938,41.0917 111.5,45.5C 105.59,44.8533 99.9237,44.8533 94.5,45.5C 92.739,44.9649 91.4057,43.9649 90.5,42.5 Z"/></g>
</svg>
