<?xml version="1.0" encoding="UTF-8" standalone="no"?><!DOCTYPE svg PUBLIC "-//W3C//DTD SVG 1.1//EN" "http://www.w3.org/Graphics/SVG/1.1/DTD/svg11.dtd"><svg width="100%" height="100%" viewBox="0 0 496 512" version="1.1" xmlns="http://www.w3.org/2000/svg" xmlns:xlink="http://www.w3.org/1999/xlink" xml:space="preserve" xmlns:serif="http://www.serif.com/" style="fill-rule:evenodd;clip-rule:evenodd;stroke-linejoin:round;stroke-miterlimit:2;"><path d="M248,104c-53,0 -96,43 -96,96c0,53 43,96 96,96c53,0 96,-43 96,-96c0,-53 -43,-96 -96,-96Zm0,144c-26.5,0 -48,-21.5 -48,-48c0,-26.5 21.5,-48 48,-48c26.5,0 48,21.5 48,48c0,26.5 -21.5,48 -48,48Zm0,-240c-137,0 -248,111 -248,248c0,137 111,248 248,248c137,0 248,-111 248,-248c0,-137 -111,-248 -248,-248Zm0,448c-49.7,0 -95.1,-18.3 -130.1,-48.4c14.9,-23 40.4,-38.6 69.6,-39.5c20.8,6.4 40.6,9.6 60.5,9.6c19.9,0 39.7,-3.1 60.5,-9.6c29.2,1 54.7,16.5 69.6,39.5c-35,30.1 -80.4,48.4 -130.1,48.4Zm162.7,-84.1c-24.4,-31.4 -62.1,-51.9 -105.1,-51.9c-10.2,0 -26,9.6 -57.6,9.6c-31.5,0 -47.4,-9.6 -57.6,-9.6c-42.9,0 -80.6,20.5 -105.1,51.9c-23.4,-32.7 -37.3,-72.7 -37.3,-115.9c0,-110.3 89.7,-200 200,-200c110.3,0 200,89.7 200,200c0,43.2 -13.9,83.2 -37.3,115.9Z" style="fill:#fff;fill-rule:nonzero;"/></svg>